<!-- by TradingView --><svg width="18" height="18" fill="none" xmlns="http://www.w3.org/2000/svg"><path fill="#E87E36" d="M0 0h18v18H0z"/><path d="M12.616 13.975c-2.059-.384-2.661-3.81-2.823-5.538.705.078 1.109-.274 1.208-.437.284 1.654.9 4.84 2.146 4.664 1.246-.177 1.724-3.196 1.851-4.741.035 2.216-.323 6.437-2.382 6.052zM8.824 4c-1.749 0-4.559 5.72-5.827 8.998H4.34c1.829-4.564 3.277-6.47 3.852-7.04.485-.481.692-.256.83 0 .307-.509 1.015-.518 1.286-.34C9.992 4.055 9.243 4 8.824 4z" fill="#fff"/><ellipse cx="10" cy="7.006" rx="1" ry="1.002" fill="#fff"/><ellipse cx="12" cy="5.002" rx="1" ry="1.002" fill="#fff"/><ellipse cx="13.5" cy="6.505" rx=".5" ry=".501" fill="#fff"/><circle cx="8" cy="10" r="1" fill="#fff"/></svg>