<!-- by TradingView --><svg width="18" height="18" fill="none" xmlns="http://www.w3.org/2000/svg"><path fill="#08090D" d="M0 0h18v18H0z"/><circle cx="9" cy="9" r="9" fill="#08090D"/><path d="M14 13h-4v-.444c.2-.012 1.196-.033 1.196-.357a.806.806 0 00-.055-.281L10.375 10H6.92c-.128.292-.22.475-.301.692-.148.413-.37.869-.37 1.314 0 .486 1.412.534 1.75.55V13H4v-.444c.77-.054 1.303-.42 1.6-1.095C6.688 8.983 7.73 6.49 8.789 4h.547l3.235 7.655c.241.573.79.878 1.43.9V13zm-3.871-3.68L8.617 5.932 7.215 9.319h2.914z" fill="#fff"/></svg>