<!-- by TradingView --><svg width="18" height="18" fill="none" xmlns="http://www.w3.org/2000/svg"><path fill="#D1A40B" d="M0 0h18v18H0z"/><circle cx="9" cy="9" r="9" fill="#D1A40B"/><path d="M13 10.005V4.438c0-.393-.362-.538-.605-.367-.156.11-3.284 2.431-3.284 2.431-2.778 2.002-4.053 2.856-5.294 3.845C2.324 11.536 2.974 14 4.982 14c.753.002 1.351 0 1.351 0l2.223-1.992s-2.38.013-2.82 0c-1.07-.034-1.07-1.001 0-1.765C6.011 10.046 10 7.17 10 7.17v5.337c0 .552 0 1.492.556 1.492.224-.398 2.444-3.994 2.444-3.994z" fill="#fff"/></svg>