<!-- by TradingView --><svg width="18" height="18" fill="none" xmlns="http://www.w3.org/2000/svg"><path fill="#F0F3FA" d="M0 0h18v18H0z"/><path d="M13.294 11.563a5 5 0 00-4.421-7.561l4.421 7.561zm-1.494 1.58L8.873 8l-2.791 5.06c.82.59 1.828.94 2.918.94a4.977 4.977 0 002.8-.857zm-7.186-1.74a5 5 0 014.257-7.401L7.681 6.07 8.873 8H6.65l-2.036 3.403z" fill="#64C9DE"/><path d="M6.08 13.06c.822.591 1.83.94 2.92.94a4.977 4.977 0 002.8-.857L8.873 8 6.08 13.06z" fill="#A9CC48"/><path d="M13.294 11.563A5 5 0 009 4h-.128l4.422 7.563z" fill="#1E428A"/></svg>