<!-- by TradingView --><svg width="18" height="18" fill="none" xmlns="http://www.w3.org/2000/svg"><path fill="#0099D8" d="M0 0h18v18H0z"/><path d="M8.298 4.059c-2.281.337-4.022 2.193-4.256 4.536L4 9.005l.204-.09c.114-.055.354-.133.54-.187.318-.09.372-.139 1.2-1.036 1.393-1.518 2.204-2.422 2.66-2.97.666-.802.636-.723.3-.717-.162.006-.432.03-.606.054zM9.972 6.029c-.24.988-.432 1.825-.432 1.868 0 .036.132.078.318.09.294.018.342 0 .792-.29.265-.168.679-.409.919-.53.48-.24 1.428-.578 1.626-.578.073 0 .127-.024.127-.054 0-.157-.787-1.084-1.195-1.41-.426-.337-1.224-.777-1.567-.855l-.155-.036-.433 1.795zM8.178 6.15c-.96.951-1.903 1.987-2.083 2.289-.048.09-.15.102 1.494-.2.66-.126 1.225-.24 1.249-.264.072-.06.276-.964.402-1.807.066-.416.138-.844.156-.952.012-.103.006-.193-.024-.193-.024 0-.564.506-1.194 1.126zM13.532 7.336c-.066.042-.384.235-.709.422-.648.38-.78.386-.606.018.06-.12.09-.235.072-.259-.09-.084-.828.392-2.407 1.542l-.702.512v.308c0 .168.042.427.09.566.24.693-.042 1.277-.528 1.09-.234-.09-.3-.313-.264-.903l.03-.512-.198.24c-.546.645-.75 1.248-.522 1.53.108.133.168.151.474.145.372-.012 1.134-.235 1.74-.506.445-.205 1.399-1.078 1.183-1.084-.072 0-.288.084-.474.18-.198.103-.396.17-.456.151-.115-.036-.535-.482-.535-.566 0-.12.204-.199.87-.343.583-.121 1.988-.362 3.176-.543L14 9.288l-.036-.554c-.03-.458-.216-1.38-.294-1.452-.006-.006-.072.018-.138.054zM9.456 8.372a.3.3 0 00-.096.181c0 .066.054.048.21-.072.114-.084.21-.169.21-.18 0-.067-.246-.013-.324.071z" fill="#fff"/><path d="M7.56 8.668c-1.706.361-1.802.403-2.684 1.259-.282.27-.318.331-.318.554 0 .15-.036.283-.09.325-.078.067-.06.133.15.537.492.951 1.188 1.62 2.19 2.114.86.428 1.832.615 2.624.518l.324-.042.312-.946c.174-.524.312-.964.312-.982 0-.024-.222.042-.492.139-1.35.482-2.1.578-2.719.343-.612-.229-.714-.639-.318-1.307.114-.199.534-.68 1.008-1.15l.81-.808.067-.386.066-.38-.156.007c-.084 0-.577.096-1.087.205zM4.024 9.36a.91.91 0 00.042.2c.042.096.06.09.216-.067l.162-.18-.21-.025c-.168-.018-.216 0-.21.072zM13.291 9.873c-.264.084-.636.192-.834.247-.294.09-.378.144-.552.38-.384.53-1.657 3.204-1.567 3.294.048.049.883-.313 1.267-.548 1.158-.699 2.01-1.94 2.287-3.331.048-.235.042-.235-.6-.042z" fill="#fff"/></svg>