<!-- by TradingView --><svg width="18" height="18" fill="none" xmlns="http://www.w3.org/2000/svg"><path fill="#11175E" d="M0 0h18v18H0z"/><circle cx="9" cy="9" r="9" fill="#11175E"/><path d="M4.924 5.684c-.333.227-.636.47-.924.746 2.637.486 4.758 1.897 6.077 3.924-.727-2.254-2.394-3.86-5.153-4.67z" fill="#fff"/><path d="M6.819 4.776c-.485.146-.955.34-1.41.6 3.47 1.151 4.85 3.535 5.304 5.821-.015-2.61-1.318-4.767-3.894-6.421z" fill="#fff"/><path d="M11.077 12.09c.743-3.552-.894-6.098-2.334-7.574-.09 0-.182-.016-.273-.016a4.76 4.76 0 00-1.075.114c3.227 2.27 3.91 5.075 3.682 7.475z" fill="#fff"/><path d="M11.365 12.69c1.03-2.385.954-4.898-.228-7.395a5.01 5.01 0 00-1.742-.681c1.363 1.556 2.955 4.313 1.97 8.075z" fill="#fff"/><path d="M12.956 7.24a6.01 6.01 0 00-1.152-1.426c1 2.594.88 5.237-.364 7.686a9.441 9.441 0 001.5-4.33 9.135 9.135 0 00.016-1.93z" fill="#fff"/></svg>