<!-- by TradingView --><svg width="18" height="18" fill="none" xmlns="http://www.w3.org/2000/svg"><path fill="#0C6F51" d="M0 0h18v18H0z"/><path d="M12.224 4H5.776C5.347 4 5 4.293 5 4.656v8.688c0 .363.347.656.776.656h6.448c.429 0 .776-.293.776-.656V4.656c0-.363-.347-.656-.776-.656zm-.033 5.411c-.722.487-1.393.954-2.055 1.577-.236.212-.56.618-.736.87L9.749 13h-1.47l.321-1.143c-.648-.846-1.672-1.748-2.645-2.331-.264-.212-.443-.487-.354-.798.043-.148.222-.248.383-.275.884-.036 1.03.81 1.488 1.245.308.372.777.753 1.128 1.09v-.717c-.619-.946-1.629-1.657-2.559-2.443-.147-.2-.222-.475-.104-.699.061-.1.18-.187.312-.211a.935.935 0 01.78.323c.443.735.92 1.645 1.571 2.316V8.286c-.472-.747-1.07-1.384-1.793-2.019-.193-.223-.311-.598-.104-.858a.505.505 0 01.326-.164c.354 0 .604.188.78.436.264.523.455 1.05.791 1.533.075-.834-.516-1.693-.148-2.516a.836.836 0 01.49-.34c.237-.013.491.123.591.298.444.786-.219 1.736-.133 2.558.014.064-.043-.051 0 0 .354-.474.587-.998.823-1.509.198-.296.455-.508.852-.444a.526.526 0 01.297.235c.28.723-.694 1.134-1.091 1.657-.354.387-.645.697-.881 1.133v1.071c.633-.647 1.115-1.5 1.536-2.249.287-.339.508-.415.848-.339a.414.414 0 01.264.212c.28.834-.93 1.157-1.341 1.744-.487.475-.938.836-1.307 1.346v.716c.662-.586 1.289-1.264 1.747-1.962.236-.236.543-.4.898-.336a.506.506 0 01.293.236.666.666 0 01-.147.686z" fill="#fff"/></svg>