<!-- by TradingView --><svg width="18" height="18" fill="none" xmlns="http://www.w3.org/2000/svg"><path fill="#186CB5" d="M0 0h18v18H0z"/><path d="M11.73 8.012l-1.528.908-1.227-.735.912-.558s1.255-.841 2.56-.137a3.376 3.376 0 01-.716.522zm-4.366-1.85s.868-.584 1.951-.125L7.365 7.22l-.852-.512.851-.546zm5.634.482a1.148 1.148 0 00-.63-.994c-.92-.48-1.96-.122-2.307.025 0 0 .04.143-.008-.603-.05-.745-.74-.966-.74-.966-1.07-.3-1.83.13-1.903.161A170.72 170.72 0 005.204 5.68C5 5.796 5 6.003 5 6.003v1.355L5 7.61c0 .172.083.217.1.228.351.212 3.954 2.367 4.932 2.93.147.084.181.11.248.108.073-.003.12-.045.256-.124.439-.258.507-.284 1.252-.761.744-.478 1.207-.876 1.207-1.238 0-.495.01-1.958.003-2.11z" fill="#fff"/><path d="M5.326 8.582c-.072-.043-.105-.06-.176-.099-.08-.044-.15.023-.15.072 0 .048.002.08.002.166v1.461c0 .087.059.194.131.236l3.484 2.084-.839.507a.305.305 0 00-.131.236v1.657c0 .087.058.123.13.08l2.356-1.417c.073-.044.133-.079.136-.076l.004-.003c0-.002.06-.041.131-.084l2.464-1.483a.308.308 0 00.132-.236V10.06c0-.088-.06-.123-.132-.08l-2.486 1.48a.285.285 0 01-.262-.001" fill="#fff"/></svg>