<!-- by TradingView --><svg width="18" height="18" fill="none" xmlns="http://www.w3.org/2000/svg"><path fill="#005DAA" d="M0 0h18v18H0z"/><circle cx="9" cy="9" r="9" fill="#005DAA"/><path d="M12.636 10H8.814a.992.992 0 01-.727-.326 1.067 1.067 0 01-.285-.767c0-.975.968-.957.968-.957s.606-.075 1.162.934l1.418-1.006S10.52 6.14 8.73 6.14c-1.792 0-2.666 1.827-2.666 2.696 0 1.583 1.264 2.83 2.295 2.83h5.293L12.636 10z" fill="#fff"/><path d="M15 14H8.253C7.006 14 4 12.517 4 8.92 4 6.432 6.06 4 8.748 4a4.858 4.858 0 012.49.764 5.243 5.243 0 011.807 1.968l-1.383.98S10.64 5.774 8.726 5.774c-.794-.001-1.557.33-2.122.922a3.293 3.293 0 00-.895 2.238C5.709 10.851 7.127 12 8.383 12c1.523 0 4.007-.011 5.53 0" fill="#fff"/></svg>