<!-- by TradingView --><svg width="18" height="18" fill="none" xmlns="http://www.w3.org/2000/svg"><path fill="#F0F3FA" d="M0 0h18v18H0z"/><path d="M8.59 13.203c-1.635-.122-2.54-.49-2.788-.636.77 1.043 2.18 1.383 2.788 1.423 1.88.122 3.281-.902 3.749-1.428-.57.249-2.114.763-3.749.64z" fill="#06C3E0"/><path d="M12.342 12.561c-3.225.267-6.007-.17-6.99-.422 0 .123 1.304 1.055 3.576 1.107 1.817.043 3.033-.439 3.414-.685z" fill="#0057B8"/><path d="M12.808 12.025c.63-.594.921-1.706.982-2.118-2.13 1.206-4.9 1.31-6.296 1.074-1.089-.075-2.733-.505-3.181-.77.045.782.677 1.554 1.03 1.925.93.443 2.833.543 3.668.538 2.66.038 3.64-.417 3.797-.649z" fill="#319B43"/><path d="M8.797 10.198c-2.385-.075-4.181-.66-4.761-.958 1.402 1.807 3.364 1.97 4.867 1.97 2.616 0 4.15-.862 4.887-1.303-1.192.108-3.807.3-4.993.291z" fill="#0057B8"/><path d="M6.848 8.114c-1.493-.248-2.294-.923-2.506-1.113-.394.746-.367 1.882-.307 2.24 1.493.84 3.949.998 4.99.972 2.758.062 4.45-.622 4.95-.972.115-.984-.2-1.835-.33-2.094-1.566 1.109-5.156 1.136-6.797.967z" fill="#78BE20"/><path d="M13.645 7.146c-1.332.274-7.428-.167-8.861-.815 0 .643 1.807 1.722 1.807 1.722 3.706.547 6.52-.342 7.054-.907z" fill="#0057B8"/><path d="M11.9 4.677c-3.455.363-4.039.064-5.086-.237.083.555.561.872.79.961 1.76.503 3.572-.346 4.297-.724z" fill="#0256B8"/><path d="M11.9 4.676c-3.441 1.659-5.814 0-5.814 0L4.784 6.335c3.745 1.65 7.22.688 8.49 0L11.9 4.676z" fill="#0085CA"/><path d="M6.814 4.44c.686-.332 2.501-.797 4.279 0-.741.301-2.634.723-4.279 0z" fill="#06C3E0"/></svg>