<!-- by TradingView --><svg width="18" height="18" fill="none" xmlns="http://www.w3.org/2000/svg"><path fill="url(#paint0_linear)" d="M0 0h18v18H0z"/><path fill-rule="evenodd" clip-rule="evenodd" d="M10.686 5.127l-5.85 3.165a1 1 0 00-.404 1.356l1.526 2.821a1 1 0 001.356.404l5.85-3.165a1 1 0 00.404-1.356L12.04 5.531a1 1 0 00-1.355-.404zM4.36 7.413a2 2 0 00-.808 2.71l1.527 2.822a2 2 0 002.71.807l5.85-3.165a2 2 0 00.808-2.71l-1.526-2.822a2 2 0 00-2.71-.807L4.36 7.413z" fill="#E31935"/><defs><linearGradient id="paint0_linear" x1="3.349" y1="3.122" x2="21.904" y2="24.434" gradientUnits="userSpaceOnUse"><stop stop-color="#1A1E21"/><stop offset="1" stop-color="#06060A"/></linearGradient></defs></svg>