<!-- by TradingView --><svg width="18" height="18" fill="none" xmlns="http://www.w3.org/2000/svg"><path fill="#0D93D2" d="M0 0h18v18H0z"/><circle cx="9" cy="9" r="9" fill="#0D93D2"/><path d="M4.855 11.896A4.872 4.872 0 008.874 14a4.925 4.925 0 004.22-2.42c-.724.165-1.903.254-2.37.284a3.303 3.303 0 01-1.85.561c-1.179 0-2.144-.497-2.754-1.48 0 0-1.11.363-1.265.95zM4.657 6.408a2.157 2.157 0 00-.113.227l-.014.033.197.572.97.593.04-.102a3.359 3.359 0 013.136-2.157c.933 0 1.802.38 2.446 1.07l.027.029h.02l1.788-.148A4.934 4.934 0 008.873 4c-1.736 0-3.31.9-4.216 2.408z" fill="#fff"/><path opacity=".9" d="M4.65 6.408a2.096 2.096 0 00-.112.227l-.015.033.197.572.97.593.04-.102a3.383 3.383 0 011.93-1.934l-.646-1.435a4.937 4.937 0 00-2.363 2.046z" fill="#fff"/><path d="M4.398 7.304l-.001.029a1.1 1.1 0 00.3.8S5.352 9.14 8.767 9.3c2.087.098 6.26-.592 6.26-.592l.962-1.557s-5.196.591-7.19.591c-3.102 0-3.688-.955-3.688-.955-.32-.333-.292-.68-.292-.68-.167.237-.413.617-.421 1.197z" fill="#fff"/><path fill-rule="evenodd" clip-rule="evenodd" d="M4.098 7.3c.01-.671.297-1.113.476-1.366l.758-.422c-.51.676-.151 1.224.582 1.479.485.217 1.363.451 2.885.451.98 0 2.763-.146 4.314-.294a180.206 180.206 0 002.615-.27l.168-.019.057-.006.035.298-.378.042c-1.232.135-5.143.55-6.811.55-3.102 0-3.689-.956-3.689-.956a1.1 1.1 0 01-.195-.276c-.11-.225-.096-.404-.096-.404-.072.102-.159.23-.234.39-.1.211-.182.477-.187.807l-.001.029a1.1 1.1 0 00.3.8S5.352 9.14 8.767 9.3c2.087.098 6.259-.592 6.259-.592l.049.296-.012.002-.036.006a36.356 36.356 0 01-.641.099c-.426.063-1.015.147-1.67.228-1.303.16-2.891.311-3.962.26-1.735-.08-2.793-.378-3.428-.67a2.922 2.922 0 01-.666-.406 1.453 1.453 0 01-.193-.196l-.002-.003m-.367-1.017V7.3m10.928 1.408l.962-1.557-.034-.298.614-.07L15.21 8.98l-.134.023-.049-.296z" fill="#0D93D2"/><path fill-rule="evenodd" clip-rule="evenodd" d="M4.398 10.624c-.007-.31.088-.59.311-.8a1.474 1.474 0 011.323-.344l.15.034c.664.149 1.64.368 2.995.368 2.188 0 4.556-.39 5.484-.56.258-.047.405-.077.405-.077l-.995 1.558s-2.6.542-4.969.542c0 0-2.276-.137-3.005-.427-.629-.196-.96.254-.96.254a1.098 1.098 0 00-.206.283c-.11.22-.096.396-.096.396-.073-.1-.16-.225-.237-.379a1.868 1.868 0 01-.199-.819l-.001-.029zm1.974.666c.909.232 1.994.302 2.682.353l.02.001h.008l.01.001h.01c1.205 0 2.463-.137 3.416-.274a32.496 32.496 0 001.583-.268l.023-.005.006-.001h.002l.124-.027 1.445-2.262-.695.143h-.002l-.006.002-.026.005a18.401 18.401 0 01-.486.09 38.4 38.4 0 01-1.358.218c-1.116.158-2.573.316-3.951.316-1.322 0-2.189-.195-2.93-.361l-.15-.034m.275 2.103a.812.812 0 00-.825-.055c-.712.356-.464 1.041-.079 1.39l-.875-.597c-.185-.253-.484-.697-.494-1.37v-.015l-.001-.012c-.008-.378.108-.746.406-1.026.205-.193.78-.598 1.593-.418" fill="#0D93D2"/><path d="M9.175 9.87c-1.462 0-2.481-.255-3.145-.402a1.474 1.474 0 00-1.322.344c-.224.21-.318.49-.311.8v.03c.01.579.264.96.437 1.197 0 0-.03-.346.302-.679 0 0 .41-.418.952-.26.79.295 3.013.434 3.013.434 2.369 0 4.97-.543 4.97-.543l.994-1.558s-3.092.637-5.89.637z" fill="#fff"/></svg>