<!-- by TradingView --><svg width="18" height="18" fill="none" xmlns="http://www.w3.org/2000/svg"><path fill="#F0F3FA" d="M0 0h18v18H0z"/><path d="M9.046 3.005c-1.28.07-3.278 3.779-3.927 5.296l.026-.012c1.113-.512 2.549-1.172 2.953-1.153.048-.224.32-.747.948-.747.628 0 1.062.523 1.198.747 1.302.21 1.704-.34 1.752-.652-.455-1.157-1.671-3.549-2.95-3.479z" fill="#62CCF5"/><path d="M5.045 8.428c.357-1.198 2.18-1.445 3.046-1.42.279-.532.985-1.006 2.017-.17.479.075 1.656.385 1.892-.365-.416 2.334-1.977 2.884-2.72 2.954-3.012.126-4.078-.613-4.235-.999z" fill="url(#paint0_linear)"/><path d="M5.529 14c-2.377-.164-1.462-3.344-.703-4.374 2.676 1.174 3.636 2.508 3.664 3.028V14H5.529z" fill="url(#paint1_linear)"/><path d="M13.985 12.61c.172-1.369-1.165-3.644-1.855-4.61l-2.553 5.963c1.397.12 4.236.017 4.408-1.353z" fill="url(#paint2_linear)"/><ellipse cx="9" cy="7.005" rx="1.224" ry="1.296" fill="#fff"/><defs><linearGradient id="paint0_linear" x1="8.537" y1="6.299" x2="8.537" y2="9.442" gradientUnits="userSpaceOnUse"><stop stop-color="#61C5EC"/><stop offset="1" stop-color="#0967B2"/></linearGradient><linearGradient id="paint1_linear" x1="6.668" y1="10.545" x2="4.407" y2="13.326" gradientUnits="userSpaceOnUse"><stop stop-color="#62CCF5"/><stop offset="1" stop-color="#005DAB"/></linearGradient><linearGradient id="paint2_linear" x1="11.062" y1="10.612" x2="13.554" y2="13.341" gradientUnits="userSpaceOnUse"><stop stop-color="#62CCF5"/><stop offset="1" stop-color="#0665B0"/></linearGradient></defs></svg>