<!-- by TradingView --><svg width="18" height="18" fill="none" xmlns="http://www.w3.org/2000/svg"><path fill="#F0F3FA" d="M0 0h18v18H0z"/><path fill-rule="evenodd" clip-rule="evenodd" d="M12.097 5.074a5 5 0 00-7.265 6.688c.336-.33.672-.657 1.016-.992.594-.58 1.214-1.183 1.912-1.869l-.762-2.729h1.799l.378 1.73 2.922-2.828z" fill="#000"/><path fill-rule="evenodd" clip-rule="evenodd" d="M9 14a5 5 0 004.139-7.807l-3.046 2.811.777 2.841s-1.852.018-1.856 0l-.368-1.858c-.012-.009-1.459 1.457-2.84 2.86A4.98 4.98 0 009 14z" fill="#BE3A34"/></svg>