<!-- by TradingView --><svg width="18" height="18" fill="none" xmlns="http://www.w3.org/2000/svg"><path fill="url(#paint0_linear)" d="M0 0h18v18H0z"/><path d="M5.518 4.284c-.57.328-1.202 1.104-1.384 1.701C4.06 6.225 4 7.523 4 8.971c0 2.941.11 3.434.923 4.255.692.701 1.288.82 4.846.76H13V11H7.318C7.145 11 7 10.789 7 10.64V7.353C7 7.12 7.172 7 7.318 7h4.396L13 4H9.453c-3.097 0-3.498.03-3.935.284z" fill="#fff"/><defs><linearGradient id="paint0_linear" x1="3.349" y1="3.122" x2="21.904" y2="24.434" gradientUnits="userSpaceOnUse"><stop stop-color="#1A1E21"/><stop offset="1" stop-color="#06060A"/></linearGradient></defs></svg>