<!-- by TradingView --><svg width="18" height="18" fill="none" xmlns="http://www.w3.org/2000/svg"><path fill="url(#paint0_linear)" d="M0 0h18v18H0z"/><circle cx="9" cy="9" r="9" fill="url(#paint1_linear)"/><path d="M11.948 10.206h.07l.047-.025H12.136l.023-.026h.047l.024-.025h.023l.047-.025h.024l.046-.026h.118l.047-.025H12.77l.023.025H12.864l.047.026h.094l.023.025.047.025h.024l.046.026H13.216l.023.025H13.615l.024-.025h.047l.023-.026H13.78l.046-.025.024-.025H13.921v-.026h-.024l-.024-.025-.046-.025h-.024l-.023-.025-.047-.026h-.024l-.047-.025h-.023l-.024-.025h-.047l-.023-.026H13.474l-.047-.025h-.023l-.047-.025H13.216l-.023-.025H12.723l-.024.025h-.047l-.023.025H12.558l-.047.025h-.023l-.024.026h-.046l-.024.025-.047.025H12.3l-.047.026-.023.025h-.047l-.024.025-.023.025h-.047l-.024.026-.023.025-.047.025h-.024l-.047.026-.023.025h.047z" fill="#94D8E9"/><path d="M10.984 10.913H11.195l.024.026h.094l.047.025h.023l.047.025h.024l.023.025h.047l.024.026h.07l.047.025H11.947l.047-.025h.07l.047-.025h.024l.047-.026h.023l.024-.025h.07l.047-.025h.047l.047-.026H12.769l.023.026h.094l.024.025h.07l.024.025h.046l.024.025h.047l.024.026h.117l.023.025h.259l.047-.025h.023l.047-.025H13.732l.023-.026h.047l.024-.025h.046l.024-.025h.07l.024-.026H14.366l.047.026h.094l.023.025h.047l.023.025h.047l.024.025h.023l.047.026h.047l-.023-.05-.024-.026-.023-.025v-.05l-.024-.026-.023-.025-.024-.051v-.025l-.047-.026v-.025l-.023-.025-.024-.05-.023-.026-.023-.025-.024-.025-.024-.026-.023-.025-.023-.025-.024-.025-.047-.026-.023-.025-.024-.025-.023-.026-.024-.025-.023-.025-.047.025H14.037l-.024.025h-.07l-.047.026h-.024l-.046.025h-.048l-.046.025h-.047l-.024.026H13.473l-.047.025-.023-.025h-.212l-.046-.026h-.048l-.046-.025h-.024l-.023-.025h-.047l-.047-.026H12.839l-.023-.025H12.745l-.047-.025h-.023l-.047.025h-.024l-.047-.025-.047.025h-.094l-.046.025h-.024l-.047.026h-.023l-.047.025h-.024l-.023.025H12.11l-.047.026H11.9l-.024.025-.047-.025H11.618l-.047-.026h-.023l-.024.026-.047.025-.023.025h-.024l-.023.025-.047.026-.024.025-.023.025-.024.025-.047.026-.023.025h-.024l-.023.025-.024.025-.047.026-.023.025-.024.025-.023.026-.047.025-.024.025h-.023v.025h.047z" fill="#007EC5"/><path d="M15 11.924V11.722l-.023-.025v-.05l-.024-.026.024-.05-.024-.026v-.05l-.023-.026v-.076l-.024-.025-.023-.05H14.812v-.026H14.695l-.047-.025h-.023l-.024-.025h-.047l-.023-.025h-.047l-.024-.026h-.07l-.047-.025h-.258l-.024.025H13.944l-.024.026h-.047l-.023.025-.047.025h-.047l-.047.025h-.094l-.047.026H13.192l-.023-.026H13.098l-.023-.025h-.047l-.024-.025h-.023l-.047-.025H12.863l-.047-.026h-.023l-.047-.025h-.258l-.024.025h-.117l-.024.026-.047.025h-.047l-.047.025h-.07l-.024.025h-.047l-.023.026-.024-.026-.046.026H11.665l-.024-.026-.047.026-.023-.026H11.5l-.023-.025h-.047l-.024-.025h-.023l-.047-.025h-.024l-.047-.026h-.094v-.025h-.305l-.023.025h-.094l-.024.026h-.047l-.023.025-.024.025h-.047l-.023.025h-.047l-.024.026-.023.025-.047.025h-.023l-.024.025-.023.026-.024.025-.047.025-.023.026-.024.025-.023.025-.024.05-.023.026h-.024l-.023.05h-.047v.051l-.047.025h-.024l-.023.05-.024.026h-.023l-.024.025-.023.05-.024.026h.047l.024.025h.047l.023.026h.188l.024.025h.047l.023-.025H10.468l.047-.026.023-.025H10.61l.023-.025h.047l.024-.025h.047l.023-.026H11.055l.024-.025.046.025h.095l.023.026h.117l.024.025.023.025H11.478l.047.025h.023l.047.026H11.666l.047.025.023-.025h.047l.024.025h.046l.024-.025h.164l.024-.026h.047l.023-.025h.024l.047-.025h.07l.024-.025h.07l.024-.026h.117l.024-.025.046.025.024-.025h.047l.023.025h.165l.047.026h.023l.047.025h.024l.023.025H13.075l.047.025.023.026.047-.026.024.026h.117l.047.025.023-.025h.212l.047-.026h.047l.023-.025H13.803l.023-.025.047-.025h.047l.047-.026H14.437l.047.026h.07l.024.025h.023l.047.025.024.025h.07l.047.026h.094l.047.025.023-.025H15V11.924z" fill="#43C5E4"/><path d="M7.58 6.744v.025l.023.025.023.05h.024l.023.026.024.025.023.026.024.025.023.05.047.026.047.05.047.05.023.026.047.05.047.051.047.05.024.026.047.05v.026l.047.025.023.025.047.05v.026h.024l.023.025.024.026.023.05h.024l.047.05v.026l.023.025.047.026.047.05.023.025v.026l.047.025.047.05.024.026.023.025.024.025.023.026.047.025.024.05h.023l.024-.025V7.022l-.047-.05v-.026L8.8 6.92l-.023-.026-.047-.025-.024-.025-.023-.05-.047-.026-.024-.025-.023-.05h-.024l-.023-.026-.024-.05-.023-.026-.023-.025-.047-.025-.024-.026-.023-.05-.047-.026-.024-.025-.023-.05H8.26v-.026l-.047-.025-.023-.05-.024-.026-.047-.025-.023-.025-.024-.026-.023-.025v-.025h-.094l-.024.025v.05l-.047.026-.023.05-.024.026v.025h-.023v.025l-.024.026-.023.05-.047.025-.023.051-.024.05-.047.051v.025h-.023v.05l-.047.026.023.025-.023.026h.023z" fill="#007933"/><path d="M8.19 5.884l.047.026v.025l.047.025v.026h.023l.024.025.023.025.024.05.047.026.023.025.024.025.023.026.024.025.023.025.024.05.023.026.047.025.024.026v.025l.023.025.024.025h.023l.024.051.023.025.024.026h.023l.023.025.024-.05V5.05L8.847 5l-.023.025-.023.026h-.024v.025l-.023.025-.024.025-.023.026-.024.025v.025l-.047.025-.023.026v.025l-.024.025-.047.05-.047.051-.023.026v.025l-.024.025-.023.025-.047.051-.024.05-.047.051-.023.05-.047.026v.025l-.047.05v.076z" fill="#A5CF4F"/><path d="M9.152 6.314v.228H9.2l.024-.051.047-.025V6.44h.023v-.025l.024-.025.047-.025.047-.05.023-.051h.024l.023-.051.047-.025.024-.026v-.025l.047-.025v-.025h.023l.024-.05.047-.026.046-.05v-.026h.024l.023-.025.024-.05.023-.026-.023-.025-.024-.05-.023-.026-.024-.05-.046-.026-.024-.05-.023-.026-.024-.05-.023-.026-.047-.05-.024-.025v-.026h-.023l-.024-.05-.047-.05-.047-.051-.023-.05-.047-.051-.047-.026-.024-.05V5.05h-.023l-.024-.026L9.152 5l-.023.05.023.026-.023.025.023.025-.023.05.023.026V5.253l-.023.025.023.05v.102H9.13h.023l-.023.05.023.05v.076l-.023.076v.05l.023.077v.025l-.023.025v.329l.023.025-.023.05.023.051z" fill="#62BB46"/><path d="M8.871 10.408v-.126l-.023-.026v-.025l-.024-.025-.023-.025-.024-.026-.023-.05h-.047v-.026l-.024-.025-.023-.025-.024-.025-.023-.026-.024-.025-.023-.025-.047-.05-.047-.051-.024-.025-.023-.026-.024-.025-.023-.05h-.023l-.024-.026-.023-.025-.024-.025-.023-.026-.047-.05-.024-.025-.023-.026-.024-.025v-.025H8.12l-.024-.026-.023-.05h-.024l-.023-.025-.024-.05H7.98l-.024-.026-.023-.025-.024-.026-.047-.05-.023-.026-.024-.025-.023-.025-.024-.025-.023-.05-.047-.026-.024-.025-.023-.026-.047-.025v-.025l-.023-.025-.024-.026-.023-.025-.024-.025-.023-.026-.024-.05-.047-.025-.023-.026-.047-.025-.024-.05-.023-.026-.024-.025-.023-.05h-.024l-.023-.026-.024-.025-.023-.025-.024-.026-.047-.05-.023-.025-.024-.026-.023-.025-.024-.025H6.97l-.024-.05h-.023l-.047.024v.177l-.023.026v.075l.023.051V8.74l.024.025v.127h.023v.05l.024.05v.077l.023.05.023.025v.076l.024.026v.025l.023.05.024.05.023.051.024.051.023.025v.026l.024.05.023.05.024.051.047.05v.026l.023.025.024.05.023.026h.024l.023.05.024.051.047.05h.023v.026h.024l.023.025v.025l.047.026.024.025.023.05h.024l.046.051h.024l.023.025.024.026.023.025.047.025.024.025.047.026.047.025.023.025.024.026h.023l.024.025h.047l.023.025h.024l.023.025.047.026h.047l.024.025h.047l.023.025.047.026h.023l.024.025h.047l.07.025H8.613l.023.025.024-.025.023.025.024-.025.047.025h.094v-.025l.023-.05V10.408zM9.152 7.88v.076l-.023.026.023.05-.023.05h.023l.024.026h.023l.024-.05.047-.026v-.025l.047-.025.047-.05.047-.051.023-.026.047-.05.024-.025.023-.026.024-.025.023-.025.024-.025.023-.026.024-.025.047-.05.023-.026.023-.025v-.025l.047-.026.024-.025.023-.025.047-.05.024-.026h.023v-.025l.047-.025v-.026l.024-.025.023-.025.024-.026.023-.025h.024v-.05h.023l.024-.026.023-.05.047-.025.024-.026v-.025l.047-.025V6.92h.023l.024-.025.046-.05.048-.05.023-.026V6.694l-.024-.026v-.026l-.023-.05-.047-.05-.023-.026-.024-.05-.023-.026-.024-.05-.023-.025h-.024l-.023-.076h-.024l-.023-.026-.024-.05-.023-.05-.024-.026-.023-.025-.024-.025h-.047l-.047.05-.023.05H9.88v.026l-.023.025-.047.025-.024.026-.023.05-.024.026-.046.025v.025h-.024l-.023.025v.026l-.047.025-.024.025-.023.025v.026h-.024l-.023.05-.047.026v.025l-.024.025-.047.025-.023.026v.025H9.34v.025l-.023.025-.024.026-.023.025h-.024v.025h-.023v.025l-.047.026v.025l-.024.025v.126l-.023.076.023.026-.023.025.023.025-.023.026.023.05v.05l-.023.026.023.05-.023.051V7.602l.023.051-.023.05V7.755l.023.051-.023.025.023.05z" fill="#A5CF4F"/><path d="M11.149 8.538V8.26l-.024-.05-.024-.026h-.046l-.024.025-.047.051-.023.025-.024.026-.023.025v.025l-.047.025-.024.05-.023.026h-.024l-.023.025-.024.026v.025l-.047.025-.023.026-.024.025-.023.025-.024.05-.023.026h-.024l-.047.05v.026l-.023.025-.047.025-.024.026v.025l-.046.025-.024.05-.047.026v.025l-.047.025-.023.026v.025l-.024.025-.047.025-.023.026-.047.05v.026l-.024.025-.047.025-.023.025-.024.05-.023.026-.047.025-.024.051h-.023v.025l-.047.026-.024.025v.025l-.023.025-.047.026v.025h-.023l-.024.025-.023.025v.026h-.024l-.023.05-.047.026-.024.025-.023.025v.025l-.047.026-.024.025v.025h-.023l-.024.025v.026l-.047.025-.047.05v.026H9.27l-.024.025-.023.025-.047.05v.026h-.024v.05l-.023.051.023.025v.026l-.023.05v.05l.023.051V10.585l-.023.05.023.026v.025l.024.025h.094l.047-.025h.141l.023-.025h.047l.024-.025h.094l.023-.026h.024l.023-.025h.023l.047-.025h.047l.047-.026.024-.025h.023l.024-.025.047-.025h.023l.047-.051h.024l.047-.025.023-.025h.024l.023-.026.047-.025.024-.025.023-.026.047-.025.024-.025.023-.025.047-.051.023-.025.047-.026v-.025h.024l.023-.025.024-.05.023-.026.024-.025v-.025h.023l.024-.026v-.025l.023-.025.024-.05.023-.026.024-.025.023-.026.024-.025v-.05l.023-.026.024-.05.023-.025.024-.051.023-.025v-.05l.024-.026.023-.025V9.32l.024-.05v-.025l.023-.051V9.17h.024V9.094l.023-.05v-.051l.024-.05V8.866l.023-.026V8.69l.024-.026v-.126z" fill="#62BB46"/><path d="M9.152 9.751v.05l.047-.025.024-.025h.023v-.025l.047-.026.024-.025.023-.05.024-.026.023-.025.047-.025.024-.025v-.026l.047-.025.023-.025.024-.05.023-.026H9.6l.023-.025.024-.05h.023V9.27h.024l.023-.05.047-.026.023-.05.024-.026.023-.025.024-.025.047-.026.023-.025.024-.025v-.025l.047-.026.023-.025v-.025l.047-.05.024-.026.047-.05h.023l.024-.051.023-.025.024-.026h.023V8.64l.024-.025.023-.025.024-.026.023-.025h.024l.023-.025.024-.05h.023l.023-.051.047-.05.024-.026h.023l.024-.05.047-.026.023-.025v-.026l.047-.025V8.16h.024l.023-.025.024-.05h.023l.024-.026.023-.05h.024l.023-.026.024-.05h.023l.024-.026.023-.025.024-.05V7.73l-.024-.051h-.023v-.026l-.024-.025v-.05l-.023-.026v-.025l-.024-.025-.023-.025v-.05l-.024-.051-.023-.026-.024-.05-.023-.026-.024-.05v-.025l-.023-.026v-.025l-.024-.025-.023-.05-.024-.026-.047-.05-.047.025v.025h-.023v.025l-.024.026-.023.025h-.024v.025l-.046.05-.024.026-.024.025-.023.025-.047.026v.025l-.023.025-.047.05-.024.026-.023.025h-.024l-.023.05h-.024l-.023.051-.024.026h-.023v.05h-.024l-.023.026-.024.025-.023.025v.025h-.024l-.023.026-.024.025h-.023v.025h-.024l-.023.025-.024.026v.025l-.047.025v.025l-.023.026-.047.025-.023.05h-.024v.026l-.023.025-.024.05-.047.026-.023.025v.025H9.48l-.047.026-.023.025-.024.05h-.023l-.024.051-.047.025v.026H9.27l-.024.05-.023.025-.024.051h-.023l-.024.025v.026l-.023.05.023.025-.023.026.023.075v.026l-.023.025.023.025-.023.025.023.026-.023.025v.076l.023.05v.026l-.023.05.023.05v.077l-.023.025v.076l.023.025v.025l-.023.05v.203l.023.05-.023.026.023.025z" fill="#007933"/><path d="M8.87 9.6V8.588l-.023-.026-.023-.05-.024-.026-.023-.025-.024-.05-.047-.026-.023-.025-.023-.025-.024-.026-.023-.025-.024-.025-.023-.025-.024-.026-.023-.025-.047-.025-.024-.05-.023-.026-.024-.025-.023-.026-.024-.025-.023-.025-.024-.025-.023-.026-.024-.025-.023-.025-.047-.05-.024-.026-.023-.025v-.026h-.024l-.047-.05-.023-.025-.047-.05h-.024l-.023-.051-.023-.026h-.024l-.023-.05-.024-.026-.023-.025-.024-.025-.023-.05-.047-.026-.024-.025-.023-.025-.024-.026-.023-.025-.024-.025-.023-.026-.024-.025-.023-.025-.024-.025-.023-.026-.047-.05-.024-.025h-.047l-.023.025-.024.025-.023.05v.026l-.047.025-.023.05-.024.051V7.3h-.023v.05l-.024.025-.023.05v.026l-.024.025-.023.026v.05l-.024.026-.023.05-.024.05v.026l-.023.05-.024.051.024.05.023.026.024.025.023.025.024.026.023.025.024.025.023.025.024.026.023.05.047.026.047.05.023.05.047.026.024.025.023.05.047.026.024.025.047.026v.05h.023l.024.025.023.026.024.025h.023v.05l.047.026.024.025.023.025.047.025v.026l.024.025.047.05.023.026.047.05.024.026v.025h.023l.023.05h.024l.023.026.024.025.023.025.024.026.023.025.024.025.023.025.024.026.023.025.024.025.023.025.024.026.023.025v.025l.047.026.047.05h.024v.025l.023.026.024.025.047.05.023.026v.025h.024l.023.025.047.025v.026l.023.025.024.025.023.026.024.025.023.025.024.025h.023l.024-.025V9.6z" fill="#62BB46"/><path d="M5.466 11.495v-.026h.023v-.025l.047-.025v-.025l.024-.026h.023v-.025l.047-.025v-.025h.024l.023-.051h.024v-.025h.023l.047-.05.024-.026.047-.05.023-.026v-.025l.024-.025h.023l.024-.051.047-.025.047-.05.023-.051.047-.026.024-.025.023-.025.024-.026.023-.05.023-.025.024-.026.047-.025v-.025l.023-.025.024-.026.047-.025.023-.025.024-.025.023-.051-.023-.05-.047-.026-.047-.025H6.31l-.023-.025-.047-.026v-.025h-.047l-.023-.025-.024-.025-.047-.026h-.023l-.024-.025h-.047v-.025l-.047-.026-.047-.025H5.89l-.024-.025h-.047l-.023-.025-.047-.026h-.094v.026l-.024.025-.047.025v.025l-.047.026-.023.025-.024.05-.023.026h-.023v.025l-.047.025-.024.05-.047.052h-.023l-.024.025-.023.05-.024.026-.023.025-.024.025-.047.05-.023.026-.024.025-.023.025-.047.051-.024.025-.047.05-.023.026h-.024l-.023.05-.024.026h-.023l-.024.05-.023.026-.023.025-.024.025h-.023l-.024.05-.023.026-.024.025-.023.026-.047.05-.024.025-.023.026-.024.025-.047.05-.023.026h-.024v.025l-.023.025-.024.026-.023.025-.024.025h-.023l-.024.025-.023.05-.024.026h-.023l-.024.05-.023.026-.024.025-.023.025H4.08v.026l-.046.025v.025l-.024.026-.023.025h-.024l-.023.05h-.024l-.023.026v.025l-.024.025v.05l.024.026H4.292l.047-.025h.07l.047.025h.306l.046-.025.047.025H4.926l.047-.025h.047l.023-.025v-.026l.047-.025.024-.025.023-.026v-.025h.024v-.025l.023-.025.024-.026h.023l.047-.05.024-.025.023-.051.024-.025.023-.026.047-.025.047-.05z" fill="#E82C2A"/><path d="M6.922 11.495l.023-.051.047-.025v-.026h.024l.023-.025v-.025l.047-.05.047-.051.024-.026.047-.05.023-.025.024-.026.023-.025.024-.05-.024-.026-.023-.025-.047-.05H7.18l-.047-.026-.023-.05-.024-.026-.047-.025-.023-.025h-.024l-.023-.025-.024-.026-.023-.025-.047-.025-.047-.025v-.026h-.024l-.023-.025-.047-.025h-.07v.025H6.64l-.023.025-.024.05H6.57l-.024.026-.023.05-.024.026-.023.025-.047.025-.024.051-.047.025-.023.025-.024.026v.025l-.047.025-.023.05-.024.026-.023.025-.047.026-.024.05-.023.025-.024.026-.046.025v.025l-.047.026-.024.05h-.023l-.024.05-.047.026-.023.05h-.024v.026l-.023.025-.047.025-.047.05-.024.051-.023.026-.024.025-.023.025-.024.025-.023.026h-.024v.025h-.023v.025l-.024.025-.023.026-.047.025v.05l.023.026.024-.025.047.025h.399l.024-.025.023.025H6.123l.047-.025.024.025h.188l.023-.025h.024l.047-.026h.023l.024-.05.023-.025.047-.026v-.025h.024l.023-.05.024-.026.047-.025v-.025l.023-.026.047-.025.023-.05.024-.026.023-.025.047-.025.024-.025z" fill="#C3271B"/><path d="M8.308 11.924h-.024l-.023-.025-.047-.05-.047-.051-.023-.025-.024-.026-.047-.025-.047-.05-.047-.051-.047-.025v-.026l-.023-.025h-.024l-.047-.05-.047-.026-.023-.025v-.025h-.024l-.023-.05h-.024l-.047-.026-.047-.05-.023-.026-.023-.025h-.024l-.023.025-.047.025-.024.026-.023.025-.024.025-.023.025-.024.026-.023.025-.047.05-.024.026-.023.025-.024.025-.023.026-.024.025-.023.025v.025l-.047.026-.024.025-.023.025-.047.05v.026h-.024l-.023.025-.047.05v.026h-.024v.05H6.9l.07.026H7.65l.047-.025.047.025h.047l.047-.025.047.025h.4l.023-.025v-.05z" fill="#E82C2A"/><path d="M3.869 11.495l.047-.026.023-.025.024-.025.023-.026.024-.025.023-.025.024-.025.023-.026.024-.025.023-.025.047-.05.024-.026v-.025l.047-.025.023-.026.024-.025v-.025h.023l.024-.026v-.025h.023v-.025l.047-.025v-.026h.024l.023-.05.023-.025.024-.026.023-.025h.024v-.025h.023l.024-.026.023-.025.024-.025.023-.025.024-.026.023-.025.024-.05.047-.026.023-.025.024-.025.023-.026.047-.05.024-.025v-.026h.023l.024-.025.047-.05.023-.026.047-.05.024-.025.023-.051h.023l.024-.05h.023l.024-.026.047-.05.023-.026v-.025l.024-.025.023-.026.024-.025-.047-.025-.024-.025-.047.025-.047-.025H4.926l-.024.025H4.761l-.047.025h-.047l-.07.025H4.55l-.024.026H4.48l-.023.025h-.047l-.047.025-.023.026h-.047l-.047.025-.024.025h-.023l-.047.025-.047.026-.024.025-.047.025H4.01l-.047.05-.024.026h-.023v.025l-.047.025-.024.026h-.023l-.024.025-.023.025-.024.026h-.023l-.023.025-.024.025-.047.05-.023.051h-.024l-.023.025-.024.051-.023.025-.024.026-.047.025v.05l-.023.026-.024.025-.023.05-.047.051v.025l-.024.026-.023.05-.024.05-.023.051-.024.026-.023.025v.05l-.024.05v.026h-.023v.025l-.024.05V11.394l-.023.076-.024.05-.023.051v.076l-.024.05v.152l-.023.05v.026l.023.025v.026h.024L3.07 12l.047-.025h.024l.047.025H3.329v-.025l.023.025.047-.025h.047l.024-.026.023-.025.024-.025.023-.025.024-.026.023-.025.024-.025.023-.025.024-.026v-.025l.047-.025.046-.05.024-.026.023-.025.024-.026v-.025h.023l.024-.05z" fill="#EA5329"/><defs><linearGradient id="paint0_linear" x1="3.349" y1="3.122" x2="21.904" y2="24.434" gradientUnits="userSpaceOnUse"><stop stop-color="#1A1E21"/><stop offset="1" stop-color="#06060A"/></linearGradient><linearGradient id="paint1_linear" x1="3.349" y1="3.122" x2="21.904" y2="24.434" gradientUnits="userSpaceOnUse"><stop stop-color="#1A1E21"/><stop offset="1" stop-color="#06060A"/></linearGradient></defs></svg>