<!-- by TradingView --><svg width="18" height="18" fill="none" xmlns="http://www.w3.org/2000/svg"><path fill="#071E61" d="M0 0h18v18H0z"/><path d="M5.553 9.702a.532.532 0 00.078.52c.45.657 2.208 1.118 4.358 1.157 1.378.069 2.736-.069 3.83-.402a5.5 5.5 0 001.036-.452c.02-.01.068-.049.049-.078-.01-.02-.04-.01-.059 0l-.03.01c-.82.402-2.178.588-3.732.53-.44-.02-.86-.06-1.25-.118-.176-.03-.352-.06-.499-.088-.987-.207-1.651-.55-1.827-.932a.46.46 0 01.01-.422c.332-.628 1.749-1.138 3.39-1.226.333-.03.684-.04 1.065-.03.03 0 .03-.01.03-.02 0-.009-.01-.009-.02-.019l-.43-.02c-2.814-.078-5.677.677-6 1.59z" fill="#fff"/><path d="M8.816 7.004c-3.87.079-6.664 1.01-6.81 2.256-.098.844 1.104 1.658 3.293 2.217.508.127 1.133.294 2.335.353.068 0 .078-.03.078-.049 0-.02-.03-.04-.088-.049-.89-.137-1.28-.265-1.28-.265-1.436-.402-2.218-1.01-2.15-1.677.108-.942 2.013-1.982 5.453-2.129 3.234-.147 5.433.628 5.931 1.462a.79.79 0 01.078.677c-.166.48-.762.941-1.641 1.275-.626.235-1.681.47-2.697.598-.04.01-.059.02-.069.03v.02c0 .019.02.029.059.029 1.026-.099 2.208-.354 2.863-.609.948-.363 1.573-.863 1.769-1.392a.91.91 0 00-.069-.795c-.557-.99-3.224-2.03-7.055-1.952z" fill="#fff"/></svg>