<!-- by TradingView --><svg width="18" height="18" fill="none" xmlns="http://www.w3.org/2000/svg"><path fill="#F0F3FA" d="M0 0h18v18H0z"/><path d="M12.87 4.27L12 7c-4.799-.023-4.53 5.933-.63 6.208.28.02.419-.017.044.013-1.416-.008-2.47-.471-3.22-1.153-1.17-1.061-1.719-2.76-1.492-4.287.2-1.344.994-2.546 2.34-3.263 1.062-.567 2.362-.696 3.829-.248z" fill="#7FCC45"/><path d="M5.706 5.627l1.404.846c-.204.41-.34.85-.408 1.307-.227 1.527.323 3.226 1.49 4.287.749.68 1.796 1.142 3.203 1.154.257.002.45-.038.705-.088l.412-.081a5 5 0 01-1.945.37c-1.614-.018-3.167-.814-4.165-2.033A5.332 5.332 0 015.214 8.57c-.103-.99.085-1.974.492-2.943" fill="#009CD9"/><path fill-rule="evenodd" clip-rule="evenodd" d="M5.898 10.66L5 11.175c1.218 2.151 4.635 3.868 8 2.08l-.168-.327-.545.17.225-.045a5 5 0 01-1.945.37c-1.614-.018-3.167-.814-4.165-2.033a5.477 5.477 0 01-.504-.728" fill="#0578B5"/></svg>