<!-- by TradingView --><svg width="18" height="18" fill="none" xmlns="http://www.w3.org/2000/svg"><path fill="#00548B" d="M0 0h18v18H0z"/><path d="M4.003 6.006L9 3l4.999 2.96v5.921a.082.082 0 01-.008.046.078.078 0 01-.033.033c-1.658 1.009-3.315 2.019-4.971 3.029L8.968 15l-.034-.02c-1.616-.99-3.232-1.982-4.847-2.974-.028-.017-.064-.03-.078-.055a.224.224 0 01-.006-.099V6.006zm4.98 2.57c-.429-.24-.842-.514-1.26-.77-.058-.034-.427-.204-.414-.273.076-.025.142-.135.217-.183-.006-.013.079-.424.079-.424l.116-.11c.006-.005-.64-.182-.69-.2-.272-.095-.145-.3.002-.437.073-.067.173-.123.237-.195.02-.02.039-.045.057-.067.13-.152-.393-.162-.467-.119-.377.253-.642.563-.879.944l-.115-.071a3.85 3.85 0 011.28-1.15 3.71 3.71 0 011.635-.462c.011-.047.01-1.448-.002-1.486L4.615 6.08l.048.031 1.143.69 3.12 1.885a.071.071 0 00.083 0c1.46-.859 2.922-1.712 4.384-2.567.015-.009.03-.02.052-.032L9.162 3.582v1.481a3.713 3.713 0 012.12.832c.285.231.73.726.778.867a.973.973 0 01-.075.042 3.7 3.7 0 00-2.076-1.52c.088.055-.788-.237-.407.104.136.125.217.554.45.532.158-.137.305.843-.013.876-.15-.005.018.284.045.362.128.01.17-.02.28-.03.14-.031.035-.326.2-.405.34-.164 1.678.047.738.546-.1.074-.252-.048-.348-.085.009-.062-.854.794-1.068.92-.268.156-.533.313-.803.472zm4.636-2.19l-.046.025-1.266.775c-1.025.627-2.041 1.26-3.075 1.88-.03.013-.03.052-.033.085v5.172c0 .018 0 .035.002.06l4.232-2.551-1.257-.782a3.875 3.875 0 01-1.215 1.27 3.677 3.677 0 01-1.63.583c-.03-.09-.006-.22-.006-.314l-.003-.966-.002-1.195c.263-.136.596-1.238-.001-1.003v-.28l.81-.493c.059.087.194.143.291.179.216.08 1.018-.447.835.144l.11.12c.2.22.076.375.042.607-.265 1.272.433.266.867-.108.192-.18.02-.659.119-.903.091-.27.016-.986-.167-1.24-.029-.05.08-.125.138-.16a4.06 4.06 0 01-.017 3.44l.02.017 1.26.793h.005a.051.051 0 00.007-.003l-.02-5.153zm-9.239.067l-.012 5.015.002.014.004.004.006.002 1.175-.698a4.052 4.052 0 01-.042-3.512l.257.154c-.141.312-.038.49-.055.778-.01.45.37.736.752.742.138.002.45.166.533.282.139.174.225-.162.328.069.043.095-.043.301-.084.401-.18.32.578.59.716.74.05.055.06.138.07.213.036.238.12.445.12.69-.024.147.242.806.473.78v.783a3.493 3.493 0 01-.811-.16 3.832 3.832 0 01-2.083-1.642c-.386.24-.769.475-1.152.712l-.019.013v.012l4.181 2.525.002-.065V9.16c0-.055-.008-.072-.058-.102L4.427 6.48l-.047-.026zm4.117 2.624c-.322-.024-.723-.193-1.012-.063C7.419 9.043 7 9.234 7 9c.032-.359-.632-.184-.68-.333-.062-.202.082-.281.093-.419.017-.153.583-.06.673-.02.472.28.94.566 1.41.85z" fill="#fff"/></svg>