<!-- by TradingView --><svg width="18" height="18" fill="none" xmlns="http://www.w3.org/2000/svg"><g clip-path="url(#clip0)"><path fill="#F0F3FA" d="M0 0h18v18H0z"/><path d="M9 4a5 5 0 105 5.017v-.034A5 5 0 009 4z" fill="url(#paint0_radial)"/><path d="M9.368 4.68a4.335 4.335 0 10-.736 8.64 4.335 4.335 0 00.736-8.64z" fill="#fff"/><path d="M5.029 8.999a3.973 3.973 0 003.973 3.973c2.228 0 3.972-1.711 3.972-3.973a3.973 3.973 0 10-7.945 0z" fill="url(#paint1_radial)"/><g opacity=".28" filter="url(#filter0_f)"><path d="M6.722 6.957c.173.761 1.095 1.201 2.059.982.964-.22 1.605-1.014 1.431-1.776-.173-.762-1.094-1.201-2.059-.982-.963.22-1.604 1.014-1.431 1.776z" fill="url(#paint2_linear)"/></g><path opacity=".44" d="M7.62 12.59a4.057 4.057 0 002.312.12c.771-.185 1.518-.6 2.014-1.19A5.315 5.315 0 019.9 12.55c-.709.175-1.47.185-2.28.04z" fill="url(#paint3_linear)"/><g opacity=".8" fill="#fff"><path d="M10.854 6.518c-1.857-.083-4.097.688-4.796 1.196-.127.838.053 1.483.16 1.705 2.353-.593 2.353-.852 5.525-1.186-.188-.945-.614-1.372-.889-1.715zM7.292 11.394c2.558 0 3.912-.714 4.61-1.222.127-.839-.053-1.493-.159-1.715-1.04.11-5.082.962-5.304 1.195-.222.233.853 1.742.853 1.742z"/></g></g><defs><radialGradient id="paint0_radial" cx="0" cy="0" r="1" gradientUnits="userSpaceOnUse" gradientTransform="translate(10.485 5.3) scale(7.00667)"><stop stop-color="#4BA3DB"/><stop offset=".963" stop-color="#233D74"/><stop offset="1" stop-color="#233D74"/></radialGradient><radialGradient id="paint1_radial" cx="0" cy="0" r="1" gradientUnits="userSpaceOnUse" gradientTransform="translate(9.102 9.05) scale(4.31215)"><stop stop-color="#F6AB0D"/><stop offset=".693" stop-color="#EF511B"/><stop offset=".957" stop-color="#A21217"/><stop offset="1" stop-color="#A21217"/></radialGradient><linearGradient id="paint2_linear" x1="8.147" y1="5.242" x2="8.656" y2="7.337" gradientUnits="userSpaceOnUse"><stop stop-color="#fff"/><stop offset="1" stop-color="#FBCA3B"/></linearGradient><linearGradient id="paint3_linear" x1="9.889" y1="12.441" x2="9.961" y2="12.699" gradientUnits="userSpaceOnUse"><stop stop-color="#fff"/><stop offset="1" stop-color="#FDDB50"/></linearGradient><clipPath id="clip0"><path fill="#fff" d="M0 0h18v18H0z"/></clipPath><filter id="filter0_f" x="-122.124" y="-123.693" width="261.182" height="260.506" filterUnits="userSpaceOnUse" color-interpolation-filters="sRGB"><feFlood flood-opacity="0" result="BackgroundImageFix"/><feBlend in="SourceGraphic" in2="BackgroundImageFix" result="shape"/><feGaussianBlur stdDeviation="64.409" result="effect1_foregroundBlur"/></filter></defs></svg>