<!-- by TradingView --><svg width="18" height="18" fill="none" xmlns="http://www.w3.org/2000/svg"><path fill="url(#paint0_linear)" d="M0 0h18v18H0z"/><circle cx="9" cy="9" r="9" fill="url(#paint1_linear)"/><path d="M7.907 9.381c0 .02.005.043.011.053a.104.104 0 01.015.031c.002.01.007.017.01.017.01 0 .009-.01-.006-.037a.141.141 0 01-.015-.051c-.003-.045-.014-.056-.015-.013zm-.091-1.322c-.012 0-.023.002-.024.007-.002.005.005.008.018.009.011 0 .022-.004.024-.008.002-.005-.006-.008-.018-.008zm.011-.53c.019-.002.016-.018-.004-.032-.022-.015-.022-.015-.025-.004-.004.013.016.037.03.036zm.07-.023c.001-.003-.003-.014-.009-.025-.006-.011-.011-.015-.01-.009 0 .005-.002.008-.007.005-.012-.008-.006.007.009.022.007.007.015.01.017.007zm.507.477c.003-.01.003-.015-.004-.024-.007-.01-.008-.014-.006-.023.002-.01 0-.012-.01-.012-.021 0-.036.026-.03.053.004.017.008.021.035.029.015.004.02.004.016-.003a.027.027 0 010-.02zm-.438 1.224a.036.036 0 00.007-.016c-.002-.003-.008 0-.014.008-.005.008-.007.016-.007.016.002.003.008 0 .014-.008zm.34-1.092c0-.004-.002-.008-.007-.008s-.009-.006-.01-.015c0-.008.003-.012.01-.01a.02.02 0 00.015-.001c.005-.003.003-.008-.008-.022-.013-.015-.016-.017-.023-.009-.007.01-.008.009-.008-.006 0-.01-.006-.017-.006-.017s-.015-.014-.028-.03c-.013-.016-.02-.028-.017-.028.004 0 .01-.004.011-.01.002-.006.008-.01.012-.008.01.002.014-.009.01-.028-.006-.024-.037-.024-.065 0-.031.026-.037.04-.022.065a.25.25 0 00.04.064l.025.034-.004.026a.09.09 0 000 .04c.012.027.07.052.091.039.008-.006 0-.055-.01-.064-.004-.003-.007-.008-.006-.012zm-.382.004c-.003 0-.004.003-.001.008a.036.036 0 00.007.008l.002-.008c0-.005-.004-.008-.008-.008zm.027-.536a.038.038 0 00-.012-.016c-.009-.007-.01-.007-.008.001.005.018.023.031.02.015zm.19.106c.004-.006.005-.013.003-.015-.001-.002-.005.002-.008.01-.004.014.004.043.01.035.003-.003.002-.007-.003-.011-.007-.007-.007-.01-.002-.019zm.021.461s0 .006.003.012c.004.007.009.012.011.012.003 0 .002-.004-.003-.011l-.011-.013zm.064-.557c.003 0 .004-.004.003-.007 0-.005-.004-.008-.004-.008s-.002.003-.002.007.003.008.003.008zm-.11.54c-.006 0-.007.002-.003.005.005.003.01.002.01 0 .003-.003-.001-.005-.007-.005zm-.12-.168c-.014-.01-.026-.02-.026-.023 0-.004.003-.004.007-.002.007.004.015-.02.01-.027 0 0 .002-.007.009-.013l.011-.01h-.013a.045.045 0 00-.023.005.207.207 0 01-.031.015c-.02.009-.02.01-.011.02a.027.027 0 00.023.007c.009-.003.012-.001.01.005-.001.005-.008.009-.013.008a.04.04 0 00-.02.008c-.008.005-.014.004-.024-.008-.012-.016-.012-.017-.004-.024.007-.007.005-.008-.01-.01-.01 0-.018-.004-.019-.008-.002-.024-.038.004-.043.034-.001.008-.004.012-.007.009-.006-.008-.025.065-.02.08.009.023.062.03.092.01.022-.012.041-.01.07.006.028.015.091.023.104.012.03-.037-.046-.077-.072-.094zm.944-.557l-.002-.006-.006-.007.002.006a.112.112 0 00.006.007zm-.052.438c-.001-.003-.001.001.002.01.003.007.005.01.004.004a.047.047 0 00-.006-.014zm-.087.008s-.002.002-.001.007c.001.004.005.008.009.008.003 0 .003-.003 0-.007-.003-.005-.008-.008-.008-.008zm.919 1.481V9.33l-.003.007v.005l.003-.007zm-.011.023s-.003.002-.004.007c-.002.008.002.007.005-.001l-.001-.006zm-.018-.142v.003c.002-.01.001-.011 0-.003zm-.004.015l-.001-.004s-.003.001-.004.004c0 .003.002.004.002.004l.003-.004zm-.014-.06c-.001-.006-.002-.008-.003-.005-.001.01 0 .026.002.02a.049.049 0 000-.015zm-.008-.035l-.002.003v.009l.002-.003v-.009zm-.011.022a.033.033 0 01-.013.017l-.009.006.004.004c.002.003.005.004.008.001a.141.141 0 00.016-.034c0-.01-.002-.006-.006.006zm-.028.311c-.002-.022-.005-.02-.004.002 0 .01.003.016.003.016s.002-.008 0-.018zm-.011-.197a.467.467 0 01.007.003c.003.001.003-.002.002-.014 0-.008-.003-.012-.003-.012s-.002 0-.001-.003V9.23c-.003-.013 0-.024.004-.03.003-.002.002-.005-.002-.01-.003-.005-.005-.012-.004-.015.002-.011-.004-.022-.019-.035l-.018-.017c-.003-.005-.005-.002-.017.018-.013.023-.014.024-.015.014v-.025l.002-.018c0-.007-.013-.004-.02.004l-.008.01.005.003c.002.002.005.007.005.01 0 .005.003.009.006.009.004 0 .003.002-.003.004-.007.002-.008.004-.005.008v.013a.016.016 0 000 .009s.004-.003.004-.006.006 0 .011.005c.005.006.012.01.012.01.003 0 .006.032.004.042-.001.004-.005.008-.005.008l-.006.011c-.003.009-.002.01.005.003.007-.005.009-.004.01.005.002.013.017.009.02-.006a.05.05 0 01.008-.018c.008-.01.013-.005.015.019 0 .008.003.017.006.018zm-.084-.043c.007-.014.009-.022.006-.021l-.004.006a.24.24 0 01-.005.017c-.003.01-.002.01.003-.002zm-.02.148l-.004.007v.006l.004-.007v-.006zm.055-.042c.005-.033.005-.04 0-.026-.004.007-.012.036-.024.078a.38.38 0 01-.017.049c-.008.016-.014.021-.014.013a.043.043 0 00-.006-.018c-.012-.02-.012-.022-.003-.043l.01-.022a.07.07 0 00.005-.012c.002-.006 0-.009-.006-.008a.018.018 0 01-.015-.005c-.007-.008-.01-.008-.008-.001.003.005-.003.018-.01.02a.028.028 0 00-.015.017c0 .003-.004.01-.008.017a.056.056 0 00-.007.018c0 .005-.004.01-.01.012-.004.004-.006.003-.005-.002v-.013c-.003-.005-.013.002-.015.01-.001.003-.005.006-.005.006a.087.087 0 00-.02.034c0 .004-.003.008-.006.009-.004 0-.006.004-.007.01 0 .005-.004.01-.004.01s-.002-.003-.001-.007c.001-.01-.009.005-.014.021a.177.177 0 01-.025.046.288.288 0 01-.03.023.224.224 0 00-.034.03l-.012.012s-.005.004-.006.008-.005.005-.005.005c-.005-.004-.026.053-.027.07 0 .013-.001.016-.006.021-.004.005-.007.013-.011.038a.681.681 0 01-.01.048l-.003.02a.137.137 0 01-.02.05c-.01.008-.01.014-.003.021.008.01.012.008.032-.012a.077.077 0 01.035-.022c.013-.005.018-.008.023-.016.008-.016.024-.03.068-.058.01-.006.019-.006.019-.006s.004.003.008.002c.005 0 .006.032 0 .046-.004.011 0 .006.018-.02.018-.027.02-.025.004.004-.012.022-.014.03-.003.013.008-.015.008-.007 0 .01-.005.008-.005.01-.001.006.006-.007.006.002 0 .02-.007.016-.007.023.001.024.003 0 .008.004.008.004 0 .003.005.001.011-.008.01-.011.01-.012.01-.004s0 .008.015-.009a.122.122 0 01.02-.02c.003-.001.006-.005.01-.015a1.585 1.585 0 01.067-.134l.015-.038a.24.24 0 00.012-.036.44.44 0 01.009-.03.112.112 0 00.005-.036l.002-.027c.002-.004 0-.01 0-.01V9.5a.076.076 0 000-.03.05.05 0 01-.001-.027.526.526 0 00.004-.026c0-.006.003-.016.005-.025.003-.012.003-.017 0-.02-.002-.003-.002-.01.001-.037zm0 .447s-.002-.001-.005.003c-.004.005-.006.004-.005-.003 0-.005-.002-.006-.002-.006l.003-.014c.003-.01.004-.021.004-.021 0-.007-.002-.004-.005.007-.002.006-.002.014-.002.014a.162.162 0 01-.023.061c-.003.001-.006.01-.004.015 0 .004 0 .007-.005.017l-.005.014a.21.21 0 00.027-.047l.006-.01.015-.03zm-.055.084l-.002-.003c0-.004-.004.003-.014.021a.417.417 0 01-.03.047.36.36 0 00-.038.057c-.001.004 0 .006.004.006.01-.001.018-.012.03-.038.009-.017.021-.035.02-.03l.003-.003a.274.274 0 01.014-.026c.012-.021.018-.034.013-.031zm-.124.06l-.013.007a2.722 2.722 0 00-.006.02c-.006.027-.005.034.004.02a.037.037 0 01.007-.008l.008-.013c.015-.03.015-.031 0-.026zm-.029-.078c-.003.001-.004.004-.004.004s.004 0 .006-.002c.002-.003.001-.003-.002-.002zm-.132-2.019c-.002-.004-.006-.007-.006-.007v.006a.027.027 0 00.006.007v-.006zm.13-.036l-.004-.007v.005c0 .003.003.007.003.007v-.005zm-1.683-.221c.006-.006.005-.008-.004-.008-.007 0-.012.003-.012.008 0 .01.006.01.016 0zm-.081.029c.004 0 .008-.004.008-.008s-.005-.008-.005-.008c-.003 0-.007.004-.009.008-.001.004.001.008.006.008zm-.13.056c.007.004.02-.008.02-.02 0-.006-.002-.006-.017 0-.012.004-.013.015-.003.02zm-.021-.01c-.004 0-.007.004-.006.008.003.005.006.006.01.004.007-.007.005-.012-.004-.012zm.488.593c.008 0 .016-.003.017-.007.002-.005-.003-.008-.012-.009-.008 0-.017.003-.018.008-.001.005.004.008.013.008zm-.177-.014a.047.047 0 00.022 0c.006-.002 0-.004-.012-.004s-.017.001-.01.004zM7.49 8.16l.028.015c.002.001.006-.008.007-.019.004-.02.002-.02-.028-.02-.017 0-.031.003-.032.006 0 .004.011.012.025.018zm-.095-.122c.003 0 .006-.007.006-.016.001-.015-.005-.02-.013-.011-.005.006 0 .027.007.027zm-.02.046c0 .015.004.028.004.028.015 0 .025-.013.026-.033.001-.025-.003-.03-.017-.027-.007.002-.011.013-.012.032zm-.121.013c.002.005.006.007.009.004.01-.007.008-.012-.003-.012a.006.006 0 00-.006.008zm1.894.668l.024.057c.01.019.016.04.025.083a.68.68 0 00.015.057c.004 0 .033.05.037.064.009.038.022.093.038.091.004 0 .005-.003.003-.02 0-.01.001-.028.003-.04.004-.024-.028-.06-.045-.067-.005-.002-.01-.009-.012-.019a.111.111 0 00-.015-.03c-.013-.017-.014-.023-.018-.072-.003-.038 0-.056.006-.033.002.006.005.01.008.01 0 0 .014.012.025.026.01.015.022.028.026.03.004.003.008.012.01.022.003.01.008.017.008.017.004 0 .01-.028.008-.035 0-.004 0-.008.004-.008.003 0 .008-.008.01-.017.005-.014.004-.02-.003-.05a.234.234 0 00-.05-.096c-.03-.04-.035-.057-.028-.088.006-.028.023-.034.03-.011a.083.083 0 00.01.021c.004.006.004.009 0 .009-.012 0-.011.03 0 .038.009.006.013 0 .013-.018 0-.01-.002-.017-.006-.023-.013-.018-.013-.032 0-.044.01-.008.013-.015.01-.023-.002-.008-.001-.01.001-.004.008.013.025 0 .031-.023a.155.155 0 00.006-.053l-.002-.011a.123.123 0 010-.026c0-.043-.005-.065-.017-.067h-.006l.003-.008c.005-.009-.002-.03-.021-.063a.199.199 0 00-.031-.046c-.007-.005-.002-.044.006-.05.008-.005.004-.013-.01-.02-.008-.003-.012-.002-.013.004 0 .011-.009.006-.014-.008a.026.026 0 00-.01-.013c-.01-.003-.017-.024-.01-.024.003 0 .008-.01.01-.022.004-.014.007-.02.011-.017.007.005.007.007.007.019 0 .02.007.029.013.017.003-.006.008-.008.015-.004.01.005.011.007.014.022.005.02.008.025.017.026.006.001.015.014.014.021 0 .004.012.04.02.058 0 0 .005.001.01-.003.009-.006.009-.008.001-.032a.173.173 0 00-.028-.056l-.02-.033c.006-.006.009-.029.005-.038a.07.07 0 010-.026c.003-.014.004-.015.012-.008.013.013.017-.002.013-.069a.22.22 0 00-.014-.086.245.245 0 01-.012-.037c-.005-.03-.044-.083-.046-.062 0 .009-.003.01-.006.002-.005-.012-.008-.017-.006-.008.002.008.001.008-.003-.003-.004-.008-.008-.012-.014-.015l-.008-.004.004-.01a.24.24 0 00.005-.026c.005-.055-.017-.065.014-.051.009.004.015.005.015.002 0-.007.02.007.023.015.001.004.005.006.01.006h.012c.004 0 .004 0-.002-.005-.005-.005-.006-.01-.005-.026 0-.016.001-.018.01-.015.008.003.01.005.013.012.006.015.01.018.012.008.001-.005.003-.008.004-.005l-.003-.009c-.002-.007-.001-.01-.001-.01.007.002.015.03.013.046a.092.092 0 00-.001.024c0 .005 0 .012-.003.015-.005.006 0 .03.012.055a.98.98 0 00.026.053l.021.042c.006.011.006-.012 0-.025-.002-.005 0-.012 0-.012l-.002-.014c-.003-.007-.003-.013 0-.014.003-.001.002-.005-.003-.014-.006-.013-.007-.024 0-.017v-.003L9.37 7.84s-.005-.006-.007-.013c-.004-.01-.006-.013-.009-.014-.005-.001-.007-.006-.01-.028-.003-.011-.003-.017 0-.016.003.002.006 0 .006 0s.002-.001.004.003.003.004.004 0c0-.008.006-.007.015.004.002.003.005.002.005.002a2.295 2.295 0 00-.153-.21s-.002 0-.006-.007L9.22 7.56l-.006-.007-.002-.002c-.003 0-.006-.004-.007-.01l-.016-.017a.144.144 0 00-.028-.015c-.029-.014-.014-.01-.026-.024-.01-.014-.035-.026-.03-.015.001.005 0 .003-.003-.003-.004-.007-.008-.011-.02-.016l-.02-.01-.011-.004c-.005 0-.005 0 .002.012.008.012.008.013 0 .007-.003-.002-.006-.003-.005 0 0 .004-.002.004-.006 0a.122.122 0 00-.026-.013c-.014-.006-.019-.006-.019.001 0 .01-.009.004-.03-.018-.008-.01-.01-.011-.005-.01.006.002-.004-.012-.011-.015-.006-.001-.006-.002-.004-.005.003-.003.002-.004-.005-.009a.28.28 0 00-.03-.016c-.017-.008-.02-.008-.016 0s.002.008-.012.004a.093.093 0 01-.029-.015.14.14 0 00-.039-.019.453.453 0 01-.046-.018c-.013-.007-.016-.008-.012-.002.003.005 0 .007-.01.007-.014 0-.025-.007-.014-.01.003 0 .011-.004.017-.007a.545.545 0 01.019-.008c.008-.003.008-.007 0-.02a.043.043 0 00-.009-.007.321.321 0 01-.016-.011.09.09 0 00-.027-.012c-.018-.003-.04-.014-.042-.02-.002-.011-.028-.022-.039-.016-.004.002-.006.006-.006.01.001.003-.002.004-.006.003-.004 0-.006 0-.004.003.002.004-.006.003-.018 0-.039-.01-.1-.006-.108.006l-.005.006.01.007c.006.005-.002.006-.027.004l-.04-.002c-.005.001.017.029.029.035.01.006.012.008.008.01-.003 0-.013-.003-.022-.009l-.033-.015c-.015-.007-.015-.007-.004.005.01.012.01.012-.003.005-.017-.007-.018 0-.001.011.008.007.008.007-.003.004-.01-.003-.014-.006-.02-.019a.103.103 0 00-.01-.02c-.002-.004-.002 0 0 .005.003.007.002.012-.001.011-.004 0-.008.002-.01.005-.002.005-.001.008.009.017.008.01.01.013.01.022-.002.016.007.026.028.029.021.003.037.017.038.032 0 .01 0 .01-.004-.002-.005-.013-.02-.024-.033-.022-.006 0-.006.004-.001.016s.004.019-.004.029c-.012.014-.042.015-.05 0-.004-.004 0-.005.01-.001.013.005.017.003.021-.015.005-.018.004-.02-.004-.03a.089.089 0 01-.016-.034.088.088 0 00-.014-.03c-.004-.004-.006-.008-.005-.016a.025.025 0 00-.02-.027c-.01-.001-.011-.003-.01-.008.003-.005.002-.006-.004-.007-.005-.001-.008.001-.006.006 0 .003 0 .006-.004.006-.003-.001-.006.004-.006.012a.035.035 0 01-.008.022c-.005.005-.004.01-.004.01.002 0 .006.006.008.012.002.005 0 .01 0 .01s.004.007.016.016c.032.027.024.033-.014.011a.43.43 0 00-.064-.028.67.67 0 01-.042-.015c-.008-.004-.007-.003.005.007.02.016.026.026.018.035-.004.005-.007.004-.011-.002-.005-.007-.013-.008-.038-.005-.024.003-.035.002-.038-.004-.003-.005-.008-.007-.011-.004a.062.062 0 01-.018.006c-.023.003-.048.017-.05.026 0 .01-.019.01-.032.002-.01-.006-.009-.018.002-.017.01 0 .008-.01-.002-.018-.012-.007-.04-.008-.032 0a.028.028 0 01.007.017c0 .007.002.015.005.018.011.01.002.025-.012.018-.007-.004-.019-.002-.028.003-.019.011-.02.012-.01.028.008.011.007.012-.012.007a.141.141 0 01-.031-.01c-.008-.005-.01-.003-.01.003 0 .004.006.01.011.013.01.005.015.018.006.018a.093.093 0 01-.047-.03.05.05 0 01-.006-.022c.001-.006-.004-.013-.012-.016-.025-.011-.007-.012.036 0 .04.01.047.009.06 0 .008-.007.012-.015.01-.02a.364.364 0 00-.161-.072c-.023-.006-.025-.008-.017-.013.01-.006.01-.006-.006-.013-.008-.004-.018-.005-.02-.004-.003.001-.006 0-.006-.005s-.004-.006-.008-.003a.049.049 0 01-.017.007.03.03 0 00-.015.01c-.003.005-.006.007-.007.004 0-.003.003-.01.007-.016.006-.007.004-.008-.01-.002a.059.059 0 00-.022.014c-.002.004-.008.005-.014.003s-.015 0-.022.005c-.007.006-.015.008-.02.004-.013-.009-.017-.009-.014 0 .001.003 0 .006-.003.005l-.017.001c-.009.001-.01.002-.005.008.012.011-.006.018-.018.007-.008-.006-.01-.006-.007 0 .003.007 0 .008-.007.004-.008-.004-.01-.003-.004.003.004.004.01.006.015.004.018-.009.006.01-.02.028a.121.121 0 00-.036.044c-.004.012-.012.021-.016.021s-.007.004-.007.009c0 .003-.002.006-.004.003-.003-.002-.01.004-.018.012-.007.009-.016.013-.02.011s-.007 0-.007.007c0 .006-.005.012-.01.012a.1.1 0 00-.03.013c-.022.014-.03.038-.018.057.004.009.004.012-.004.02-.008.009-.007.01.004.006.012-.005.013-.004.003.007-.011.012-.01.016.015.023.014.004.024 0 .04-.01.012-.01.023-.02.023-.025 0-.007.003-.006.007 0a.039.039 0 01.007.02c0 .006.002.011.005.011s.004.005.004.01a.05.05 0 00.01.025c.005.008.009.016.007.018 0 0 0 .01.002.017.005.014.027.013.027 0 0-.005.006-.008.014-.008.022 0 .033-.014.03-.04-.001-.018 0-.023.013-.03a.106.106 0 00.023-.021c.006-.01.006-.011-.003-.021-.005-.006-.013-.01-.016-.01-.004 0-.007-.007-.007-.015 0-.024.014-.045.038-.058.027-.015.036-.025.032-.034-.006-.014.02-.03.041-.027.026.004.032.015.017.027-.053.043-.06.049-.055.061l.004.028c0 .026.024.037.062.032l.045-.007c.015-.003.032.009.027.017-.001.004-.018.007-.038.007-.044.001-.059.006-.059.017 0 .005.005.01.01.013.008.002.01.009.009.019-.003.021-.009.024-.022.01-.02-.02-.036-.003-.035.04.001.02-.001.025-.01.025-.006 0-.01.003-.01.007 0 .01-.024.01-.031 0-.004-.005-.019-.003-.043.007-.021.009-.041.013-.045.01a.09.09 0 00-.036-.006c-.032 0-.049-.013-.042-.031a.027.027 0 01.013-.016c.009-.004.01-.008.006-.015-.004-.007-.004-.015-.002-.02.006-.012-.01-.01-.02.005-.006.006-.012.01-.015.006-.004-.004-.005.003-.004.025.003.057.003.062-.012.063-.04.002-.044.003-.048.02-.003.012-.006.013-.008.006-.002-.007-.008-.003-.02.016a.083.083 0 01-.033.03c-.01.003-.018.01-.02.016a.076.076 0 01-.024.025c-.015.01-.022.01-.03.003s-.01-.006-.012.008c-.001.014-.005.017-.016.017-.029-.003-.039 0-.04.012-.002.007.002.012.009.012.023 0 .048.037.044.066a.183.183 0 01-.01.04c-.007.019-.01.02-.06.017a.33.33 0 01-.057-.005c-.003-.002-.012 0-.02.005-.013.009-.015.014-.018.045a.249.249 0 01-.014.06c-.009.02-.01.028-.006.036a.06.06 0 01.001.028c-.003.018-.001.02.016.015.014-.005.021-.002.028.01.009.014.014.016.028.008a.12.12 0 01.04-.008c.014 0 .024-.005.028-.013.002-.007.008-.013.012-.013.01 0 .03-.033.03-.05s.029-.05.053-.061c.015-.007.021-.014.024-.03.005-.026.027-.039.047-.025.01.006.02.003.043-.011a.167.167 0 01.038-.02c.003-.001.018.015.032.034.014.02.044.048.066.062.042.025.053.041.045.075-.005.017-.004.016.014-.005.015-.019.017-.024.009-.03-.008-.005-.008-.01-.002-.018.007-.008.01-.008.022 0 .007.006.015.009.017.006.004-.004-.038-.037-.048-.037-.005 0-.009-.004-.008-.008 0-.005-.005-.008-.01-.008-.006 0-.021-.014-.035-.032a.118.118 0 00-.029-.032c-.004 0-.006-.009-.005-.02 0-.022.023-.035.028-.016.002.007.008.01.014.007.006-.002.013.005.019.02.005.012.018.025.027.028a.195.195 0 01.042.026c.019.014.025.025.025.041 0 .014.01.032.026.053.014.017.023.033.02.034-.008.004.021.04.032.04.006 0 .007-.005.005-.012-.003-.009.002-.015.012-.02.025-.012.016-.032-.012-.026-.004 0-.004-.004-.003-.01.002-.008 0-.015-.003-.018-.011-.009-.007-.022.005-.016.007.002.015 0 .019-.008.014-.024.058-.008.052.019-.001.006.001.011.005.011.005 0 .007.008.007.02-.001.012.003.021.003.021.003 0 .006.006.006.013 0 .007.01.016.02.021l.031.019c.012.007.018.006.025-.005.008-.011.012-.012.028 0 .02.014.045.017.049.006 0-.004.01-.01.022-.01l.02-.003v.033a.354.354 0 01-.009.077c-.012.053-.031.068-.06.048-.014-.01-.02-.01-.036-.001-.023.012-.037.012-.07 0a1.26 1.26 0 00-.06-.02c-.023-.005-.04-.012-.04-.017 0-.003-.008-.008-.018-.01-.023-.009-.053.01-.053.032 0 .01-.003.023-.008.03-.008.011-.012.01-.038-.004a.149.149 0 00-.045-.015.026.026 0 01-.023-.015c-.007-.015-.053-.037-.062-.03-.006.004-.065-.027-.065-.033 0 0 .007-.012.016-.02.013-.013.013-.017.006-.029-.006-.01-.006-.015.001-.027.009-.012.009-.013-.001-.008-.007.003-.012.002-.012-.003 0-.006-.008-.007-.023-.004a1.235 1.235 0 01-.092.01c-.049.004-.113.013-.146.046-.008.008-.071.004-.078-.007-.007-.012-.011-.008-.023.019a.095.095 0 01-.035.04c-.027.017-.058.062-.058.087 0 .02-.02.048-.057.07a.257.257 0 00-.073.088.074.074 0 01-.015.026.49.49 0 00-.034.052c-.018.032-.02.037-.014.05.007.014.007.03 0 .079a.246.246 0 01-.034.087c-.005.002-.006.01-.002.022.003.01.003.028 0 .04-.004.018-.002.023.01.028.007.002.014.008.013.012a.15.15 0 00.02.04.141.141 0 01.018.05c.003.036.057.076.088.105.016.015.02.015.085 0a.135.135 0 01.06-.001c.022.006.036.004.072-.012.036-.017.092-.04.131-.017.01.008.018.019.018.025-.001.02.014.029.05.023.03-.005.035-.003.055.015.014.012.02.025.019.033a.22.22 0 00-.006.051.133.133 0 01-.009.048c-.009.013.006.038.049.081.037.041.068.094.078.15l.012.053c.005.023.003.032-.01.045a.188.188 0 00-.03.107c.006.039.039.08.064.114.007.01.015.036.02.06.007.048.02.077.037.09.015.011.056.086.05.094-.006.01.01.036.027.043a.03.03 0 00.03-.001.146.146 0 01.05-.01c.06-.006.12-.027.157-.079a.89.89 0 01.039-.044.078.078 0 00.024-.051c.005-.03.005-.032.034-.046.029-.014.03-.016.033-.04a.198.198 0 00-.002-.053c-.004-.024-.003-.027.011-.038a.261.261 0 00.034-.032.118.118 0 01.04-.03.12.12 0 00.036-.027c.016-.016.018-.023.024-.08.005-.047.004-.064-.003-.07-.005-.005-.009-.023-.008-.043a.18.18 0 00-.005-.051c-.004-.013-.001-.024.017-.056a.369.369 0 01.041-.062c.012-.012.037-.04.057-.064a.325.325 0 01.056-.054.232.232 0 00.082-.138.57.57 0 01.015-.058.183.183 0 00.002-.048c-.002-.037-.004-.039-.013-.032a2.234 2.234 0 01-.132.041l-.019-.02c-.012-.014-.016-.024-.012-.026.009-.004-.037-.057-.073-.084a.098.098 0 01-.038-.051.132.132 0 00-.028-.05c-.013-.01-.021-.027-.028-.055a.135.135 0 00-.027-.061.108.108 0 01-.022-.035.224.224 0 00-.02-.044 2.634 2.634 0 00-.058-.112c-.009-.014-.014-.026-.01-.026.002 0 .011.013.02.027.02.033.033.04.03.013-.001-.012 0-.014.004-.006a.779.779 0 00.034.055.29.29 0 01.03.051c0 .005.01.015.018.023.02.015.035.046.039.074.001.013.011.028.027.043a.097.097 0 01.027.031.17.17 0 00.025.043c.012.017.025.04.026.05.004.031.027.092.036.096.004.001.015-.002.024-.009a.052.052 0 01.023-.011.055.055 0 00.022-.008c.007-.004.016-.006.016-.006s.01-.005.016-.013a.15.15 0 01.035-.023.075.075 0 00.031-.03c.005-.011.018-.021.031-.024.013-.003.02-.01.02-.016-.001-.007.003-.012.009-.012.006 0 .01-.004.01-.008-.002-.005.003-.012.01-.018.005-.005.009-.01.007-.015-.006-.009-.003-.031.004-.031.003 0 .009-.012.012-.026l.007-.025a.661.661 0 00-.015-.019.078.078 0 00-.03-.023c-.02-.006-.029-.018-.038-.046l-.006-.022-.013.027c-.024.044-.073.043-.073-.002 0-.023-.014-.032-.016-.009 0 .017-.002.016-.014-.013a.097.097 0 00-.021-.035.119.119 0 01-.026-.036c-.016-.031-.016-.031-.007-.04.017-.015.031-.01.05.023.018.03.06.077.098.07.004-.006.01-.006.013-.004.002.003.003 0 .002-.004-.004-.017.008-.01.018.01.005.01.01.021.014.024a.26.26 0 00.151.01c.002-.002.013.008.025.023.029.035.054.056.059.05.002-.003.004-.001.005.003s-.002.009-.008.009c-.01 0-.01.001.01.024.023.027.039.026.038-.003 0-.017 0-.017.01.004.006.013.01.026.01.03.01.05.031.101.055.146.01.02.02.04.02.044.002.006.012.025.022.042l.03.06c.017.04.025.041.037.005a.234.234 0 00-.008-.133c-.008-.03-.008-.037-.002-.041.005-.003.007-.007.007-.011-.001-.004.003-.007.003-.007.004 0 .015-.025.027-.067.004-.013.01-.025.012-.025.008 0 .011-.016.007-.032-.002-.007.001-.014.001-.014l.018-.004a.08.08 0 01.018-.004c.003-.001.004-.007.003-.015-.003-.02.01-.008.025.023a.12.12 0 00.026.037.027.027 0 01.012.02c0 .005.005.01.005.01.006 0 .022.038.022.056 0 .013.003.018.008.02.012.008.016.005.02-.014l.006-.018.012.03h-.002zm-.176.206c-.018-.03-.022-.034-.022-.016 0 .018.011.065.019.076.005.009.008.01.015.002.012-.012.009-.026-.012-.062zm-.3 1.7s.005 0 .007-.002 0-.003-.003-.001a.006.006 0 00-.004.004zm-.214-1.79c.003.005.007.006.01.004.006-.007.004-.012-.007-.012-.004 0-.006.004-.003.008zm-.027.876c.003 0 .004-.004.003-.007 0-.004-.004-.006-.004-.006l-.004.007c0 .003.002.006.005.006zm-.017.72c-.004.009.007.008.019-.002.005-.004.003-.006-.005-.006s-.012.002-.014.008zm-.208-.712c-.014.019-.016.027-.017.052-.001.043.01.057.038.049a.08.08 0 00.025-.011c.032-.044.056-.115.077-.174a.162.162 0 01.01-.02.04.04 0 00.004-.022c0-.01 0-.012.008-.01.007.003.008 0 .009-.023 0-.024-.007-.064-.011-.064l-.006.006c-.003.002-.006.01-.007.016a.052.052 0 01-.013.023.235.235 0 00-.024.028.092.092 0 01-.034.026c-.035.014-.049.037-.046.074.003.026.001.031-.013.05zm-.87 1.318c.003 0 .004-.002.003-.007l-.003-.008-.003.007c-.001.005 0 .008.003.008zm-.213.04c0 .004.005.007.005.007s.002-.003 0-.006a.022.022 0 00-.004-.005v.005zm1.695-.303c-.014.006-.019.007-.022.005 0 0-.007 0-.013.002-.006.002-.01.002-.008 0 .003-.005-.001-.004-.005.001l-.01.007c-.005.002-.006.001-.006.001s-.001-.002-.005 0c-.012.002-.02 0-.017-.004.002-.003.002-.004 0-.002a.206.206 0 01-.036.008.317.317 0 00-.024.006c-.004 0-.003-.001.002-.008s.007-.009.004-.008l-.01.01c-.005.008-.007.01-.021.015a.059.059 0 00-.025.013c-.01.01-.02.014-.02.007-.001-.003-.004-.003-.006 0a.347.347 0 01-.067.026c-.014.004-.028.003-.03-.002-.003-.004-.023.004-.035.015-.008.007-.011.008-.038.009-.026 0-.032 0-.046.01l-.009.005-.001.001a.046.046 0 01-.017.012.203.203 0 00-.07.027.126.126 0 00-.027.016.285.285 0 01-.042.023.137.137 0 00-.031.016.02.02 0 01-.009.005l-.011.01c-.014.016-.036.029-.044.027-.005-.002.003-.016.01-.017 0 0 .008-.005.012-.01.008-.008.008-.008.002-.004-.009.005-.014.001-.009-.005a.017.017 0 01.009-.005.09.09 0 00.03-.029c0-.002-.012-.004-.03-.002a.315.315 0 01-.092-.004s-.002-.006-.005-.008c-.012-.01-.065.003-.068.017-.002.005-.005.006-.013.005-.008 0-.01 0-.011.005 0 .005-.003.006-.012.005a.058.058 0 00-.025.003.133.133 0 01-.024.01.14.14 0 00-.053.023c-.008.01-.024.014-.025.007 0-.002-.003-.003-.007-.001s-.01-.001-.016-.007c-.007-.01-.01-.01-.017-.005-.016.014-.03.018-.074.027a.28.28 0 01-.078.005.292.292 0 00-.104 0c-.003.004-.01.004-.015.002a.318.318 0 00-.1-.002.128.128 0 01-.07.006c-.019-.002-.034-.006-.033-.009.003-.009-.012-.005-.02.005-.01.01-.01.01-.017 0-.006-.009-.009-.01-.02-.005-.005.003-.014.004-.017.001-.007-.003-.007-.003 0 .005.007.009.007.01-.002.014a.039.039 0 01-.015.004c-.003 0-.007 0-.008.003-.002.002-.008.005-.015.005-.006 0-.012.004-.012.008 0 .005.002.006.014.005.012-.002.01 0-.008.008-.013.006-.023.013-.023.016 0 .003-.01.004-.022.002-.042-.005-.176-.004-.181.02 0 0 .043.024.048.022h.025c.02.002.02.002.013.007a.079.079 0 00-.008.006l.01.002a.031.031 0 01.013.006c-.002.003-.005.004-.01.005a2.336 2.336 0 001.772-.399zm-1.921-.224a.047.047 0 00-.017-.01c-.013-.003-.013-.003-.001.005.014.011.024.014.018.005zm-.028.566a.047.047 0 01-.01-.016c-.002-.01-.04-.023-.06-.021-.007 0-.014.006-.015.012-.002.008-.007.012-.02.011h-.01c.03.01.063.02.094.027h.021c.007-.003.007-.004 0-.013zm-.122-3.66c.007-.002.011-.001.01.002 0 .004 0 .007.004.007s.006.002.005.006c-.001.003.003.006.01.007.009 0 .016-.006.028-.026a.105.105 0 00.017-.034c0-.003.008-.013.02-.02.02-.014.026-.023.019-.028-.003-.003-.001-.005.004-.005.007 0 .008-.003.007-.012-.002-.008.001-.01.018-.015a.086.086 0 00.032-.018c.01-.012.01-.01.004.001s-.006.013.003.006a.132.132 0 01.03-.013.109.109 0 00.038-.024c.01-.01-.065-.017-.062-.017a.447.447 0 00.092-.012c0-.01.001-.01.007-.004.008.01.064-.002.112-.024.029-.014.032-.016.024-.021a.086.086 0 00-.026-.007c-.01-.002-.013-.003-.007-.005.007-.003.01-.007.01-.015 0-.01.002-.01.01-.006.004.003.009.009.01.013 0 .008.035.013.037.004.002-.012-.011-.034-.024-.039-.014-.005-.023-.026-.011-.026.004 0 .006.003.005.007-.002.007.02.023.027.018.008-.007.005-.016-.01-.024-.008-.006-.013-.012-.011-.014.001-.002.008 0 .015.005.013.008.041.002.043-.01 0-.004.005-.01.013-.012l.013-.004-.013-.001c-.015-.001-.015-.016 0-.016a.021.021 0 00.01-.004c.003-.01-.007-.025-.017-.025-.022 0-.019-.01.002-.013l.002.004.006-.004c.012 0 .019.002.018.006 0 .005.001.005.006-.001.01-.013.008-.018-.006-.019-.008 0-.013-.004-.014-.009-.001-.005-.005-.006-.011-.004l-.01.005.011-.015c.007-.008.015-.015.018-.015.003 0 .008-.004.01-.01.003-.006.009-.01.014-.01a.033.033 0 00.017-.007.162.162 0 01.054-.03.896.896 0 01.024-.008L7.36 6.96a.065.065 0 00-.043.003.067.067 0 01-.03.004c-.006-.002-.02 0-.03.006-.01.005-.02.006-.02.006l.002-.003.014-.012c.009-.01.008-.01-.015-.007-.015.003-.023.002-.02-.002.002-.004.012-.007.022-.007.01 0 .02-.004.022-.007.002-.005-.003-.007-.014-.007a.374.374 0 00-.167-.009c-.014.002-.026.007-.027.01 0 .003-.024.006-.05.007-.029 0-.043.003-.036.006.011.004.016.012.008.013-.003 0-.004.002-.005.007 0 .008-.001.008-.032 0-.034-.01-.039-.01-.039.003 0 .012-.005.014-.019.006-.006-.004-.01-.003-.014.002-.004.006-.007.005-.009 0-.004-.01-.09.012-.094.024-.002.006-.008.009-.02.01a.177.177 0 00-.067.03c-.003.003.001.005.009.004.007-.001.013 0 .01.004-.003.007-.013.012-.041.021-.052.017-.065.022-.067.027-.004.006.032.014.04.008.002-.002.003 0 0 .002 0 .005-.01.01-.021.011-.016.003-.017.004-.01.007.004.001.009.006.01.01.003.004.018.003.047-.003.045-.01.075-.004.077.012 0 .005.003.008.006.008s.006.012.008.025c.003.023.002.028-.006.036-.017.017-.016.024.003.018.011-.004.02-.002.028.005.008.01.009.029 0 .02-.003-.002-.011-.003-.018-.003-.009 0-.012-.002-.009-.006.003-.004.002-.005-.002-.003-.004.003-.008.008-.008.011 0 .004-.004.007-.004.007s-.007.004-.01.01c-.004.012.007.019.022.012l.011-.005-.005-.01c-.005-.008-.005-.008.006-.005.007.002.012.007.01.01 0 .004.003.004.008 0 .008-.009.007-.006-.003.01-.008.011-.016.019-.02.02-.006 0-.017.007-.027.016-.015.015-.017.018-.014.025.002.007.002.01-.004.013-.004.002-.005.008-.001.019.002.009.002.02 0 .026-.005.013-.004.013.014.002.014-.008.014-.008 0 .007-.013.016-.013.017-.005.049.008.036.017.045.036.039zm-.074 3.62l-.002-.005c-.005-.006-.016-.008-.016-.004l-.002.002.02.007zm-.076-.277c-.003 0-.004 0-.003.003 0 0 .004.006.007.007.003 0 .005-.001.004-.004s-.004-.006-.008-.006zm.036.16l-.013-.01c-.006-.005-.011-.012-.011-.012l-.003-.004s-.005-.006-.006-.013c-.002-.008-.005-.012-.012-.016-.005-.002-.009-.006-.009-.01 0-.005-.03-.032-.039-.033-.005 0-.008-.004-.013-.012l-.006-.012c.01-.012.016-.016.022-.012.004.002.006 0 .007-.005 0-.01.016-.02.03-.016.004 0 .007 0 .006-.003 0-.003.003-.006.01-.007l.01-.002a.109.109 0 01-.012-.003c-.007-.002-.013 0-.013 0s-.006.003-.012.003a.118.118 0 00-.044.014.063.063 0 01-.018.012c-.007.004-.013.01-.012.013.002.003.006.005.006.005.003-.001.005.002.009.013.003.013.002.014-.006.012-.012-.003-.013-.005.016.034l.015.02c.004.008-.01.01-.042.005s-.036-.007-.043-.016c-.007-.008-.01-.01-.014-.007-.003.002-.004.004-.001.005l.007.006c.001.004-.002.004-.012-.001a.672.672 0 00-.043-.022c-.007-.004-.01-.005-.012 0s-.006.005-.027-.005a.133.133 0 01-.027-.014.052.052 0 00-.018-.009.056.056 0 01-.02-.01.589.589 0 01-.153-.058c-.007-.004-.01-.005-.008-.001.001.003.01.007.02.012.01.004.02.009.02.011.001.003-.005.001-.014-.003-.009-.005-.014-.006-.01-.004l.013.011a.071.071 0 00.009.007l.007.005c.09.059.183.111.28.158.006 0 .008 0 .006-.001a.077.077 0 00-.023-.013c-.009-.003-.018-.008-.02-.011-.004-.004 0-.004.01.002a.29.29 0 00.078.028c.002-.001-.004-.005-.017-.01-.023-.011-.054-.033-.05-.037 0 0 .014.003.028.011.03.016.06.027.077.026.007 0 .024 0 .038.002.016.002.025 0 .026-.004 0-.004.004-.005.007-.002.002.002.007 0 .01-.006.004-.006.004-.01 0-.012-.003 0-.007-.005-.007-.005-.001-.003.004-.002.01 0l.013.005zm-.087.06c-.007 0-.014.003-.014.003l.017.007c.004 0 .01 0 .014-.002.014-.004.006-.008-.017-.009zm-.39-.23l-.018-.007a.05.05 0 01.01.009s.005.004.009.005a.836.836 0 01.024.008c.03.01.007-.004-.024-.015zm.006-.54c-.003 0-.004.002-.003.006 0 .003.006.007.006.007.003 0 .005-.002.003-.005 0-.004-.003-.007-.006-.007zm.094.585l-.006-.005s-.002 0 0 .003a.033.033 0 00.005.006s.002-.001 0-.004zm.031-.376c-.004 0-.006.003-.006.007 0 .008.001.009.007.005.008-.006.009-.01 0-.012zm.028.005c-.006 0-.012.002-.014.007-.003.008-.002.009.007.006.015-.003.02-.011.007-.013zm.084.415c-.006-.002-.009-.001-.007.002a.03.03 0 00.011.008c.004 0 .006-.002.006-.002 0-.003-.004-.006-.01-.008zm.086-.048c.003-.002.004-.006.003-.008-.002-.007-.007-.008-.01-.002-.002.008.002.014.007.01zm-.067.019c.003.002.006.001.006.001s-.001-.003-.005-.004c-.004 0-.004 0-.001.003zm-.004.012s.006.005.013.006c.018.002.018 0 0-.006-.007-.002-.013 0-.013 0zm.063.038c-.013.002-.01.004.011.008.038.01.039-.002.003-.04-.021-.024-.025-.026-.035-.025-.004 0-.004.004 0 .011.004.006.003.014.003.014-.002.002 0 .004.007.006.014.003.012.007-.003.005l-.019-.001-.01-.002c-.004 0-.004.001 0 .006.005.005.01.007.02.006.007 0 .015.001.019.005.007.005.007.006.003.007zm.045-.11c-.004.004-.003.005.003.006.003 0 .005 0 .004-.003-.002-.006-.003-.006-.007-.002zM5.884 8.7c-.003.006.04.018.049.012a.075.075 0 01.025-.005c.011 0 .022-.003.022-.003s-.003-.01-.01-.02c-.014-.019-.057-.029-.054-.012.004.018-.005.032-.018.027-.007-.003-.013-.002-.014 0zm.005-.168c.002 0 .006-.004.007-.008.002-.004.002-.007-.001-.007 0 0-.006.002-.008.007-.001.004.002.008.002.008zm-.043.172c-.005-.011-.023-.013-.024-.002 0 .004.007.008.014.009.01 0 .013-.001.01-.007zm.01-.06c-.004.01-.002.013.016.014.022.002.037-.009.026-.019a.164.164 0 01-.02-.022c-.04-.052-.052-.06-.077-.05a.074.074 0 00-.026.017c-.01.011-.01.012.001.007a.06.06 0 00.02-.01c.008-.01.021-.008.018.001-.002.004.001.008.006.009.006 0 .01.004.01.008s.004.009.01.009c.005 0 .008.006.008.012-.001.007.002.013.007.013.006 0 .007.004.002.012zm.155.066c-.007 0-.013.002-.015.007-.001.004.003.008.01.009.006 0 .013-.003.014-.007.002-.005-.003-.009-.01-.01zm.022.223c-.002 0-.006.002-.007.007-.001.004.003.009.003.009.003 0 .006-.004.007-.008.002-.005 0-.008-.003-.008zm.334-.996a.057.057 0 01-.012-.012c-.002-.002-.002 0 0 .007.001.007.007.012.012.012.008-.001.008-.002 0-.007zm.047-.082c-.004-.012-.021-.017-.02-.004.002.003.007.008.012.011.01.005.012.004.008-.007zm.124-.001c-.011.003-.017 0-.02-.007 0-.006-.004-.01-.008-.006-.009.006.002-.01.02-.03.022-.024 0-.017-.021.006a.233.233 0 00-.028.035.07.07 0 01-.013.015s-.006.005-.009.012c-.002.006-.01.011-.01.011s-.005.003-.007.008.011.006.032.006c.027-.001.033 0 .025.008-.016.019 0 .01.025-.014.014-.013.022-.02.017-.019-.006.005-.006.002.002-.012.01-.016.009-.017-.005-.013zm.003.044c.008-.012.002-.008-.013.008-.012.013-.013.015-.007.02.003.003.01 0 .013-.005.004-.005.004-.012.004-.012-.002-.002 0-.007.003-.01zm-.349-.138c-.003 0-.007.003-.007.003s0 .004.002.007c.001.002.005 0 .007-.003.002-.004 0-.007-.002-.007zm.067-.082c-.002 0-.007.003-.009.007-.002.004 0 .005.004.003l.01-.008s-.002-.003-.005-.002zm.045-.162a.024.024 0 00-.015.008c-.003.004-.002.007.003.007a.026.026 0 00.015-.008c.004-.005.002-.007-.003-.007zm.032.01c-.003 0-.008.004-.012.009-.003.003-.003.007 0 .006.003 0 .008-.004.011-.008.004-.004.004-.007 0-.006zm.006-.033c.002-.005 0-.007-.003-.007-.004 0-.006-.002-.003-.006.003-.006-.009-.017-.022-.02-.002 0-.002-.005.002-.01l.004-.007-.01.005a.083.083 0 00-.02.022.197.197 0 01-.023.029c-.01.01-.01.01-.001.005.006-.003.01-.002.01.003.001.006.005.005.02-.006s.02-.013.026-.007c.008.008.015.008.02-.001zm.03.004c-.004 0-.005.004-.005.004.002.002.005.001.008 0 .002-.003.001-.005-.003-.004zm.068-.142c-.007.006-.009.01-.009.01s.009-.005.014-.01c.013-.014.011-.014-.005 0zm.035.03h.009c.003-.003.002-.004-.003-.004s-.006.004-.006.004zm.001-.017l-.016.007c-.019.007-.035.03-.02.029.013-.002.021-.008.03-.025l.006-.011zm-.844.468l.01-.017c.008-.012.01-.015.005-.015a.016.016 0 00-.009.007c-.003.004-.006.025-.006.025zm-.046-.09c.006-.005.007-.006.004-.005l-.008.006a.064.064 0 01-.013.012c-.011.007-.017.017-.006.011.008-.005.022-.018.018-.017 0 0 .001-.003.005-.006zm.534 2.764c0-.009.002-.015.006-.014.006.001.007.003.005.01-.002.006-.001.007.005.008.007.002.008.003.004.01a.024.024 0 01-.008.01s-.004 0-.005.003c0 0 .005.005.013.006.008.002.014.005.014.009 0 .003.004.006.011.008.008.001.01 0 .006-.006-.005-.006-.004-.006.003 0a.044.044 0 00.028.009c.02 0 .026-.007.009-.01a.126.126 0 01-.052-.04c0-.003-.007-.01-.014-.013-.009-.006-.01-.007-.004-.006.006 0 .006-.002-.002-.016-.011-.018-.012-.027-.002-.025.004.001.007-.005.007-.012s.004-.017.01-.02c.012-.007.01-.025-.003-.028-.024-.004-.035-.04-.014-.043.005 0 .01-.005.01-.01a.11.11 0 000-.036c-.002-.003 0-.005.003-.004.004 0 .004 0 0-.005a.07.07 0 01-.015-.02c-.007-.014-.006-.015.016-.007.02.007.023.007.023-.008a.058.058 0 00-.004-.024c-.004-.006 0-.008.014-.006.034.005.053 0 .061-.016.009-.015.008-.03 0-.032-.004 0-.008-.007-.009-.014a.046.046 0 00-.015-.02c-.007-.005-.013-.012-.014-.016 0-.005.002-.004.007.001a.112.112 0 00.038.018c.026.007.03.006.04-.009a.095.095 0 00.015-.039c.004-.027.013-.046.018-.04.003.003.003.008.002.013a1.314 1.314 0 01.018-.035.078.078 0 00.006-.051c-.003-.018-.002-.037.002-.043.01-.018.066-.045.088-.044.017.002.039-.013.037-.025 0-.004.004-.018.009-.032.006-.014.007-.03.007-.03l.002-.03a.358.358 0 00-.001-.072c-.005-.033-.004-.047.004-.059.023-.035.052-.073.063-.115a.168.168 0 00-.008-.053c-.008-.026-.013-.033-.025-.035a.152.152 0 01-.053-.037c-.03-.03-.043-.037-.064-.04a.099.099 0 01-.04-.012c-.007-.006-.018-.008-.026-.004-.011.005-.013.003-.015-.01-.001-.014-.009-.022-.038-.039a1.803 1.803 0 00-.035-.02l-.011.022c-.007.013-.014.02-.017.016-.003-.003 0-.013.006-.02.013-.017.008-.031-.013-.038-.011-.005-.017-.002-.024.014-.007.018-.008.019-.01.004a.076.076 0 01.01-.039c.012-.02.013-.024.002-.035a.131.131 0 01-.019-.038c-.004-.015-.016-.04-.024-.057-.013-.025-.02-.03-.051-.037-.035-.008-.038-.01-.052-.046-.01-.025-.018-.038-.027-.039-.011-.001-.012-.005-.006-.017.006-.011.005-.017-.004-.022a.025.025 0 01-.012-.019c0-.012-.004-.012-.025-.004-.017.006-.026.006-.03-.001-.003-.005-.012-.008-.02-.008-.01.002-.017-.003-.02-.014-.001-.01-.006-.018-.01-.019a.007.007 0 01-.006-.007c0-.003 0 0-.002.004 0 .006-.005.01-.01.01-.004 0-.012.002-.017.007-.012.013-.013-.001 0-.018.016-.023.012-.026-.01-.01-.01.01-.022.015-.025.014a.016.016 0 00-.011.005c-.004.003-.008.006-.01.006H5.8s-.006.006-.008.012a.147.147 0 01-.022.033c-.02.022-.02.022-.024.007-.007-.025-.017-.03-.037-.018-.016.01-.02.01-.025-.001a.092.092 0 01-.008-.033c-.001-.02 0-.025.02-.071.02-.046.022-.052.02-.066-.003-.01-.01-.014-.031-.016-.039-.002-.038-.002-.028-.013a.187.187 0 00.018-.037c.006-.014.012-.025.013-.023 0 .003.006-.005.011-.016a.356.356 0 01.02-.034c.017-.026.016-.03-.006-.027-.025.003-.036.012-.046.036-.006.018-.03.044-.032.037 0 0-.009-.002-.017.001-.023.01-.031-.006-.027-.05a.21.21 0 01.023-.085.269.269 0 01.024-.05.074.074 0 00.012-.026c.01-.026.032-.059.042-.059.003 0 .011-.005.018-.012.014-.014.039-.015.062-.002.011.007.012.007.018-.01.005-.016.007-.017.028-.016.013 0 .025.005.026.011.002.007.006.008.014.003.013-.009.02.022.008.043a.069.069 0 00-.008.032c0 .01-.001.021-.003.024-.002.008 0 .028.006.028 0 0 .009-.008.015-.019a.342.342 0 00.025-.095.183.183 0 01.008-.032c.007-.015.03-.047.034-.047 0 0 .013-.008.023-.019.01-.01.02-.019.023-.019 0 0 .01-.005.015-.01.006-.007.014-.012.018-.012.005 0 .009-.004.01-.013.002-.008.004-.011.005-.007.002.002.006.001.01-.003.002-.004.003-.008 0-.008s-.002-.003.004-.01c.006-.006.01-.014.009-.018a.13.13 0 01.02-.056c.005-.006.005-.002-.001.016-.008.022-.007.024.002.012a.089.089 0 00.013-.026c.002-.007.005-.011.01-.01.006 0 .013-.008.02-.02.009-.015.014-.02.022-.02.008 0 .01-.001.009-.006-.002-.004.005-.009.021-.012.02-.004.025-.007.024-.015 0-.019.024-.048.049-.059l.034-.018a.108.108 0 01.017-.01l.02-.007c.014-.004.015-.004.002.007a.11.11 0 01-.018.013c-.005 0-.014.022-.01.027 0 .003.01 0 .02-.009a.118.118 0 01.027-.016c.017-.004.049-.024.053-.035.003-.007.004-.007.004 0 0 .006.002.007.008.002.007-.005.009-.008.005-.008-.003 0-.003-.006 0-.014.004-.01.002-.01-.013.006-.014.016-.021.02-.032.018-.018-.003-.026-.022-.018-.041.005-.01.004-.016-.002-.016-.007-.001-.006-.003.006-.007a.035.035 0 00.02-.016c.003-.008 0-.011-.018-.01-.022.001-.05.016-.08.045-.013.012-.012.01.006-.01a.324.324 0 01.075-.06c.013-.009.025-.01.057-.008.035.004.043.002.062-.011a.227.227 0 01.043-.024c.02-.007.023-.01.032-.03.007-.018.007-.022-.004-.03-.01-.008-.01-.013-.005-.017.006-.005.007-.007.003-.007-.006-.002-.011-.005-.012-.007l-.01-.003c-.004-.001-.009-.005-.008-.009a.033.033 0 00-.005-.015.023.023 0 01.002-.02.154.154 0 00.002-.053l-.002-.042-.021.023c-.025.027-.047.038-.05.025 0-.005-.005-.007-.01-.005-.007.003-.006 0 .005-.024.013-.026.013-.027.002-.03-.007-.003-.011-.007-.01-.01.005-.01-.008-.022-.023-.02a.08.08 0 01-.026-.001c-.007-.003-.014-.001-.017.002a.207.207 0 00-.018.036.11.11 0 01-.026.045c-.013.014-.013.015-.008.022.006.009-.002.034-.015.054a.128.128 0 01-.032.026l-.025.016-.008.027c-.012.039-.016.046-.032.056-.011.007-.014.004-.016-.015a.07.07 0 01.001-.03c.026-.05.026-.05.005-.05-.01.001-.019-.002-.018-.005.001-.004-.001-.007-.005-.006-.004 0-.01-.007-.014-.015-.003-.008-.013-.013-.024-.013-.015 0-.017-.002-.012-.017.003-.01.002-.019-.003-.02-.009-.004-.002-.017.027-.05a.203.203 0 01.066-.056c.004 0 .008-.004.009-.007.002-.009.021-.022.033-.024.011-.001.068-.055.064-.061 0 0 .003-.003.01-.001.006 0 .01.005.011.008 0 .005.001.005.004-.002.002-.007.007-.01.015-.012a.08.08 0 00.023-.012l.013-.009-.002-.01c-.002-.009.002-.02.008-.02 0 0 .005 0 .008-.005.003-.004 0-.01-.004-.015l-.012-.008s.013-.003.03-.004c.026-.002.034-.005.037-.012.004-.01.005-.01.013 0 .002.006.003.013 0 .016-.002.003.001.003.007 0 .005-.001.009 0 .007.003-.002.003.002.01.009.013.02.01.01.036-.02.052-.008.005-.011.008-.012.015 0 .006-.004.01-.016.013-.01.004-.02.005-.023.003-.006-.004-.022.009-.03.021-.001.004.01.004.028.001.022-.004.031-.003.032.004.002.004.005.01.008.009.004 0 .005.002.003.005-.008.009.001.025.01.018.004-.003.007-.002.008.002 0 .003.006.008.012.01l.016.008c.01.007.012-.012.001-.026-.014-.018-.006-.024.01-.008.014.012.016.012.025.001.01-.01.011-.015.01-.028 0-.01-.002-.016-.005-.016s-.006-.004-.009-.01c-.003-.011-.003-.012.01-.023.012-.01.016-.007.022.015.003.014.015.016.02.003.004-.005.007-.006.007-.006s.01-.004.02-.014l.019-.017-.015-.003c-.008-.002-.014-.006-.013-.01.001-.005-.004-.01-.012-.01-.028-.006-.035-.027-.01-.031.006-.001.006-.002 0-.006-.007-.004-.007-.005 0-.006.006 0 .01-.004.01-.009.002-.004-.002-.005-.009-.001-.007.003-.009.002-.005-.004.006-.007.004-.008-.01-.007-.005 0-.008-.001-.006-.004.005-.01-.012-.017-.021-.01-.005.005-.01.002-.012-.008-.003-.008-.008-.015-.012-.015s-.005-.002-.002-.005c.008-.01-.006-.018-.025-.016-.01.002-.018.005-.02.01-.004.006-.005.007-.003 0 .001-.007-.003-.006-.02-.001-.028.01-.04.018-.047.035-.004.007-.002.012-.002.012.003 0 .003.002.001.006-.005.009-.006.009-.011 0-.002-.003-.001-.01.001-.015l.008-.013a.069.069 0 01.015-.014c.012-.009.012-.01-.002-.007-.02.003-.036.013-.055.035-.016.018-.017.019-.017.032 0 .01.005.015.02.015.012.002.018.004.015.006-.01.004-.018.016-.011.015 0 0-.003.006-.013.015-.008.008-.018.012-.018.012-.002-.003-.005 0-.008.008-.007.014-.015.018-.016.007 0-.008 0-.01.008-.016.007-.006.008-.009.005-.014-.004-.006-.007-.005-.017.004-.017.016-.018.016-.01 0 .004-.009.003-.012-.003-.011-.008 0-.005-.008.004-.014.006-.003.004-.034-.001-.033 0 0 .002-.006.01-.014.01-.01.017-.014.02-.012a.127.127 0 00.044-.031c.003-.005-.051.008-.06.015a.035.035 0 00-.012.019c-.006.017-.011.024-.024.033a.058.058 0 00-.02.02c-.008.014-.005.02.01.021 0 0 0 .003-.004.007-.003.004-.004.007 0 .006.007-.001-.006.012-.02.018a.032.032 0 00-.017.018c-.005.01-.007.01-.01.01-.003-.002-.002-.007.001-.011.003-.004.005-.011.004-.015a.007.007 0 01.003-.007s.007 0 .01-.002c.007-.001.007-.001.007-.01-.001-.014-.01-.014-.027-.002-.013.01-.015.012-.01.011.01-.001.008.005-.005.017-.015.015-.063.018-.068.007-.003-.01-.032-.001-.035.01-.001.001.005 0 .014-.004.01-.006.016-.006.016-.006l-.015.01a.037.037 0 00-.02.017.067.067 0 01-.012.017c-.003.002-.002 0 .001-.006.01-.013-.005-.016-.038-.007-.02.006-.025.006-.021 0a.04.04 0 01.013-.009c.013-.003.004-.01-.01-.006a.058.058 0 01-.026-.002.031.031 0 00-.026.002c-.008.004-.013.004-.012 0 0-.004-.001-.003-.006.002-.012.012-.016.012-.014 0 .001-.007 0-.008-.007 0a.086.086 0 01-.023.013.206.206 0 00-.059.03c-.008.008-.012.009-.02.007-.015-.004-.001-.016-.035-.005l-.013.002-.013.001-.01.002-.008.005c-.004.004-.011.008-.016.011a.398.398 0 00-.027.02c-.02.021-.039.044-.058.067l.004-.003c.005-.005 0 .004-.008.013a.022.022 0 01-.008.006l-.023.028.009-.006c.006-.005.007-.004.001.003a.686.686 0 00-.01.013.096.096 0 01-.02.017 2.892 2.892 0 00-.054.078c-.008.011-.007.012 0 .007.005-.003.009-.003.009 0 0 0 0 .002.003 0a.025.025 0 01.01-.007c.005-.002.004-.001-.007.012a.264.264 0 01-.03.031.506.506 0 00-.023.022c-.003.003-.005.003-.005.003l-.007.004-.006.01a.234.234 0 01.013-.01.205.205 0 00.026-.02c.008-.008.018-.015.018-.015l.006-.006a.502.502 0 00.04-.036c.01-.008.01-.009.007-.008-.006.002.004-.01.013-.016a.08.08 0 00.01-.01.14.14 0 01.036-.03c.004 0 .003 0-.002.004-.008.005-.032.03-.028.029l-.005.006c-.012.011 0 .006.013-.006a.1.1 0 01.018-.013c.003-.001.006-.004.01-.01.006-.01.009-.013.011-.006.001.003-.002.008.007.008.005 0-.003.017-.003.024 0 .008.005.008.014-.004.004-.004.002-.001-.004.007-.01.014-.023.044-.019.043 0 0 .019-.033.02-.038 0-.003.004-.005.004-.005l.007-.008c.002-.006.002-.006 0 0l-.005.013-.008.012v.006l.007-.01a.02.02 0 01.007-.008c.001.003-.01.022-.015.024-.003 0-.006.003-.009.007-.002.003-.002.004.001.002s.002.002-.002.01a.082.082 0 00-.008.022c0 .005.001.004.008-.007a.025.025 0 00.004-.009c-.002.002-.002-.002 0-.008.004-.011.005-.012.01-.013.003 0 .004 0 .001.003-.005.006-.009.033-.003.029.003-.002-.001.005-.01.018-.016.024-.016.03 0 .012.007-.007.006-.005-.003.008-.01.013-.011.015-.006.011.005-.003.005 0 .001.01l-.007.015c-.007.01-.009.016-.003.015.003-.001.004.002.002.006-.004.006-.007.005-.012-.003 0 0-.003 0-.005.003-.005.009.004.052.01.047.004-.002.006-.008.005-.014-.001-.012.004-.028.009-.029l-.001.006c-.002.003-.002.007 0 .009.005.004.004.014-.004.03-.005.013-.008.013-.018.003-.002-.002-.003-.002-.008.015a.31.31 0 01-.033.06c-.024.041-.05.082-.068.126 0 0-.002.008-.005.012-.008.015-.011.038-.006.033.003-.003.002 0-.002.006a.13.13 0 00-.013.04.273.273 0 01-.009.035c0 .003 0 .007.005.01.01.005.01.019-.003.067a.329.329 0 00-.012.061c0 .017 0 .02-.008.027-.01.01-.01.006-.001.043a.055.055 0 01-.003.024c-.006.012-.004.064.002.057.005-.006.008-.025.004-.028-.002-.002 0-.016.004-.032.005-.015.008-.032.008-.032l.004-.035a.387.387 0 00.004-.04c0-.004.004-.017.008-.03.01-.023.01-.023.015-.016.004.005.003.016-.002.034a.276.276 0 00-.008.063c0 .02 0 .037-.002.04v.043c.001.044-.003.077-.014.095a.073.073 0 00-.01.02.108.108 0 00.015.052l.01.015c.001.005.01.02.02.032.018.021.02.022.034.013.017-.01.021-.006.027.029.003.021.028.048.046.05.004 0 .007.005.006.007a.083.083 0 00.002.03.098.098 0 01-.001.04c-.003.01-.002.018-.002.018.012.004.02.018.016.029-.004.011-.004.011.01.016.004.001.01.01.014.017.007.016.017.018.018.004.001-.013.024-.037.027-.03a.16.16 0 01.003.039c-.001.033-.01.132-.026.138 0 0-.005.008-.005.02s-.003.02-.005.02c-.008-.001-.016.062-.01.084 0 .009.005.016.01.017.01 0 .01.02 0 .032-.012.016-.004.058.015.085.008.01.024.043.035.072.013.03.03.07.04.09.01.019.018.04.018.044 0 .012.03.049.063.077a.156.156 0 01.065.109c.01.056.022.113.025.171 0 .018.003.037.005.042.003.006.004.012.001.014-.002.002 0 .014.005.03.01.027.013.058.008.104a.098.098 0 00.006.051c.005.011.008.024.006.027a.087.087 0 00.003.031.278.278 0 01.006.035c0 .008.001.01.005.01.004-.001.004-.01.003-.018-.003-.01-.001-.016.003-.015.006 0 .01.017.016.052l.003.026c.003.015.001.018-.006.014-.006-.004-.013-.003-.017.002-.004.004-.004.008 0 .008.018 0 .024.009.031.045l-.01-.01c-.006-.005-.012-.007-.012-.007s.002.006.006.009c.004.004.008.012.01.023.004.015.005.016.007.008a.02.02 0 01.005-.01c.005.002.007.026.003.03-.002.003 0 .005.005.005s.012.007.025.027c.01.015.015.027.012.026 0 0-.002.003.001.007s.01.006.015.005c.006 0 .01 0 .01.004-.001.002.001.005.005.006.004 0 .006-.007.005-.016zm-.582-1.324a.031.031 0 00-.005-.013c-.002-.003-.003 0-.002.006 0 .007.005.013.005.013s.002-.002.002-.006zm-.32-.594s-.004.003-.006.01c-.003.009-.004.013-.002.011l.006-.01a.051.051 0 00.002-.011zm.72-1.216a.077.077 0 00.007.005c.007.006.03-.003.037-.014a.141.141 0 01.035-.027l.01-.006-.016.014-.016.015h.008c.011.002.012.004.001.007-.005.002-.01.006-.012.009-.001.003.01.002.026-.002.014-.004.026-.006.024-.003-.001.002-.008.005-.015.006A.098.098 0 006 7.389a.975.975 0 01-.016.009l.003.005c.002.003.008.005.013.004.005-.001.009 0 .008.005-.003.008.051-.01.068-.024.007-.005.013-.007.017-.004.012.007.048-.007.04-.017 0 0 .004-.004.01-.006a.151.151 0 00.011-.004l-.005-.006c-.003-.003-.008-.006-.012-.005-.004 0-.004-.007.001-.021.007-.019.009-.023.017-.03a.096.096 0 00.011-.012c.004-.006-.017 0-.024.008a.035.035 0 01-.013.009c-.007.002-.007.002-.013.016-.006.018-.014.022-.01.005.004-.013 0-.012-.016 0-.007.006-.01.007-.007.002.001-.005-.002-.005-.013 0-.012.006-.014.005-.01 0s.002-.006-.005-.003c-.006.003-.009.002-.004-.002.006-.007-.003-.014-.014-.01a.125.125 0 01-.021.005.086.086 0 00-.026.01.046.046 0 00-.012.01c0 .003-.006.01-.02.023l-.02.02zm.087-.092l.01-.002a.032.032 0 00.017-.008l.004-.002.01-.007c.009-.008.012-.01.01-.005-.005.007.017-.006.026-.017.011-.014-.02 0-.051.022l-.026.019zm.038-.008c.007-.005.008-.007.003-.005a.03.03 0 00-.012.008c-.008.009-.001.007.01-.003zm.043-.024c-.012.003-.018.007-.031.02l-.016.015.007-.002a.055.055 0 01.012-.002c.003 0 .01-.003.014-.007.004-.003.007-.002.007-.002 0 .004-.001.005-.006.007-.007.003-.008.003-.007.008 0 .003.008 0 .028-.01a.159.159 0 01.038-.017.065.065 0 00.036-.024c.003-.005 0-.004-.01 0s-.013.003-.01-.004c.003-.011 0-.012-.01-.002-.007.005-.008.008-.008.014 0 .008 0 .008-.01.011-.007.002-.013 0-.015-.003-.003-.003-.011-.004-.02-.002zm.02-.03s.003 0 .005-.002.002-.003-.001-.001c-.004 0-.005.004-.005.004zm.023 0a.061.061 0 00.02-.012c.003-.004-.001-.004-.01-.001a.045.045 0 00-.02.01c-.002.004.002.005.01.002zm.018-.021c.013-.005.018-.007.016-.01L6.18 7.19l-.016.01c-.013.006-.013.006.003.002zm.026.048c.007-.006.01-.01.004-.008-.003 0-.006.004-.007.007s0 .004.003.001zm.009.032c.004 0 .003.001-.002.006s-.009.007-.012.003c-.002-.002-.005-.002-.009.002-.003.004-.003.007.001.008.003 0 .008.006.012.011.003.007.007.008.01.004a.03.03 0 01.015-.01c.013-.003.025-.02.016-.023-.006-.002-.006-.003.004-.012.01-.008.011-.01.009-.012-.003-.002-.017.002-.034.009-.01.004-.018.016-.01.014zm.004-.058c0 .003.001.005.005.004s.006 0 .005.004c-.002.004.004.003.014-.002.013-.006.014-.006.007.003-.007.009-.006.01.002.008a.057.057 0 00.035-.03c.005-.01.003-.011-.01-.008-.01.003-.015.006-.015.01.001.006-.006.008-.009.002-.001-.004-.003-.003-.007.004-.006.008-.007.008-.01.003-.006-.007-.014-.006-.017.002zm.007-.017c.004-.001.005-.002.005-.006-.001-.006-.005-.005-.008.002-.001.003.003.004.003.004zm.028-.037c.008-.001.009-.002-.002.005-.007.005-.004.005.01.002.012-.003.02-.004.02 0-.003.006.01.003.015-.003.006-.01 0-.017-.01-.016l-.022.001c-.008 0-.013.003-.016.007-.002.004 0 .006.005.004zm.064.044c-.002-.006-.004-.005-.02.006l-.012.009.006.002c.011.008.03-.004.026-.017zm.01-.019c.007 0 .013.001.013.006a.022.022 0 01-.002.008s-.003.004-.004.01c-.002.006.01.004.06-.005a.47.47 0 00.075-.019.191.191 0 01.01-.006l-.003-.007c-.002-.005-.018-.003-.054.006-.044.011-.05.012-.052.004-.002-.005-.012-.01-.023-.009H6.31c-.003 0-.008.002-.01.005-.008.008-.001.011.015.007zm-.005-.028l.002.004s.006.002.015 0c.013-.005.014-.005.004-.005-.007 0-.007-.002-.002-.009.005-.006.005-.008 0-.007a.06.06 0 01-.015.001c-.004 0-.01.001-.011.005-.004.006 0 .012.007.011zm-.007-.031s.005 0 .008-.003c.003-.002.002-.003-.002-.001-.004 0-.006.004-.006.004zm.064.037l-.005.007c-.003.003 0 .005 0 .005l.004-.007c.002-.003 0-.005 0-.005zm.003-.006c.006-.002.007-.003.006-.007-.002-.007-.009-.005-.01.002-.002.003 0 .005.004.005zm-.007-.04c.012-.003.013-.003.004.002-.015.008-.015.012-.002.016.008.002.02-.001.054-.02.008-.003.01-.003.004.001-.01.01-.008.013.007.008.007-.002.011-.002.009.001-.003.003-.002.007-.002.007s-.007.004-.018.004c-.011.001-.018.004-.015.006.002.003 0 .006-.013.011-.035.016-.02.017.039.004.072-.016.08-.017.07-.022-.007-.003-.007-.003.003-.01a.042.042 0 00.013-.01c.002-.004.009-.008.016-.009a.062.062 0 00.025-.013c.011-.01.011-.01.004-.01-.012.002-.006-.008.006-.011a.409.409 0 00.082-.036.411.411 0 01.042-.02c.011-.004.019-.009.018-.012 0 0 .01-.008.026-.013a.093.093 0 00.032-.014c-.053-.02-.148.01-.198.026a.177.177 0 00-.044.02.03.03 0 01-.02.005.042.042 0 00-.022.006.153.153 0 01-.032.014c-.021.006-.029.012-.023.02.005.007.022.007.029-.001a.029.029 0 01.011-.009c.005 0 .004 0-.003.007-.006.005-.004.005.008.002.03-.008.047-.01.043-.005a.124.124 0 01-.035.01c-.022.005-.03.008-.032.013-.002.005-.003.006-.007.004-.002-.002-.01-.004-.01-.004l-.008-.001c-.009-.006-.025-.01-.03-.007-.02.005-.025.008-.027.013l-.01.008a.044.044 0 00-.013.01c-.007.011 0 .015.019.01zm.551-.198c-.002.006.023.005.026 0 .002-.004-.003-.006-.01-.005a.053.053 0 00-.016.005zm.474.46a.128.128 0 00-.039-.038s-.004.003-.005.007c0 .003-.014.008-.03.01a.105.105 0 00-.035.01c-.006.004-.011.001-.014-.007-.005-.008-.01-.01-.018-.007-.02.008-.025.02-.009.02.013-.001.015 0 .008.01-.006.01-.006.012 0 .012.009 0 .008.011 0 .017-.004.001.007.006.025.007.037.004.107-.01.117-.041zm-.245.202s.007-.004.009-.008c.002-.005.002-.008-.001-.007 0 0-.006.003-.009.007-.002.004-.002.008 0 .008zm-.008.116a.017.017 0 01.006-.015c.004-.003.006-.012.006-.019-.002-.017-.038-.016-.046 0-.003.007-.01.013-.016.013-.008 0-.013.005-.015.015-.002.009 0 .017.003.02.003.002.001.007-.007.016-.01.012-.012.014-.006.02.003.005.011.006.019.004.007-.004.02-.008.028-.01.016-.006.031-.03.028-.044zm.128.042c.012-.012.01-.028-.004-.028-.005 0-.012-.009-.014-.02-.002-.01-.008-.02-.013-.023-.004-.002-.009-.011-.01-.02 0-.007-.004-.016-.01-.018-.008-.005-.008-.006 0-.019.018-.024.016-.034-.004-.03-.02.003-.02.001-.006-.014.009-.01.008-.01-.005-.01a.038.038 0 00-.02.006.157.157 0 00-.018.032c-.01.02-.011.026-.006.022.006-.003.007 0 .003.012-.002.01-.003.013 0 .007.009-.018.014-.01.008.011-.007.02-.006.02.009.016.012-.004.016-.002.015.006-.001.006 0 .012.003.012 0 0 .002.005 0 .012-.003.006-.01.012-.017.012-.012 0-.013.002-.01.013.005.01.004.012-.006.016-.006.002-.012.008-.013.012 0 .004 0 .006.004.003.002-.001.012 0 .021.003.014.004.014.006.004.007a.065.065 0 00-.028.018c-.012.013-.014.016-.005.012a.175.175 0 01.04-.01l.046-.008a.31.31 0 00.023-.004c.005 0 .007-.005.005-.01 0-.004.003-.012.008-.018zm.136-.767c0 .004.004.008.008.008.002 0 .004.002.002.006-.003.01.026.019.038.01a.025.025 0 01.02 0c.008.003.006.005-.012.01-.02.005-.021.006-.01.011.008.003.01.005.003.006-.005 0 0 .006.012.014.018.011.02.011.024 0 .002-.006.006-.012.01-.012.002 0 .008-.006.012-.014s.01-.014.015-.014c.01 0 .024.015.022.023-.004.012.034.012.04 0 .003-.005.003-.007 0-.005 0 0-.013-.004-.025-.01a.19.19 0 00-.036-.02c-.008-.002-.016-.007-.017-.011 0-.003-.004-.004-.007-.002-.003.001-.007 0-.008-.004-.003-.009-.021-.012-.022-.004v.012c0 .002-.004.002-.007-.001-.01-.01-.065-.012-.062-.003zm.133 0c.014.003.029.007.033.01.01.005.058-.01.053-.017-.004-.006-.055-.015-.058-.01 0 0-.016.002-.032 0-.037-.004-.035.01.004.017zm.436.041c0 .01.003.011.023.004l.019-.006-.02-.002c-.012 0-.022.004-.022.004zm.073.284c0 .003.002.008.004.01.006.006.02 0 .019-.009-.002-.008-.021-.01-.023-.001zm.047-.05a.04.04 0 01.02.012c.004.006.017.01.03.012l.021.001a.93.93 0 00-.018-.015.079.079 0 01-.021-.025c-.003-.012.029-.057.039-.055.004 0 .006-.002.006-.006 0-.006.021-.011.069-.018.014-.002.025-.006.024-.01-.003-.007-.03-.01-.039-.005-.004.002-.016.003-.027.002-.033-.003-.073.01-.081.028-.004.008-.01.015-.013.015-.004 0-.005.004-.004.01.002.005 0 .01-.003.01s-.007.005-.008.013c-.002.008-.007.014-.01.013-.014-.001.002.016.015.018zm-.001-.213c.002.008.006.009.01.001.003-.005.002-.006-.004-.007-.005 0-.008.001-.006.006zm.024-.004c.004.008.03.01.031.003 0 0-.007-.005-.017-.007-.011-.002-.017 0-.014.004zm.048.007c.004 0 .01-.001.014-.003.006-.003.006-.004 0-.005-.004 0-.01 0-.014.003-.005.003-.005.004 0 .005zm.349.088c.01.002.017.004.015.007-.002.006.012.015.043.026.026.01.027.01.022-.002-.006-.011-.008-.014-.02-.019-.008-.003-.015-.007-.016-.011-.005-.015-.048-.032-.054-.02-.003.004 0 .009 0 .009s0 .003-.003.005c-.003.003 0 .004.013.005zm.09.06l.03.004a.219.219 0 00.028.003c0-.004-.009-.01-.02-.014a.044.044 0 01-.013-.01c-.002-.008-.016-.005-.02.006l-.004.011zm.177.116c-.003-.001-.004 0-.003.004a.032.032 0 00.008.008s.003-.002.003-.005a.011.011 0 00-.008-.007zm.23.07c.009.009.052.022.051.017-.001-.007-.007-.011-.03-.022A.35.35 0 019 7.361c-.002-.003-.008-.003-.008-.003-.005.002 0 .013.012.022zm.04.036c0 .003.001.005.007.01.011.008.02.01.014.004-.009-.01-.02-.018-.021-.014zm.027-.01a.076.076 0 00.02.011l-.012-.012-.007-.003c-.006-.003-.006-.002 0 .003zm.31.56c.001.003.003.002.003.002.002-.003 0-.008-.002-.008 0 0-.002.001 0 .005zm0 .133a.07.07 0 01-.015-.016c-.016-.025-.019-.026-.012-.007.01.023.013.037.01.037-.005-.001-.002.021.005.032.004.009.005.01.005.003 0-.006-.003-.009-.003-.009s-.004-.002-.004-.004c0-.008.008-.006.017.002.005.006.007.006.006-.003 0-.005.004-.009.004-.009.008.002-.002-.021-.012-.026zm.027.122a.104.104 0 00-.015-.043l-.014-.024s0 .003.003.008.003.006 0 .003c-.006-.005-.004.006.005.031.008.02.01.048.007.06-.003.008-.003.008-.008-.002-.003-.01-.004-.01-.002-.003.007.035.006.04-.006.039-.011-.002-.017.01-.02.04 0 .015.003.028.007.023.001-.003.003 0 .007.016.008.03.014.028.01 0-.003-.02-.004-.023-.01-.03-.008-.01-.009-.018-.002-.012.003.002.004.001.002-.002 0-.004 0-.007.004-.007.007-.001.009.005.004.012-.003.004-.002.01.001.017.005.01.006.01.006 0 0-.006.003-.009.005-.006.005.007.002-.009-.005-.02-.005-.01-.005-.01 0-.01.004 0 .007.004.01.012.004.017.011.017.008 0-.002-.01 0-.013.007-.013.005.001.009-.003.009-.007 0-.006 0-.007.004 0 .006.01.004-.002-.002-.023a.346.346 0 01-.015-.059zm.013.581c-.011-.004-.023-.03-.02-.048a.12.12 0 00-.005-.032c-.005-.017-.008-.02-.014-.022-.005 0-.008.003-.007.01l.006.026.002.02s0 .008.005.02c.005.01.01.015.01.015s.003.002.004.008c.002.008.005.012.008.011.003 0 .008.002.01.005.003.003.004.002.003-.003-.002-.005.002-.001.008.006.01.015.01.015.005.001-.003-.009-.008-.015-.014-.017zm.014.04l.006.006c.003.001.004 0 .002-.003-.003-.007-.009-.009-.008-.004zm.016.006c.004.007.005.012.004.014-.001.004 0 .008.004.017.006.01.006.01.004-.004-.004-.028-.007-.038-.013-.038-.004 0-.005.002 0 .011zm-.058.462c-.001.003.002.005.008.004.012-.003.014-.012.002-.011-.004 0-.01.004-.01.007zm.058-.422c0 .005.002.009.002.006 0 0 .003 0 .005.004s.004.006.004.003c0-.002-.002-.009-.005-.014-.006-.008-.007-.008-.006.001zm0 .01c-.005-.025-.01-.038-.017-.041-.005-.002-.005 0-.002.013.004.014.004.016.008.008.004-.009.004-.009.004.009 0 .014 0 .017.004.023.004.006.005.003.002-.012zm-.037-.06c.008.012.008.012.004-.002a.045.045 0 00-.009-.018c-.002-.003-.003 0-.003 0a.106.106 0 00.008.02zm-.004.07c.003-.015.002-.027.002-.027s-.004.011-.006.025c-.005.034-.001.036.004.002zm-.074-.375l-.004.003a.073.073 0 000 .024.087.087 0 00.01.035l.007.015v-.015a.286.286 0 00-.013-.062zm-.062-.661c-.003-.001.01.032.015.04a.868.868 0 01.031.072c.022.053.025.062.025.056 0-.003.003-.004.006 0 .005.004.004.002-.005-.012a.232.232 0 01-.014-.024c-.006-.014-.008-.03-.004-.03.004.002.003-.005-.005-.016a.537.537 0 01-.032-.065.148.148 0 00-.013-.025c-.008-.014-.01-.016-.007-.008.003.007.003.012.003.012zm.058 1.42s.004 0 .006-.002 0-.003-.003-.002c-.004 0-.005.003-.003.005zm-.033-.08c.006-.006.005-.01 0-.01 0 0-.005.005-.005.008.001.003.003.004.005.002zm-.018 0s.002-.007.002-.016c0-.016-.002-.018-.007-.01-.003.004 0 .027.005.026zm-.006.104l.024.003c.015.005.049.001.05-.005.001-.003-.004-.006-.01-.007-.007 0-.013-.005-.013-.011 0-.007-.004-.009-.019-.004-.013.004-.021.003-.024-.003-.006-.01-.024-.007-.029.004-.004.012.006.022.021.023zm-.078-.18c.001-.004-.002-.006-.002-.006s-.003.003-.003.007c0 .003.003.006.003.006l.002-.007zm.001.061s.004.001.005-.003l-.002-.01s-.003 0-.004.003l.001.01zm.014-.064a.077.077 0 00.003.025c.003.01.005.03.005.041 0 .029.022.084.03.08.006-.002.01-.01.017-.033.008-.028.008-.03 0-.055a.075.075 0 01-.006-.035.028.028 0 00-.001-.02.255.255 0 01-.011-.022c-.003-.006-.009-.01-.009-.01s-.01-.015-.017-.034c-.008-.019-.03-.035-.034-.035a.03.03 0 01-.013-.003c-.004-.001-.006 0-.006.005.001.004.02.026.028.048a.183.183 0 01.014.048zm.146.18l-.004.006.001.006.005-.007c0-.004-.002-.006-.002-.006zm.034-.14c0-.003.003-.01.007-.018a.114.114 0 00.012-.028c.003-.01.006-.017.011-.019.006-.003.011-.015.006-.014 0 0-.003-.01-.003-.024a.1.1 0 01.001-.024s.003-.004.003-.007a.01.01 0 01.001-.006s.004-.005.003-.01c-.002-.006 0-.01.002-.012.004 0 .004 0-.002-.007a.207.207 0 01-.014-.018c-.01-.015-.013-.012-.015.014-.002.013-.007.024-.007.024s-.005.009-.006.019a.126.126 0 01-.02.027.05.05 0 00-.015.021c-.001.009-.004.01-.011.009-.008-.002-.011 0-.014.008-.005.015-.01.052-.005.055 0 0 .002.011 0 .022-.001.016 0 .02.006.018.004 0 .007.001.006.004 0 .003.005.004.013.002.009-.002.014 0 .014.005 0 .006.002.006.008 0a.088.088 0 00.02-.04zm-.013.133c-.003-.001-.005 0-.005.004 0 .003-.004.004-.004.004s-.006.004-.008.009c-.003.007-.002.008.003.003a.035.035 0 01.011-.007c.007-.001.008-.01.003-.013zm0 .025l.004.008c.004.01.008.006.008-.005 0-.003-.003-.005-.006-.004H9.38zm.07-.038a.1.1 0 00-.028.036c-.003.012-.002.011.014-.01.007-.01.016-.019.016-.019l.007-.007c.003-.007-.001-.007-.009 0zm.031-.206c-.006.009-.022.012-.027.004-.002-.005-.018.021-.021.036a.062.062 0 01-.006.018.158.158 0 00-.014.058c.001.005 0 .014-.004.028-.005.015-.005.019-.002.016a.109.109 0 00.013-.034c.004-.016.01-.029.01-.029s.002.004.001.008a.127.127 0 00-.001.02c0 .01.001.012.005.006.006-.01.01-.01.004 0-.004.009-.005.017-.002.017.003-.001.007-.022.006-.03v-.026-.02l.011-.015c.01-.012.011-.015.007-.015a.04.04 0 00-.014.011c-.008.01-.009.01-.01 0a.044.044 0 01.001-.022c.003-.009.006-.01.02-.01.013 0 .017-.003.024-.013.008-.015.008-.021 0-.008zm0 .25l-.006.008c-.006.006-.006.007-.001.005.003 0 .006-.004.007-.007a.03.03 0 000-.005zm.004-.155c0-.004-.001-.005-.004-.005 0 0-.005.004-.005.007s.004.005.004.005l.005-.007zm-.022-.252c0-.003-.003-.002-.006.004a.04.04 0 00-.003.022c.001.007.002.008.003.003 0-.004.002-.01.006-.01.004-.003.006 0 .01.012.004.018.01.025.016.024.004-.001.004-.004 0-.015-.004-.01-.004-.012 0-.01.003.002.005.001.005-.002a.22.22 0 00-.019-.056l-.004.017c-.003.017-.005.02-.008.011zm.038.326a.036.036 0 00-.004.011c0 .004 0 .003.003-.002.003-.004.004-.01.004-.01s-.001-.002-.003.001zm-.007-.082c0 .003.005.003.005.003a.015.015 0 01.01 0c.004.003.005.002.006-.005 0-.006-.003-.008-.01-.006-.006.001-.011.005-.01.008zm.007-.053s.016-.046.015-.049l-.002.006c-.001.005-.002.004-.002-.003 0-.01 0-.01-.002-.003l-.01.049zm.025-.014l.004-.001s0-.004-.002-.003l-.002.004zm.158.098c0 .003.002.003.002.003v-.006c-.002-.003-.002-.002-.002.003zM9.91 9c0 1.325-1.1 2.398-2.457 2.398-1.357 0-2.457-1.073-2.457-2.398 0-1.324 1.1-2.397 2.457-2.397C8.81 6.603 9.91 7.676 9.91 9zm-.896-.785s-.002.003 0 .007c.001.004.005.008.007.008.003 0 .003-.003.001-.007s-.008-.008-.008-.008zm-.066-.463v.023c.002.027-.006.062-.015.069-.006.004-.006.004 0 .006.005.001.011-.004.015-.01.003-.008.009-.013.009-.013.006 0 .006-.032 0-.053a.334.334 0 00-.009-.022zm-.305.195c.004.002.01.002.012 0 .002-.001-.002-.003-.008-.004-.007 0-.009.001-.004.004zm.015-.658c.009.008.01.007.004 0-.006-.01-.019-.023-.015-.014 0 .002.006.009.011.014zm-.045.643l-.012.006c-.015.006-.018.013-.014.026.005.016.01.014.01-.003 0-.009.005-.015.011-.015.006 0 .009-.003.008-.007l-.003-.007zm.055.117c-.006 0-.011.002-.01.007 0 .004.004.008.01.008.005 0 .01-.003.01-.007s-.004-.008-.01-.008zm-.19-.738c0 .008.001.01.005.01 0 0 .005.006.006.01.002.007.005.008.005.008.002-.002 0-.01-.004-.02-.008-.02-.011-.022-.011-.008zm.206-.038s-.002.002 0 .006c.001.003.006.007.006.007v-.005l-.006-.008zm.018.629s0 .004.004.008l.013.008s0-.004-.005-.008c-.004-.004-.012-.008-.012-.008zm-2.154-.846c.006-.008.004-.007-.011.002l-.011.007.008-.001a.026.026 0 00.014-.008zm-.442.966c.014 0 .026-.004.032-.01.009-.01.011-.025.002-.016a.052.052 0 01-.023.008c-.03.006-.037.019-.011.018zm-.176-.514l-.019.018-.018.017.007-.001a.03.03 0 00.013-.009c.003-.004.01-.007.01-.007.003 0 0 .002-.004.007s0 .004.007-.004a.147.147 0 01.024-.016c.017-.007.022-.02.005-.013-.01.004-.012.004-.005-.001.014-.011-.004-.005-.035.011l-.024.013.02-.008.019-.007zm.04.362c-.008.008-.01.011-.004.01.003 0 .008-.005.011-.01l.005-.012-.012.012zm-.02-.053c-.005.01-.01.035-.006.03a.05.05 0 00.007-.02c.002-.009.001-.013 0-.01zm.047-.062l-.009.005a.025.025 0 00-.01.01c-.006.009-.009.028-.006.036.002.005 0 .016-.004.026-.006.014-.006.015.001.006a.165.165 0 00.019-.049l.009-.034zm-.034.014c-.01.012-.012.016-.01.02.001.001 0 .006-.003.01-.003.003-.005.008-.005.01 0 0 .005-.002.01-.012a.375.375 0 00.014-.03c.006-.013.005-.013-.006.002zm.026-.086s-.002.005-.008.01c-.006.007-.006.011-.006.011a.198.198 0 00.035-.037c.005-.01-.002-.006-.013.006l-.008.01zm-.052-.104c-.002-.003-.003-.002-.005.005-.001.006-.005.01-.02.022a.591.591 0 00-.018.013l.014-.002a.073.073 0 00.024-.009l.025-.02a.231.231 0 01.021-.013s.007-.004.01-.008c.01-.01-.003-.005-.02.008-.015.012-.026.013-.03.004zm.018.06a.048.048 0 00-.022.012c-.015.013-.015.013.012-.002.02-.011.02-.012.01-.01zm.142-.103c.004-.007-.004-.006-.011.002-.003.004-.003.01-.003.01.002.002.008-.003.014-.012zm-.084.43a.39.39 0 00-.051.098c0 .014.02-.01.035-.041a.119.119 0 01.034-.048c.024-.022.024-.023.026-.005.002.012 0 .016-.007.024a.075.075 0 00-.013.018c-.002.003 0 .002.005-.002.007-.007.009-.006.008.007l-.002.018.018-.027a.317.317 0 00.02-.033c0-.003.003 0 .005.006.005.018.016.001.012-.018-.002-.016-.012-.021-.014-.008-.001.004-.005.008-.005.008-.003 0-.003-.003-.001-.007.008-.016-.053-.008-.07.01zm0-.042c.01-.006.015-.007.012-.004-.007.01.002.017.023.017h.017l.006-.02c.004-.012.005-.02.002-.018-.004.002-.007 0-.007-.006-.002-.019-.015-.016-.053.01a.847.847 0 00-.04.03c-.008.008.025 0 .04-.01zm.048-.07c.005-.009.002-.015-.004-.01-.008.009-.01.018-.005.017.003 0 .007-.003.009-.006zm-.025.197c-.016.006-.023.018-.01.018a.173.173 0 00.063-.032c.008-.01.001-.008-.053.014zm.464-.307c.004 0 .01-.004.013-.007.007-.009.007-.009-.008 0-.01.005-.01.007-.005.007zm-.161.07s.006-.005.009-.01c.005-.012.002-.016-.006-.007-.006.006-.008.018-.003.018zm.105-.076s.004-.004.005-.008c.001-.005-.003-.008-.003-.008s-.004.004-.005.008c0 .004.003.008.003.008zm.06-.652c.002-.002 0-.004-.003-.002-.004 0-.004.003-.004.003l.006-.001zm-.304.339c.002-.004 0-.006 0-.006l-.005.007v.006l.005-.007zm.097 2.694c.003-.005.003-.012.003-.012-.004-.005-.012.008-.01.016 0 .003.004.001.007-.004zm.15-3.003c.012-.002.021-.01.016-.016-.004-.003-.005-.003-.007.003-.001.003-.007.008-.012.01-.008.004-.007.005.002.003zm-.17.692c-.004 0-.01.005-.014.01-.01.012-.007.013.007 0 .011-.008.011-.01.006-.01zm-.012-.34c.002.002.004.001.005-.003.003-.01-.006-.015-.01-.007-.002.004-.001.006-.001.006s.004.001.006.004zm.09-.14c-.005.002-.006.005-.006.005l.008-.001c.003-.003.002-.004-.002-.003zm.111-.038c.008 0 .015-.004.017-.007l.01-.008c.004-.002.002-.003-.004-.003-.007.001-.014 0-.016-.002s-.004-.002-.004.002c0 0-.004.008-.009.013-.005.006-.003.007.006.005zm.08.021a.057.057 0 00.011-.007c.003-.005-.009-.002-.014.004-.003.004-.001.005.004.003zm-.046.112a.082.082 0 01.015-.006c.005 0 .005-.001.002-.006-.007-.008-.013-.006-.019.006-.004.007-.003.01.002.006zm1.235.029s-.005.004-.004.008c0 .004.003.006.005.004.003-.002.004-.008.004-.008s-.003-.004-.005-.004zm.002-.164c-.004 0-.007.003-.007.007s.005.008.005.008l.007-.007c0-.005-.002-.008-.005-.008zm.254 2.03a.138.138 0 01.027-.004c.005-.001.008-.004.005-.006-.001-.002.004-.016.012-.03.013-.024.014-.028.005-.032-.018-.006-.044-.004-.05.006a.13.13 0 00-.01.04c-.006.028-.005.03.011.026zm-.21-1.856s-.002.003-.002.008c0 .004-.002.006-.006.004s-.008 0-.009.006c0 .007-.004.01-.006.007-.003-.002-.006 0-.008.004 0 .004.001.007.005.007.013 0 .03-.015.03-.027l-.004-.01zm-2.188.256l-.01.007c-.006.008-.004.007.007-.002.007-.006.008-.006.003-.005zm1.901-.168l-.009.015c0 .006.02-.003.024-.011.004-.011-.005-.014-.015-.004zm1.785.516s.002-.003.001-.007c0-.004-.004-.007-.004-.007s-.003.002-.002.006a.03.03 0 00.005.008zM7.71 7.48c-.001.004 0 .009.004.012.002.002.004 0 .004-.007-.001-.013-.004-.016-.008-.005zm.32 2.044c0-.01-.002-.018-.005-.02-.002-.002-.006.013-.006.034l-.002.05c0 .005.003.015.006.022.007.01.008.006.01-.024a.146.146 0 00-.001-.041.041.041 0 01-.003-.021zm.065-.39c0 .013.003.028.01.033.01.01.01.01.003 0a.104.104 0 01-.008-.033l-.005-.02v.02zm.01-.228c.004-.002.006-.006.006-.009 0 0-.003-.003-.007-.003-.003 0-.006.004-.006.009 0 .004.004.006.007.003zm-1.002.114l-.01-.002s.004.008.01.014.01.007.01.002-.004-.01-.01-.014zm-.002.037c-.003.004-.002.009.002.009a.01.01 0 00.009-.009c0-.005-.003-.008-.003-.008s-.006.003-.008.008zm.39-.201c-.022-.01-.023-.008-.012.014.007.015.032.015.032.001 0 0-.009-.01-.02-.015zm.929-1.56v.007c.002.004.007.008.007.008v-.007l-.007-.008zm-2.343 3.178c0 .003.004.006.004.006.002 0 .004-.002.002-.005a.013.013 0 00-.004-.006s-.002.002-.002.005zm-.043-.093c-.002 0-.002.002 0 .005a.043.043 0 00.008.008v-.006a.01.01 0 00-.008-.007zm-.118-.726a.033.033 0 00.014.014c.008.003.008.002 0-.01-.01-.014-.019-.018-.014-.004zm-.067-.729c-.007.008-.01.032-.004.033 0 0 .006-.004.01-.01.007-.013.001-.034-.006-.023zm-.19-.832l.003-.011s-.002-.001-.004.003c-.003.004-.004.011-.004.011s.003.001.005-.003zm-.003.763c-.005-.001-.006 0-.003.012.002.014.01.012.01-.003 0-.005-.003-.009-.007-.01zm.443 1.647c-.005.006-.005.006.004.005.005 0 .01-.005.01-.005 0-.008-.007-.008-.014 0zm.648-3.187c.003-.002.001-.004-.003-.004-.005 0-.007.003-.005.005.003.002.006 0 .008-.001zm.103 3.83c-.004 0-.004 0-.001.003.003.002.006.001.006.001s-.002-.003-.005-.003zm-.205-4.042l.001.006s.005 0 .007-.004-.002-.006-.002-.006c-.003 0-.006.004-.006.004zm.63-.099a.033.033 0 00.01-.006c.001-.005-.01-.003-.014.004-.002.003 0 .005.005.002zM9.252 8.85c.002.002.002-.001 0-.007-.006-.012-.009-.014-.006-.004 0 .004.003.009.006.01zM7.109 7.246c.004-.002.006-.006.006-.01-.001-.009-.003-.008-.008.004-.004.007-.003.01.002.006z" fill="#fff"/><path d="M13.996 9c0 2.882-2.342 5-5.313 5H6v-2h2.683c1.698 0 3.064-1.343 3.064-3 0-1.656-1.366-3-3.064-3H6V4h2.683c2.97 0 5.313 2.12 5.313 5z" fill="#fff"/><defs><linearGradient id="paint0_linear" x1="3.349" y1="3.122" x2="21.904" y2="24.434" gradientUnits="userSpaceOnUse"><stop stop-color="#1A1E21"/><stop offset="1" stop-color="#06060A"/></linearGradient><linearGradient id="paint1_linear" x1="3.349" y1="3.122" x2="21.904" y2="24.434" gradientUnits="userSpaceOnUse"><stop stop-color="#1A1E21"/><stop offset="1" stop-color="#06060A"/></linearGradient></defs></svg>