<!-- by TradingView --><svg width="18" height="18" fill="none" xmlns="http://www.w3.org/2000/svg"><path fill="#0F449C" d="M0 0h18v18H0z"/><path d="M7.373 11.293c4.413 2.68 6.73-3.183 1.813-4.717l-.06.078c1.154.552 2.12 1.9 1.87 3.197-.232 1.202-1.644 1.991-3.562 1.33l-.061.112z" fill="#fff"/><path d="M5 8.624L7.573 4c1.05.092 3.475.804 4.998 2.21 1.112 1.025 1.625 2.567 1.36 3.786l-.106.004c.152-2.181-2.28-4.624-5.719-4.908L5.13 8.655 5 8.624z" fill="#fff"/><path d="M3 11.658l1.355-.616c2.375 2.375 6.274 3.187 8.552 1.304L13 12.4c-.78 1.136-4.936 3.29-10-.741z" fill="#57BA00"/></svg>