<svg xmlns="http://www.w3.org/2000/svg" width="18" height="18" viewBox="0 0 18 18"><path fill="#f5f7fa" d="M0 11h18v7H0z"/><path fill="#4758a9" d="M0 5h18v7H0z"/><path fill="#ed5565" d="M10 6v4.2c0 2.6-3.5 3.4-3.5 3.4S3 12.8 3 10.2V6H0V0h18v6z"/><path fill="#fc0" d="M4.5 6.5h4V4.8l-.8.5L6.5 4 5.3 5.3l-.8-.5zM9 10.6L6.5 8 4 10.6l.8.9 1.7-1.8 1.7 1.8z"/><path fill="#fff" d="M9 8.2H7.8a.8.8 0 0 0-1.3-.8.8.8 0 1 0-1.3.7H4c0 .5.4.8.8.8 0 .4.3.8.7.8 0 .4.3.7.7.8l-.6 1.3a2.5 2.5 0 0 0 1.8 0l-.6-1.4a.8.8 0 0 0 .7-.7.8.8 0 0 0 .7-.8.8.8 0 0 0 .8-.8z"/></svg>