<!-- by TradingView --><svg width="18" height="18" fill="none" xmlns="http://www.w3.org/2000/svg"><path fill="#F0F3FA" d="M0 0h18v18H0z"/><path fill-rule="evenodd" clip-rule="evenodd" d="M6.972 4.128l-1.006.582 8.117 4.679V8.226l-7.11-4.098zm7.112 3.018v-1.16L8.922 3l-1.014.587 6.176 3.56zM4.03 5.831l1-.58 9.053 5.218v1.179L4.03 5.83z" fill="#90B628"/><path fill-rule="evenodd" clip-rule="evenodd" d="M14.084 6.341L4 12.176l1.021.59 9.063-5.222V6.34zm0 2.283l-8.128 4.684.966.559 7.162-4.128V8.624zm0 2.195l-6.227 3.589L8.881 15l5.203-3.01v-1.17z" fill="#038BC4"/></svg>