<!-- by TradingView --><svg width="18" height="18" fill="none" xmlns="http://www.w3.org/2000/svg"><path fill="#CC1B26" d="M0 0h18v18H0z"/><path d="M11.312 6.167c.09.019.177-.052.182-.151.022-.467-.003-1.611-.719-1.894-.927-.367-2.422.147-3.57.845C6.043 5.675 4.582 7.331 4 9.017c0 0 2.16-1.997 4.378-2.579 1.67-.438 2.585-.344 2.934-.271zM5.877 8.781a.149.149 0 00-.211-.09c-.384.205-1.288.777-1.161 1.55.164 1 1.314 2.084 2.44 2.77 1.14.693 3.185 1.197 4.82.904 0 0-2.662-.962-4.223-2.655-1.176-1.276-1.551-2.133-1.665-2.479zM10.975 12.476a.173.173 0 00.031.247c.367.256 1.307.81 1.894.285.761-.681 1.092-2.338 1.1-3.763.008-1.442-.604-3.643-1.678-5.037 0 0 .537 3.025-.1 5.39-.48 1.783-1.013 2.59-1.247 2.878z" fill="#fff"/></svg>