<!-- by TradingView --><svg width="18" height="18" fill="none" xmlns="http://www.w3.org/2000/svg"><path fill="#752388" d="M0 0h18v18H0z"/><path fill-rule="evenodd" clip-rule="evenodd" d="M9 14l1.448-1.541V11L9 14zm2-1.865l2.24-2.368-2.988.324v.47H11v1.574zm2.24-2.368l.159-.16h-3.147v.484l2.989-.324zm.756-.769l-.177-.186h-3.567v.186h3.744zm-.177-.186l-.79-.795h-2.777v.795h3.567zm-1.32-1.377L10.252 5.35v2.086H12.5zM9.766 4.728l-.803-.732v3.44h.803V4.727zm-.803-.732l-.187.189v3.25h.187V3.996zm-.187.189L8 4.995v2.44h.776v-3.25zM7.44 5.615l-1.934 1.82h1.934v-1.82zm-2.255 2.19l-.756.762h3.01v-.762H5.185zm-.756.762L4 8.998h3.439v-.431H4.428zm-.1.744l.435.456h2.676v-.456H4.328zm.435.456l.756.794h1.92v-.794H4.763zM5.84 11l1.599 1.381V11h-1.6zm1.838 1.705L9 14l1.448-3h-2.77v1.705zM9 8v.998h.766V8H9zm.766 2.561H9v-.953h.766v.953zm-.99 0H8v-.953h.776v.953zM8 8.981V8h.776v.998L8 8.981z" fill="#fff"/></svg>