<!-- by TradingView --><svg width="18" height="18" fill="none" xmlns="http://www.w3.org/2000/svg"><path fill="#B82C35" d="M0 0h18v18H0z"/><path d="M6.967 7.004a.92.92 0 01-.162.027c-.15.018-.248.038-.492.096-.131.032-.563.161-.672.202-.492.183-1.03.42-1.08.473-.017.018-.016.022.01.022.015 0 .078-.01.139-.024.17-.037.253-.045.61-.059.48-.017 1.147.029 1.45.1.23.055.488.126.549.15.02.01.073.028.12.045.14.048.554.215.604.242.034.019.35.165.401.185a22.852 22.852 0 001.44.59c.056.02.136.046.178.06.089.03.102.035.331.108.23.07.478.136.675.178.81.17 1.263.167 2.153-.017a4.75 4.75 0 00.493-.123 4.93 4.93 0 00.609-.239l.073-.04a5.402 5.402 0 001.496-1.237.662.662 0 00.108-.164c0-.038-.011-.032-.238.13a7.444 7.444 0 01-.69.433 5.034 5.034 0 01-.873.304c-.098.027-.436.08-.661.105-.265.028-1.004.028-1.33 0a7.688 7.688 0 01-.767-.105 3.978 3.978 0 01-.57-.173c-.373-.136-1.035-.416-1.107-.466a.114.114 0 00-.04-.017.19.19 0 01-.06-.024c-.138-.074-.93-.402-1.15-.476-.243-.08-.528-.165-.738-.219a1.785 1.785 0 00-.52-.067 2.328 2.328 0 00-.29 0z" fill="#fff"/><path d="M4.702 8.332a.651.651 0 01-.141.018 3.827 3.827 0 00-.633.12c-.33.1-.483.167-.774.335a5.705 5.705 0 00-.639.446c-.214.172-.515.456-.515.485 0 .03.003.03.089-.012l.108-.052c.062-.029.272-.113.33-.13.032-.008.133-.04.226-.067.32-.098.571-.14 1.062-.179.165-.013.705.032.929.078a13.607 13.607 0 011.301.369c.024.006.093.03.155.05.062.02.132.044.155.05l.12.043.144.052c.127.042.313.11.34.124.016.007.18.073.367.145.185.07.357.14.38.15.057.029.128.057.204.084.083.029.2.07.281.1a8.357 8.357 0 00.837.246c.535.115.936.17 1.493.203a4.17 4.17 0 001.587-.187c.187-.059.438-.157.512-.2l.074-.04c.48-.26 1.111-.686 1.111-.748 0-.03-.046-.027-.11.005a3.667 3.667 0 01-.744.25c-.415.085-.964.107-1.622.063a7.865 7.865 0 01-1.288-.172 13.33 13.33 0 01-.436-.126 23.87 23.87 0 00-.415-.126c-.044-.014-.086-.029-.288-.101a4.895 4.895 0 00-.113-.04c-.038-.014-.24-.095-.45-.179l-.421-.17a5.374 5.374 0 01-.29-.125 3.546 3.546 0 00-.176-.075 5.288 5.288 0 01-.178-.078c-.03-.013-.078-.033-.106-.047a6.125 6.125 0 00-.61-.236c-.765-.262-.981-.31-1.519-.324a4.271 4.271 0 00-.337-.002z" fill="#fff"/></svg>