<!-- by TradingView --><svg width="18" height="18" fill="none" xmlns="http://www.w3.org/2000/svg"><path fill="#F0F3FA" d="M0 0h18v18H0z"/><path d="M7 4.316L9 3v2H7v-.684zm0 9.368L9 15v-2H7v.684z" fill="#062E47"/><path d="M11 4.316L9 3v2h2v-.684zm.001 9.368l-2 1.316v-2h2v.684z" fill="#8A724E"/><path d="M7 5h1.5v1.695L7 7.177V9H6V6.695l1-.515V5z" fill="#062E47"/><path d="M11 5H9.5v1.695l1.5.468V9h1V6.695l-1-.515V5z" fill="#8A724E"/><path d="M7 13h1.5v-1.695l-1.5-.73V9H6v2.305l1 .509V13z" fill="#062E47"/><path d="M11 13H9.5v-1.695l1.5-.73V9h1v2.305l-1 .477V13z" fill="#8A724E"/><ellipse cx="8.998" cy="9" rx=".998" ry="1" fill="#062E47"/></svg>