<!-- by TradingView --><svg width="18" height="18" fill="none" xmlns="http://www.w3.org/2000/svg"><path fill="#006FBA" d="M0 0h18v18H0z"/><path d="M10.742 6.43a1733.93 1733.93 0 00-3.534 1.434.463.463 0 00.028.09c.034.092.07.243.081.342l.008.064H15l-.006-.238a8.696 8.696 0 00-.348-2.15c-.114-.391-.327-.968-.36-.972-.008-.002-1.603.642-3.544 1.43zM7.312 8.682a1.722 1.722 0 01-.038.191.33.33 0 00-.018.102c.012.01 6.019 2.444 6.023 2.44.008-.008.121-.31.165-.443a7.936 7.936 0 00.4-2.211l.007-.176H7.325l-.013.097zM3.605 9.322c-.33.135-.602.247-.604.25-.012.01.177.364.255.48.085.125.229.307.28.353l.027.024.943-.923-.037-.044a1.764 1.764 0 01-.19-.292c-.026-.051-.055-.094-.062-.093-.006 0-.282.111-.612.245zM7.115 9.252c-.023.04-.073.115-.112.165l-.07.091 1.956 1.915a456.81 456.81 0 001.963 1.916 7.038 7.038 0 00.996-1.272c.18-.292.436-.795.416-.815-.006-.006-4.946-2.014-5.095-2.07-.006-.003-.031.029-.054.07zM3.935 10.372a61.73 61.73 0 00-.717.709c0 .01.21.184.334.274.066.048.183.125.26.172.144.086.394.214.403.205.008-.008.778-1.831.778-1.842 0-.007-.035-.031-.076-.054a2.065 2.065 0 01-.162-.105.74.74 0 00-.094-.062c-.004 0-.33.316-.726.703zM6.675 9.735c-.049.036-.12.083-.16.105-.056.03-.07.042-.067.059a2180.019 2180.019 0 001.728 4.092c.008.021.042.01.247-.09a6.295 6.295 0 001.494-1.005l.083-.078-1.608-1.574A143.293 143.293 0 006.773 9.67c-.005 0-.05.03-.098.065zM5.196 9.999c-.009.018-.25.587-.536 1.265l-.521 1.231.027.013c.061.027.354.116.495.15.266.064.585.11.862.122l.086.004v-2.736l-.049-.006a1.971 1.971 0 01-.286-.056l-.063-.019-.015.032zM6.178 9.983a2.665 2.665 0 01-.3.059l-.05.006v3.621l.165-.006a5.325 5.325 0 001.616-.33l.036-.015-.02-.049c-.075-.185-1.393-3.29-1.398-3.295-.004-.004-.026 0-.049.009z" fill="#fff"/></svg>