<!-- by TradingView --><svg width="18" height="18" fill="none" xmlns="http://www.w3.org/2000/svg"><path fill="#102E87" d="M0 0h18v18H0z"/><circle cx="9" cy="9" r="9" fill="#102E87"/><path d="M5.173 6.735l7.684.008.308.527v3.466l-.285.505H5.172l-.361-.609V7.385l.362-.65z" fill="#fff"/><path d="M6.475 5h5.069c.231.018.462.222.572.422.283.496.611 1.078.885 1.58H5.022s.598-1.084.85-1.536c.12-.21.348-.452.603-.466z" fill="#FDB314"/><path d="M7.096 7.16c.329.027.775.157.783.553v.672h-.623v-.563c-.008-.161-.14-.24-.311-.24-.157 0-.316.059-.316.24v2.348c.007.156.137.246.31.253.142 0 .317-.064.317-.208v-.6H7v-.611h.88v1.289c-.016.31-.308.472-.589.523a2.098 2.098 0 01-.5.026c-.273-.02-.635-.103-.745-.387a.633.633 0 01-.041-.245V7.747c-.013-.531.685-.624 1.09-.587zM10.685 7.19c.219-.043.446-.048.667-.013.301.046.636.203.644.546v.662h-.625v-.573c-.008-.144-.169-.226-.31-.233-.16.007-.309.107-.316.26v2.326c.007.151.134.246.303.254.144 0 .314-.055.322-.2v-.911h.626v.972c-.013.527-.713.586-1.107.56-.343-.031-.76-.176-.768-.576V7.73c.007-.314.284-.477.564-.541z" fill="#102E87"/><path d="M12.6 7.154h.498s.514.907.755 1.327c.04.067.07.14.1.213.007.03.018.06.025.09l.008.043c.021.102.016.21 0 .316l-.018.073c-.008.03-.018.06-.029.09a.052.052 0 01-.005.018 1.035 1.035 0 00-.034.081c-.052.114-.118.22-.175.33-.102.176-.199.357-.298.533-.102.176-.217.405-.32.578H12.6V7.154zM4.938 7.154H5.4v3.692h-.462l-.772-1.319C4.07 9.36 3.99 9.173 4 8.975a.79.79 0 01.058-.308c.008-.022.019-.04.027-.062.058-.12.132-.23.198-.344.21-.348.448-.761.654-1.107z" fill="#FDB314"/><path d="M9.507 7.28a2.392 2.392 0 00-.663-.067h-.749v3.575h.635V9.454s.508.013.708-.03c.357-.072.556-.378.562-.713v-.785c0-.316-.163-.556-.493-.646zm-.142.719v.782c0 .273-.465.22-.635.22V7.658c.411 0 .635-.016.635.34z" fill="#102E87"/><path d="M5.03 11h8c-.153.277-1.036 1.778-1.036 1.778-.145.197-.388.218-.476.218-.088 0-3.283.004-4.9.004-.295.01-.584-.18-.751-.428C5.59 12.06 5.03 11 5.03 11z" fill="#FDB314"/></svg>