<!-- by TradingView --><svg width="18" height="18" fill="none" xmlns="http://www.w3.org/2000/svg"><path fill="#F0F3FA" d="M0 0h18v18H0z"/><path d="M9 13l-2.216-2.37-1.045.937L7.999 14h2.997l1.008-1H9z" fill="#07519C"/><path d="M7.209 8.297L4.96 5.91l-.96.904 2.224 2.433 2.478.19 1.045-.882-2.54-.257z" fill="#0EB4E0"/><path d="M9.918 6.634l-1.99-2.146-.877.885L9.007 7.46l.911-.826z" fill="#DBDFE0"/><path d="M7.928 4.488L5.484 4l-.887.982 2.456.393.875-.887z" fill="#C0C5C8"/><path d="M4 6.813l.584-1.853.912-.938-.533 1.885L4 6.813zM5.741 11.566l.485-2.32.804.062-.245 1.323-1.044.935zM11 13v-1h1v1h-1z" fill="#C0C5C8"/><path d="M11 12L8.705 9.432l1.033-.881L12 10.999h2L13 12h-2z" fill="#EE353F"/><path d="M14 9v2h-1V9.742L14 9zM11.995 6.969L9.91 6.627l-.9.829 2.108.294.877-.781z" fill="#C0C5C8"/><path d="M9.008 7.456l.905-.83-.095.956-.81-.126z" fill="#A8B0B2"/><path d="M9.744 8.556l-.848-.089.11-1.014.814.111-.076.992z" fill="#C0C5C8"/><path d="M14 9l-2.001-2.033-.883.784 1.88 1.993L14 9z" fill="#DBDFE0"/></svg>