<!-- by TradingView --><svg width="18" height="18" fill="none" xmlns="http://www.w3.org/2000/svg"><path fill="#012D63" d="M0 0h18v18H0z"/><path d="M12.4 8.168l1.027-1.108-3.418-.47-1.018-.253-.757-.432-1.28-.788-.444-.305-.835-.356-.966-.407-.105-.203-.026-.228-.183-.178h-.26l-.184.127-.078.28.209.33.078.99.372.763.673 1.372.94 1.627-.13.864.077.737.183.788.47.584.47.28.288.61.417-.128-.444-1.321.784.534 1.044.355 1.489.178 1.592.229 1.645.356 1.201.356-.757-1.347-.888-1.093-1.645-1.525.458-1.218z" fill="#012D63"/><path d="M10.481 9.126a1.607 1.607 0 11-3.214 0 1.607 1.607 0 013.214 0z" stroke="#fff" stroke-width=".5"/><path d="M8.483 7.902l.54.78.926-.274-.595.742.553.772-.909-.322-.583.751.033-.94-.914-.309.93-.26.019-.94z" fill="#fff"/><path d="M6.578 9.598S4.465 6.166 4.277 5.452c0 0-.255-.663-.204-1.26 0 0-.205-.166-.188-.398 0 0 .034-.365.358-.381 0 0 .34.016.358.265v.315s1.738.696 2.3 1.061c0 0 1.04.614 1.227.747.188.132 1.015.754 1.96.796l3.34.464s-1.432 1.244-1.517 2.438c0 0 2.368 1.492 3.39 3.914 0 0-1.567-.697-4.123-.962l-1.738-.216s-1.073-.232-1.482-.613c0 0-.784-.68-1.704-.498m-.119-2.189s-.591 2.485 1.145 3.343" stroke="#fff" stroke-width=".5"/><path d="M7.332 11.284l.626 1.4-.443.149-.775-1.68" stroke="#fff" stroke-width=".5"/></svg>