<!-- by TradingView --><svg width="18" height="18" fill="none" xmlns="http://www.w3.org/2000/svg"><path fill="#7AC142" d="M0 0h18v18H0z"/><path d="M14 9c0 1.293-.237 2.398-1.01 3.327C12.063 13.442 10.762 14 9.088 14c-1.615 0-2.894-.524-3.839-1.572C4.416 11.508 4 10.413 4 9.146c0-1.25.418-2.575 1.268-3.53C6.23 4.543 7.492 4 9.055 4c1.09 0 2.043.264 2.86.78.815.515 1.675 1.53 2.085 3.233L11.995 8a2.752 2.752 0 00-1.446-1.991c-.412-.211-.91-.317-1.494-.317-1.048 0-1.876.342-2.486 1.027-.54.6-.804 1.535-.804 2.363 0 .862.287 1.602.862 2.218.636.676 1.473 1.014 2.512 1.014 1.155 0 2.302-.556 2.782-1.647H8V9h6z" fill="#F6F8FD"/></svg>