<!-- by TradingView --><svg width="18" height="18" fill="none" xmlns="http://www.w3.org/2000/svg"><path fill="#F0F3FA" d="M0 0h18v18H0z"/><path d="M13.429 9.002a4.431 4.431 0 01-4.43 4.433 4.431 4.431 0 01-4.43-4.433 4.431 4.431 0 014.43-4.433v.535a3.897 3.897 0 00-3.896 3.898A3.897 3.897 0 009 12.9a3.897 3.897 0 003.895-3.898c0-.098.006-.17-.001-.267h.536c.006.097 0 .169 0 .267z" fill="#1CA7DD"/><path d="M13.997 9.002A5 5 0 019 14.004 5 5 0 014 9.002a5 5 0 016.608-4.737l-.032-.006-.207.526a4.431 4.431 0 00-5.8 4.217 4.431 4.431 0 004.43 4.433 4.431 4.431 0 004.421-4.734h.577c.006.1 0 .2 0 .301z" fill="#1580C0"/><path d="M13.562 11.046a5.022 5.022 0 01-1.806 2.129l-.317-.473a4.45 4.45 0 001.596-1.872l.527.216z" fill="#FEC940"/><path d="M12.895 9.002A3.901 3.901 0 018.99 12.9a3.901 3.901 0 01-3.905-3.898 3.901 3.901 0 013.905-3.898 3.89 3.89 0 012.063.588l-.366.587A3.216 3.216 0 005.776 9.01a3.216 3.216 0 106.43 0c0-.114-.011-.174-.022-.285l.008.009h.685c.009.105.018.16.018.267z" fill="#1C2845"/><path d="M5.801 12.088a4.431 4.431 0 016.297-6.236 27.01 27.01 0 00-.516.538l-.679-.544.087-.13c-.598-.373-1.252-.612-2.008-.612-2.152 0-3.801 1.762-3.801 3.915 0 1.053.374 1.947 1.051 2.648l-.43.421z" fill="#FEC942"/><path d="M12.895 9.002A3.901 3.901 0 018.99 12.9v-.672a3.216 3.216 0 003.215-3.217c0-.114.01-.157 0-.268h.689c.008.106 0 .152 0 .26zM8.99 5.104a3.89 3.89 0 012.065.588l-.366.587a3.216 3.216 0 00-4.84 2.05l-.672-.163A3.904 3.904 0 018.99 5.104z" fill="#E52045"/><path fill-rule="evenodd" clip-rule="evenodd" d="M8.999 12.245c1.79 0 3.24-1.448 3.24-3.234A3.237 3.237 0 009 5.777a3.237 3.237 0 00-3.24 3.234 3.237 3.237 0 003.24 3.234zm0-.397a2.854 2.854 0 002.86-2.846A2.854 2.854 0 009 6.156a2.854 2.854 0 00-2.862 2.846A2.854 2.854 0 009 11.848z" fill="#1C2845"/><path d="M5.758 9.01a3.237 3.237 0 003.24 3.235 3.23 3.23 0 001.698-.479l-.215-.329a2.86 2.86 0 01-1.482.411 2.854 2.854 0 01-2.862-2.846c0-.511.136-.99.373-1.406l-.316-.207a3.214 3.214 0 00-.436 1.622z" fill="#1CA6DF"/><path d="M9.033 11.865c1.58 0 2.887-1.273 2.887-2.854 0-.105-.031-.217-.042-.32h-.714a2.164 2.164 0 01-2.14 2.484H9v.69h.033zM8.955 6.14C7.411 6.18 6.12 7.42 6.12 8.976l.741.035c0-1.173.932-2.127 2.094-2.164V6.14zM7.085 9.971c.24.484.656.866 1.164 1.061l-.242.644c-.679-.26-1.261-.765-1.577-1.415l.655-.29z" fill="#1874AD"/><path d="M10.567 9.382c.07-.235.029-.558 0-.69l3.404.008c.042.104.026.498.009.682h-3.413z" fill="#1580C0"/></svg>