<!-- by TradingView --><svg width="18" height="18" fill="none" xmlns="http://www.w3.org/2000/svg"><path fill="#00529B" d="M0 0h18v18H0z"/><path d="M5.152 4.504h7.695c.912 0 1.649.7 1.649 1.566v5.867c0 .864-.737 1.564-1.649 1.564H5.152c-.91 0-1.648-.7-1.648-1.564V6.07c-.002-.865.737-1.566 1.648-1.566z" fill="#00529B" stroke="#1FB25A" stroke-miterlimit="3.864"/><path fill-rule="evenodd" clip-rule="evenodd" d="M10.972 6.083c-.842-.76-2.462-.153-2.462-.153C6.46 6.62 5.89 7.844 5.89 7.844c-.402.852.427 1.072.804.967 3.578-1.002 4.239-1.784 4.239-1.784-1.32.387-1.93.352-1.828-.106.04-.128.181-.245.181-.245.136-.082.338.07.338.07.135.063 1.347-.094 1.347-.094.421-.063.556.106.556.106.084.18-.167.426-.167.426l-3.41 3.948 2.192-1.726c1.14-.892 2.151-1.47 2.151-1.47.222-.122.233.07.103.163-.66.724-1.23 1.588-1.23 1.588-.136.257-1.089 1.447-1.089 1.447l3.188-2.508.13.14c-1.412 1.021-4.9 4.014-4.9 4.014-.064.063-.22 0-.22 0-.125-.087.024-.21.024-.21.842-.905 1.866-2.298 1.866-2.298.44-.614 1.27-1.541 1.27-1.541-.693.454-2.475 1.878-2.475 1.878a42.447 42.447 0 01-2.035 1.506c-.124.058-.318.082-.318.082-.292-.007-.02-.234-.02-.234 1.056-1.01 1.607-1.773 1.607-1.773.745-.956 2.165-2.415 2.165-2.415-5.145 2.916-5.652 1.389-5.652 1.389-.545-1.33 1.206-2.356 1.206-2.356 2.67-1.761 4.938-1.61 4.938-1.61.621 0 .686.363.686.363.04.28-.025.572-.025.572-.166.329-.541-.05-.541-.05z" fill="#fff"/></svg>