<!-- by TradingView --><svg width="18" height="18" fill="none" xmlns="http://www.w3.org/2000/svg"><path fill="#F6343F" d="M0 0h18v18H0z"/><path d="M5.915 3.998l.023-.03A3.644 3.644 0 005.009 6.6v4.785-.021c-.068.96.25 1.905.884 2.638l-.008-.008c1.376 1.343 3.801 1.339 5.173 0 .636-.735.942-1.508.942-2.638V9.194a.206.206 0 00-.065-.14.218.218 0 00-.147-.058h-2.57a.225.225 0 00-.148.058.213.213 0 00-.07.14v1.344a.215.215 0 00.219.205h.321v.613c0 .34-.084.666-.287.938l.008-.007c-.354.43-1.15.452-1.51.014a1.385 1.385 0 01-.303-.93V6.629v.007c-.027-.653.39-1.275 1.08-1.275 1.119 0 1.012 1.3 1.012 2.023v.44c.008.102.098.175.204.175h2.047c.105 0 .196-.073.204-.176v-.461.014c.005-1.87-.28-2.652-.937-3.378h.008c-1.368-1.324-3.78-1.337-5.15 0z" fill="#fff"/></svg>