<!-- by TradingView --><svg width="18" height="18" fill="none" xmlns="http://www.w3.org/2000/svg"><path fill="#F0F3FA" d="M0 0h18v18H0z"/><circle cx="8.986" cy="9.027" r="3.716" fill="#FFE59E"/><path d="M13.896 9.347a6.191 6.191 0 01-.76-.023l.003-.094c-.03 2.269-1.877 3.95-4.153 3.95a4.153 4.153 0 01-4.142-3.857c-.21.093-.495.254-.733.177.252 2.48 2.33 4.336 4.875 4.336 2.622 0 4.765-1.903 4.91-4.489zM13.657 7.376c-.284.13-.615.14-.815.106a4.154 4.154 0 00-7.69-.051l-.828-.083a4.92 4.92 0 019.333.028z" fill="#5D9731"/><path d="M6.503 10.437c-.13.01-.244.028-.4.06-.186.037-.256.054-.256.063 0 .009.006.008.072-.008a5.59 5.59 0 01.422-.082c.051-.007.18-.02.212-.02.024 0 .036-.004.032-.011a.231.231 0 00-.082-.002zM6.546 10.545a2.45 2.45 0 00-.419.059c-.108.022-.13.029-.12.037a.864.864 0 00.09-.017c.143-.03.273-.05.363-.056l.051-.004.093-.005a.704.704 0 00.08-.005c0-.014-.02-.015-.138-.009zM6.53 10.578a2.898 2.898 0 00-.528.093c-.003.004-.007.006-.012.004-.012-.005-.058.007-.062.016-.006.01-.003.01.04 0 .125-.032.366-.077.46-.086.072-.008.077-.008.077-.015 0-.004.004-.007.009-.007.005 0 .008.003.008.007 0 .006.003.007.013.004a.285.285 0 01.039-.002c.022 0 .025-.001.025-.009 0-.007-.003-.008-.024-.007-.014 0-.034 0-.044.002zM6.728 10.757c-.145.011-.338.042-.528.085-.076.017-.09.02-.091.027-.002.005 0 .005.008.003a3.633 3.633 0 00.256-.052c.017 0 .05-.005.105-.014.065-.011.174-.026.192-.026.008 0 .015-.002.015-.005s.005-.004.014-.002a.53.53 0 00.066 0c.05-.003.052-.003.052-.012 0-.011.007-.011-.09-.004zM13.19 10.106c0 .008-.002.011-.005.009s-.003-.001-.002.002c.005.007-.001.05-.006.044-.002-.001-.004-.008-.005-.014s-.002.001 0 .015c0 .022 0 .024-.004.012l-.006-.014c-.002 0-.002.007 0 .014.002.013.002.013-.003.005-.004-.005-.005-.014-.004-.023.001-.01.003-.012.006-.008.001.003.002-.003 0-.014-.001-.015 0-.017.004-.012.004.005.004.005.002-.002a.06.06 0 01-.002-.012c0-.011-.009.009-.015.035a.98.98 0 00-.022.136c.001 0 .012 0 .024-.004.023-.006.023-.006.025-.023 0-.01.005-.047.01-.085a.519.519 0 00.003-.06zM13.24 10.1c.007.002.007.018 0 .016-.002 0-.005.003-.006.008l-.001.008.004-.008c.004-.008.004-.007.004.003 0 .007-.002.013-.006.014-.004.002-.006.009-.006.017a.047.047 0 01-.005.02c-.006.01-.005-.013.002-.042.006-.021.006-.032 0-.027a2.008 2.008 0 00-.023.142c0 .005.003.008.01.008.016 0 .02-.006.022-.039l.008-.071c.009-.05.009-.053 0-.052-.005 0-.006 0-.002.002zM13.018 10.103c-.009.002-.011.01-.007.02.003.008.004.008.004-.003 0-.01.001-.011.018-.011.014 0 .017.001.014.007a1.246 1.246 0 00-.036.163c-.012.045-.012.044.01.037.02-.007.02-.007.022-.031.005-.042.015-.109.022-.137.004-.019.004-.029.001-.031-.002-.002-.003-.003-.002-.001a.139.139 0 01-.007.033.176.176 0 00-.009.041c0 .008 0 .009-.002.003-.001-.005-.003-.007-.005-.004s-.003-.002-.003-.01c0-.011 0-.014.003-.01s.003.001.002-.009c-.002-.01-.002-.012.001-.007.003.008.004.008.006.001.004-.01.004-.012 0-.009-.007.004-.006-.01.001-.02.006-.01.006-.011 0-.016-.007-.006-.02-.008-.033-.006zM13.315 10.13c0 .013-.003.024-.007.028a.028.028 0 00-.008.014c0 .006 0 .006-.003-.001-.002-.005-.003-.01-.002-.012s0-.003-.002-.003-.005.007-.008.016c-.003.014-.014.025-.014.014 0-.003.001-.004.003-.003s.003-.012.004-.03c0-.027 0-.03-.003-.018a.383.383 0 00-.006.045.26.26 0 01-.004.034c-.005.01-.007.032-.003.032.006 0 .044-.01.047-.011l.003-.026c0-.014.003-.039.006-.056a.102.102 0 00.001-.037c-.002-.004-.004.001-.004.014zM13.113 10.136c-.003.006-.004.013-.002.015.001.003.001.005-.001.005-.014-.003-.017.001-.022.028-.024.125-.024.118.001.109.01-.004.011-.007.011-.022 0-.01.005-.047.01-.08a.644.644 0 00.01-.064l-.007.01z" fill="#455A21"/><path d="M13.001 10.143c-.003.005-.007.007-.01.004-.003-.002-.008.011-.016.044-.015.061-.032.146-.03.148 0 0 .007 0 .015-.003l.014-.005.007-.052a1.13 1.13 0 01.017-.087.144.144 0 00.006-.042c-.002-.005-.001-.007.002-.005.002.002.005 0 .005-.004 0-.009-.003-.008-.01.002z" fill="#455A21"/><path d="M8.658 12.142c-.164-.346-.24-1.202.765-1.858 1.257-.82 3.005-1.148 4.317-.164-1.01.129-6.81 2.088-4.426 3.77-.055.146-.219.35-.437 0-.274-.437-.547-.983-1.039-1.475-.491-.492-2.295-.874-3.278-1.257.304-.161.84-.33 1.438-.293-.073-.164-.29-.668-.29-1.237.39.018 1.466.23 1.885.889.105-.267.314-.539.682-.78.274-.109.93-.327 1.093-.437.055-.036.019.545-.054.765-.055.164-.747.966-1.039 1.366-.127.183-.262.645.219 1.257l.11.11.054-.656z" fill="#5F7238"/><path opacity=".67" d="M4 8h10v1H4V8zM6 6h6v1H6V6z" fill="#455A21"/></svg>