<!-- by TradingView --><svg width="18" height="18" fill="none" xmlns="http://www.w3.org/2000/svg"><path fill="#F63" d="M0 0h18v18H0z"/><path d="M13.726 7.252C12.156 5.314 9.927 4.277 9.008 4c-1.517.449-2.91 1.488-3.418 1.951 3.228-.108 4.888 2.766 5.314 4.216 2.117-.807 2.764-2.28 2.822-2.915z" fill="#fff"/><path d="M8.7 7.454c-2.453 2.62-1.743 5.367-1.081 6.414-1.164-.09-1.676-.322-1.786-.426-1.552-1.974-1.867-4.725-1.83-5.854.582-1.022 1.462-1.293 1.83-1.3 1.446-.036 2.513.762 2.866 1.166z" fill="#fff"/><path d="M13.991 7.745c-1.552 3.212-4.998 3.297-6.527 2.938-.37 2.35.493 3.147.97 3.252 1.641.233 3.183-.217 3.749-.471 1.605-2.494 1.874-4.852 1.808-5.719z" fill="#fff"/></svg>