<!-- by TradingView --><svg width="18" height="18" fill="none" xmlns="http://www.w3.org/2000/svg"><path fill="#F50911" d="M0 0h18v18H0z"/><path fill-rule="evenodd" clip-rule="evenodd" d="M3 6.645C4.303 6.728 5.333 7.728 5.333 9S4.303 11.272 3 11.355V13h12v-1.645c-1.303-.083-2.333-1.083-2.333-2.355S13.697 6.728 15 6.645V5H3v1.645zM4.326 6a3.459 3.459 0 011.59 1.449A3.459 3.459 0 017.508 6H4.326zm1.59 4.551A3.458 3.458 0 014.327 12h3.181a3.458 3.458 0 01-1.59-1.449zm6.167-3.102A3.458 3.458 0 0010.493 6h3.181a3.459 3.459 0 00-1.59 1.449zM10.493 12a3.458 3.458 0 001.59-1.449A3.459 3.459 0 0013.674 12h-3.181zM11.5 9c0 1.325-1.12 2.36-2.5 2.36S6.5 10.326 6.5 9c0-1.325 1.12-2.36 2.5-2.36S11.5 7.675 11.5 9z" fill="#fff"/></svg>