<!-- by TradingView --><svg width="18" height="18" fill="none" xmlns="http://www.w3.org/2000/svg"><path fill="#F0F3FA" d="M0 0h18v18H0z"/><circle cx="9" cy="9" r="9" fill="#F0F3FA"/><path d="M12.58 5.504a4.911 4.911 0 00-.216-.21c-.787.372-1.437.837-1.932 1.387.064.43.11.869.129 1.319.067 1.561-.16 2.869-.612 3.928.333.57.799 1.082 1.399 1.507.17-.092.335-.194.493-.303a5.288 5.288 0 01-1.28-3.793c.084-1.519.837-2.86 2.019-3.835z" fill="#3BBB9C"/><path d="M11.418 4.614a4.587 4.587 0 00-.272-.142c-.38.174-.736.377-1.066.606.066.227.127.46.181.697.366-.415.761-.803 1.157-1.161zM9.966 13.929c.21-.042.417-.098.617-.165a9.93 9.93 0 01-.94-1.214c-.144.253-.3.491-.471.71.241.238.506.461.794.669z" fill="#05B6C4"/><path d="M13.866 7.856c-.51.44-.862 1.005-.979 1.656-.126.697.045 1.394.435 2.014a5.003 5.003 0 00.544-3.67z" fill="#8CC640"/><path d="M12.329 9.421c.1-.96.46-1.965 1.106-2.732a5.167 5.167 0 00-.157-.282c-1.238.678-2.038 1.75-2.154 3.066-.104 1.162.436 2.329 1.33 3.158.137-.132.267-.271.39-.418a4.835 4.835 0 01-.515-2.792z" fill="#6CC071"/><path d="M5.519 5.392A5.01 5.01 0 004 8.655c.834-.8 1.355-2.084 1.519-3.263z" fill="#00BCE4"/><path d="M6.505 4.65a5.245 5.245 0 00-.228.14C5.799 7.046 5.01 8.544 4.034 9.692c.036.253.088.501.16.741C6.24 9.173 6.671 6.36 6.505 4.65z" fill="#009DCC"/><path d="M10.576 8a11.946 11.946 0 00-.84-3.96 5.344 5.344 0 00-.29-.033c.448 3.804.013 7.473-2.207 9.7.398.149.82.25 1.26.293 1.365-1.203 2.2-3.199 2.077-6z" fill="#00559F"/><path d="M8.627 4c-.096.007-.19.016-.284.029.089 2.477-.327 6.586-2.768 8.642.227.212.472.403.735.57C9.472 11.088 9.457 6.873 8.627 4z" fill="#0069A5"/><path d="M7.52 4.207a4.745 4.745 0 00-.249.083c-.144 2.55-.827 5.262-2.735 6.999.125.245.269.477.43.697 2.59-1.568 3.12-5.281 2.554-7.78z" fill="#0581B6"/></svg>