<!-- by TradingView --><svg width="18" height="18" fill="none" xmlns="http://www.w3.org/2000/svg"><path fill="#DE2F38" d="M0 0h18v18H0z"/><circle cx="9" cy="9" r="9" fill="#DE2F38"/><path d="M13.955 6.098l.045.039v5.638L11.744 14H6.228L4 11.791V6.22L6.24 4h5.538l2.177 2.098z" fill="#fff"/><path d="M13.715 6.286v5.367l-2.089 2.07h-5.26l-2.065-2.048V6.297l2.066-2.049h5.26l2.088 2.038z" fill="#DE2F38"/><path d="M13.347 6.446v5.047l-1.87 1.85H6.528l-1.798-1.8-.027-.028V6.407l1.809-1.789h4.952l1.882 1.828z" fill="#fff"/><path d="M8.653 8.576V6.028H7v5.967h1.653l-.007-2.406.954 2.406 1.648.005c-.452-1.006-.857-2.06-1.267-3.08.48-.978.947-1.942 1.427-2.92H9.882L8.653 8.576z" fill="#DE2F38"/></svg>