<!-- by TradingView --><svg width="18" height="18" fill="none" xmlns="http://www.w3.org/2000/svg"><path fill="#1C377E" d="M0 0h18v18H0z"/><circle cx="9" cy="9" r="9" fill="#1C377E"/><path d="M13.604 6.235a.382.382 0 01-.382.38.382.382 0 01-.372-.391.382.382 0 01.383-.381.382.382 0 01.371.38v.012zM8.158 3.622c.048 0 .095.01.142.03a.39.39 0 01.202.506.374.374 0 01-.494.207.39.39 0 01-.202-.505.377.377 0 01.344-.238h.008zm-4.3 6.267a.374.374 0 01.528-.35.39.39 0 01.194.51.374.374 0 01-.497.199.387.387 0 01-.226-.35v-.01zm0-1.954a.39.39 0 01.108-.269.37.37 0 01.534-.003c.148.15.149.395.002.547a.37.37 0 01-.533.003.39.39 0 01-.112-.272v-.006zm6.406-1.73a.154.154 0 01.15.159.154.154 0 01-.154.153.154.154 0 01-.15-.158.154.154 0 01.154-.154zm.477-.06a.18.18 0 01.175.186.18.18 0 01-.18.18.18.18 0 01-.176-.185.18.18 0 01.18-.18zm.592-.083a.243.243 0 01.236.249.242.242 0 01-.243.241.243.243 0 01-.236-.249.242.242 0 01.243-.241zm.816-.076c.162.002.292.14.29.305a.297.297 0 01-.298.297.298.298 0 01-.29-.305.297.297 0 01.298-.297zm-3.012.02a.151.151 0 01.2.082.158.158 0 01-.081.205.151.151 0 01-.2-.083.158.158 0 01.08-.204zm.412-.252c.09-.04.195.004.234.097a.184.184 0 01-.095.24.177.177 0 01-.233-.098.184.184 0 01.094-.239zm.51-.322a.237.237 0 01.313.13.248.248 0 01-.127.322.237.237 0 01-.314-.13.248.248 0 01.127-.322zm.716-.407a.291.291 0 01.385.16.304.304 0 01-.156.395.291.291 0 01-.385-.16.304.304 0 01.156-.395zm.935-.579a.374.374 0 01.494.205.39.39 0 01-.2.507.374.374 0 01-.494-.205.39.39 0 01.2-.507zM8.003 6.195a.15.15 0 01.216.002.159.159 0 01-.002.22A.15.15 0 018 6.416a.159.159 0 01.002-.22zm.294-.39c.07-.07.183-.069.252.003a.186.186 0 01-.002.258.175.175 0 01-.252-.002.186.186 0 01.002-.258zm.359-.49a.235.235 0 01.339.003.25.25 0 01-.004.347.236.236 0 01-.338-.003.25.25 0 01.003-.347zm.521-.647a.289.289 0 01.416.004.307.307 0 01-.004.426.29.29 0 01-.416-.004.306.306 0 01.004-.426zm.664-.89a.37.37 0 01.533.006.393.393 0 01-.005.546.37.37 0 01-.534-.005.393.393 0 01.006-.546zM7.027 6.818a.151.151 0 01.2-.084.158.158 0 01.081.204.151.151 0 01-.2.084.157.157 0 01-.08-.204zm.124-.476a.177.177 0 01.233-.097c.09.039.133.145.095.239a.177.177 0 01-.233.097.184.184 0 01-.095-.239zm.145-.594a.238.238 0 01.313-.132c.122.052.18.196.129.321a.237.237 0 01-.314.132.248.248 0 01-.128-.321zm.235-.804a.291.291 0 01.385-.161c.15.064.22.24.158.394a.291.291 0 01-.385.161.304.304 0 01-.158-.394zm5.428 5.767a.304.304 0 01-.16.393.291.291 0 01-.383-.162.304.304 0 01.158-.394.291.291 0 01.385.162zm.558.962a.39.39 0 01-.204.505.374.374 0 01-.493-.209.39.39 0 01.204-.505.374.374 0 01.493.209zm-1.606-1.02a.18.18 0 01-.183.177.18.18 0 01-.173-.188.18.18 0 01.183-.177.18.18 0 01.173.187zm.074.608a.242.242 0 01-.247.238.243.243 0 01-.232-.252.242.242 0 01.246-.239.243.243 0 01.232.253zm.061.837a.297.297 0 01-.302.292.298.298 0 01-.285-.31.297.297 0 01.302-.292c.162.005.29.143.285.31zm.124 1.112a.381.381 0 01-.388.375.383.383 0 01-.366-.398.381.381 0 01.388-.375.383.383 0 01.366.398zm-1.09-2.048c-.03.08-.119.12-.197.088a.157.157 0 01-.085-.203c.03-.08.12-.12.197-.087a.157.157 0 01.086.202zm-.114.478a.177.177 0 01-.23.102.184.184 0 01-.1-.237.177.177 0 01.23-.102.184.184 0 01.1.237zm-.133.597a.238.238 0 01-.31.138.247.247 0 01-.135-.318.238.238 0 01.31-.138c.123.05.184.192.135.318zm-.22.809a.292.292 0 01-.382.169.304.304 0 01-.165-.39c.06-.156.23-.231.382-.17.15.061.225.236.165.39zm-.254 1.088a.374.374 0 01-.49.218.39.39 0 01-.211-.502.374.374 0 01.49-.217.39.39 0 01.211.501zm-.276-2.407a.15.15 0 01-.215.01.159.159 0 01-.011-.22.15.15 0 01.215-.01.159.159 0 01.01.22zm-.271.406a.175.175 0 01-.252.013.186.186 0 01-.012-.258.175.175 0 01.252-.013.186.186 0 01.012.258zm-.33.511a.236.236 0 01-.338.017.25.25 0 01-.017-.346c.089-.1.24-.108.338-.018a.25.25 0 01.017.347zM9 13.321a.289.289 0 01-.415.02.306.306 0 01-.02-.425.29.29 0 01.414-.02c.12.111.13.301.02.425zm-.61.928a.37.37 0 01-.534.027.393.393 0 01-.026-.546.37.37 0 01.533-.027.393.393 0 01.026.546zm.6-2.287a.151.151 0 01-.201-.078.158.158 0 01.076-.206.15.15 0 01.202.078c.034.078 0 .17-.077.206zm-.406.261a.177.177 0 01-.236-.091c-.04-.092 0-.2.09-.242.089-.041.194 0 .235.092.04.092 0 .2-.09.241zm-.502.334a.237.237 0 01-.317-.123.248.248 0 01.12-.325c.12-.055.262 0 .317.123a.248.248 0 01-.12.325zm-.708.423a.291.291 0 01-.389-.151.304.304 0 01.148-.398.291.291 0 01.388.15c.067.152.001.33-.147.399zm-.922.6a.374.374 0 01-.499-.194.39.39 0 01.189-.51.373.373 0 01.499.193.39.39 0 01-.189.511zm1.48-1.787a.154.154 0 01-.154-.155c0-.087.068-.157.152-.157.084 0 .153.069.153.155a.154.154 0 01-.152.157zm-.476.069a.18.18 0 01-.179-.182c0-.1.079-.183.177-.183a.18.18 0 01.18.181.18.18 0 01-.178.184zm-.59.096a.242.242 0 01-.242-.245c0-.135.106-.246.239-.246.132 0 .24.108.24.244a.243.243 0 01-.238.247zm-.815.091a.298.298 0 01-.295-.3c-.001-.166.13-.301.292-.302.162 0 .295.133.295.3.001.166-.13.302-.292.302zm-1.08.165a.382.382 0 01-.38-.385.382.382 0 01.376-.388.382.382 0 01.379.384.382.382 0 01-.376.389zm1.987-1.123a.158.158 0 01-.078-.206.15.15 0 01.2-.08.158.158 0 01.08.205.151.151 0 01-.202.08zm-.461-.134a.184.184 0 01-.092-.24.177.177 0 01.234-.095c.09.04.132.148.092.24a.177.177 0 01-.234.095zm-.579-.158a.248.248 0 01-.123-.323.237.237 0 01.315-.127.248.248 0 01.124.323.237.237 0 01-.316.127zm-.78-.254a.304.304 0 01-.152-.396.291.291 0 01.387-.156.304.304 0 01.152.397.291.291 0 01-.387.155zm1.216-.484a.159.159 0 01-.001-.221.15.15 0 01.215-.001c.06.06.06.16.001.22a.15.15 0 01-.215.002zm-.384-.296a.186.186 0 01-.001-.258.175.175 0 01.252-.001c.07.07.07.186.001.258a.175.175 0 01-.252.001zm-.484-.36a.25.25 0 01-.001-.348.235.235 0 01.338-.001.25.25 0 01.002.347.236.236 0 01-.339.002zm-.639-.526a.306.306 0 01-.002-.426c.115-.118.3-.119.416-.001a.306.306 0 01.002.425.289.289 0 01-.416.002zm1.252-.001a.158.158 0 01.081-.205.151.151 0 01.2.083.157.157 0 01-.08.205.151.151 0 01-.2-.083zm-.245-.423a.184.184 0 01.095-.24c.09-.038.195.005.233.098a.184.184 0 01-.094.24.177.177 0 01-.234-.098zm-.313-.522a.248.248 0 01.127-.321.238.238 0 01.314.13.248.248 0 01-.128.322.237.237 0 01-.313-.13zM5.143 7.2a.304.304 0 01.157-.395.291.291 0 01.385.16.304.304 0 01-.156.395.291.291 0 01-.386-.16zM4.58 6.24a.39.39 0 01.201-.506.374.374 0 01.494.205.39.39 0 01-.2.506.374.374 0 01-.495-.205zm1.76 1.585c0-.086.068-.156.152-.156.084 0 .152.07.152.156a.154.154 0 01-.152.156.154.154 0 01-.153-.156zm-.066-.487c0-.1.08-.182.179-.182a.18.18 0 01.178.182c0 .101-.08.183-.178.183a.18.18 0 01-.179-.183zm-.09-.606c0-.135.107-.245.24-.245.132 0 .239.11.239.245a.243.243 0 01-.24.246.243.243 0 01-.24-.246zm-.086-.834c0-.167.132-.302.294-.302.163 0 .294.135.294.302a.298.298 0 01-.294.3.298.298 0 01-.294-.3zm.222-1.495c.209 0 .377.173.377.387a.382.382 0 01-.377.386.382.382 0 01-.377-.386c0-.214.169-.387.377-.387z" fill="#FFD66C"/><path fill-rule="evenodd" clip-rule="evenodd" d="M9.902 10l-.976-1.233-.283.275V10H8V7h.643v1.315L9.755 7h.808l-1.18 1.315L10.63 10h-.729zM11 10V7h.676v2.332H13V10h-2z" fill="#fff"/></svg>