<!-- by TradingView --><svg width="18" height="18" fill="none" xmlns="http://www.w3.org/2000/svg"><path fill="#003662" d="M0 0h18v18H0z"/><circle cx="9" cy="9" r="9" fill="#003662"/><path d="M10 7.934a2.72 2.72 0 01.523-.702 2.102 2.102 0 011.017-.525 2.33 2.33 0 011.19.033c.545.166.964.524 1.28 1.03.243.391.386.822.47 1.281.069.395.085.792.059 1.194-.037.6-.17 1.176-.462 1.696-.32.565-.765.963-1.363 1.118-.778.203-1.5.062-2.135-.485a2.419 2.419 0 01-.535-.683c-.014-.025-.017-.047-.044-.069v1.15c0 .026-.02.026-.043.026h-.365c-.034 0-.04-.008-.04-.037v-.05V5.12c0-.12-.014-.12.096-.12h.272c.07 0 .077.011.08.084v2.85zm-.01 2.018c-.003.108.01.293.034.477.056.424.173.822.376 1.187.232.416.545.73.967.904.303.127.618.163.941.13a1.681 1.681 0 001.087-.535c.256-.275.426-.611.539-.98.21-.698.232-1.407.086-2.124a3.009 3.009 0 00-.392-1.016c-.24-.383-.559-.655-.97-.789a1.948 1.948 0 00-.879-.061c-.296.04-.568.145-.814.326-.353.253-.592.61-.748 1.03-.163.442-.223.905-.226 1.45zM4.504 8.726c0-1.385.003-2.215.003-3.6 0-.12-.013-.126.094-.126h.347c.07 0 .052.106.052.158 0 2.605-.003 4.653-.003 7.257 0 .13-.013.113.097.113h3.308c.113 0 .094-.018.097.112v.31c0 .037-.01.055-.045.052-.02-.004-.036 0-.055 0H4.594c-.106 0-.094.014-.094-.109.004-1.389.004-2.778.004-4.167z" fill="#fff"/></svg>