<!-- by TradingView --><svg width="18" height="18" fill="none" xmlns="http://www.w3.org/2000/svg"><path fill="#F0F3FA" d="M0 0h18v18H0z"/><path d="M9.478 7.865l1.634-3.783a.136.136 0 01.235-.026L13.435 6.9a.136.136 0 01-.076.212l-3.723.938a.136.136 0 01-.158-.186z" fill="#BB0E82"/><path d="M7.696 4.907l-2.072-.11a.136.136 0 00-.12.212l1.063 1.582c.054.08.171.08.226 0L7.8 5.12a.136.136 0 00-.105-.212z" fill="#F99D2A"/><path d="M7.494 14.913L5.009 8.447a.136.136 0 01.167-.18l7.262 2.198c.102.031.13.161.051.232l-4.778 4.268a.136.136 0 01-.217-.052z" fill="#0077C8"/></svg>