<!-- by TradingView --><svg width="18" height="18" fill="none" xmlns="http://www.w3.org/2000/svg"><path fill="url(#paint0_linear)" d="M0 0h18v18H0z"/><path d="M9 9v5A5 5 0 019 4v5z" fill="#F42027"/><path d="M9 9v5A5 5 0 009 4v5z" fill="#fff"/><circle cx="9" cy="9" r="4.601" fill="url(#paint1_linear)"/><path d="M8.687 11.5L6.812 7.437l-.22 3.378c-.025.411.184.513.533.533v.152H5.562v-.152c.57 0 .638-.127.677-.862l.187-3.129c.03-.532-.07-.674-.551-.71V6.5h1.262L9 10.563 10.88 6.5h1.243v.147c-.382.03-.63.04-.615.314l.25 3.646c.045.74.109.74.678.74v.153h-1.875v-.152c.368 0 .567-.107.532-.533l-.22-3.377L9 11.5h-.313z" fill="#F42027"/><defs><linearGradient id="paint0_linear" x1="3.349" y1="3.122" x2="21.904" y2="24.434" gradientUnits="userSpaceOnUse"><stop stop-color="#1A1E21"/><stop offset="1" stop-color="#06060A"/></linearGradient><linearGradient id="paint1_linear" x1="6.111" y1="5.995" x2="15.597" y2="16.89" gradientUnits="userSpaceOnUse"><stop stop-color="#1A1E21"/><stop offset="1" stop-color="#06060A"/></linearGradient></defs></svg>