<!-- by TradingView --><svg width="18" height="18" fill="none" xmlns="http://www.w3.org/2000/svg"><path fill="#F0F3FA" d="M0 0h18v18H0z"/><path d="M12.382 6.588a.75.75 0 01.483.215c.15.15.221.326.215.535a.733.733 0 01-.215.489l-.529.521.652.652.529-.521c.326-.326.49-.717.483-1.18 0-.444-.164-.828-.483-1.148a1.629 1.629 0 00-1.194-.482c.02-.45-.137-.847-.476-1.186A1.615 1.615 0 0010.699 4a1.576 1.576 0 00-1.18.483l-.522.521.652.652.522-.521a.7.7 0 01.515-.216c.196 0 .365.072.509.216a.681.681 0 01.208.521.685.685 0 01-.208.495l-.522.522.652.652.522-.522a.704.704 0 01.535-.215z" fill="#2982BE"/><path d="M10.673 6.673L9.649 5.656l-.652.652 1.024 1.017.652-.652z" fill="#E13348"/><path d="M10.673 10.017L9.649 9l-.652.652 1.024 1.017.652-.652z" fill="#88AD6E"/><path d="M11.69 9l-1.017 1.017.652.652 1.011-1.017L11.69 9z" fill="#2982BE"/><path d="M10.673 7.977L11.69 9l.645-.652-1.01-1.023-.653.652z" fill="#88AD6E"/><path d="M9.649 9l1.024-1.023-.652-.652-1.024 1.023.652.652z" fill="#2982BE"/><path d="M10.673 7.977l.652-.652-.652-.652-.652.652.652.652z" fill="#4F4146"/><path d="M12.336 9.652l.529.522a.707.707 0 010 1.017.75.75 0 01-.483.215.681.681 0 01-.535-.216l-.522-.521-.652.652.522.521a.689.689 0 01.208.502.715.715 0 01-.717.73.719.719 0 01-.515-.208l-.522-.528-.652.658.521.515c.326.333.718.489 1.181.482.45-.006.828-.162 1.148-.482.34-.332.496-.73.476-1.186.47.006.861-.157 1.194-.483.32-.32.483-.704.483-1.147a1.569 1.569 0 00-.483-1.173L12.989 9l-.653.652z" fill="#88AD6E"/><path d="M12.336 9.652L12.988 9l-.652-.652L11.69 9l.646.652z" fill="#4F4146"/><path d="M8.35 5.656L7.328 6.673l.652.652 1.018-1.017-.646-.652z" fill="#2982BE"/><path d="M7.829 5.135l.521.521.646-.652-.515-.521A1.596 1.596 0 007.3 4a1.6 1.6 0 00-1.149.483 1.585 1.585 0 00-.482 1.186 1.561 1.561 0 00-1.194.482 1.62 1.62 0 00-.476 1.148 1.6 1.6 0 00.476 1.18L5.004 9l.653-.652-.522-.521a.71.71 0 01-.216-.515c0-.202.072-.365.216-.509a.684.684 0 01.522-.208c.189 0 .358.071.495.208l.522.522.652-.652-.521-.522a.703.703 0 01-.216-.534.72.72 0 01.216-.482.718.718 0 011.024 0z" fill="#E13348"/><path d="M8.35 5.656l.646.652.653-.652-.653-.652-.645.652z" fill="#4F4146"/><path d="M5.005 9l-.529.522c-.32.326-.482.717-.476 1.173.007.45.17.834.476 1.147.34.34.737.502 1.194.483-.006.463.157.86.483 1.186.32.32.704.482 1.148.489.456 0 .848-.156 1.18-.489l.516-.515-.646-.658-.522.528a.726.726 0 01-.49.208.712.712 0 01-.534-.208.747.747 0 01-.215-.483.717.717 0 01.215-.54l.522-.522-.652-.652-.522.521a.721.721 0 01-.496.216.69.69 0 01-.522-.216.675.675 0 01-.215-.508c0-.196.072-.365.215-.508l.522-.522L5.005 9z" fill="#F2962A"/><path d="M5.657 9.652L6.309 9l-.652-.652L5.004 9l.653.652z" fill="#4F4146"/><path d="M6.309 9l-.652.652 1.017 1.017.574-.567.079-.085L6.309 9z" fill="#E13348"/><path d="M5.657 8.348L6.309 9l1.018-1.023-.653-.652-1.017 1.023z" fill="#F2962A"/><path d="M8.997 8.348L7.979 7.325l-.652.652L8.35 9l.646-.652z" fill="#E13348"/><path d="M6.674 7.325l.653.652.652-.652-.652-.652-.653.652zm.653 2.692l-.079.085-.574.567.653.652.652-.652-.652-.652zM8.35 9l.646.652L9.65 9l-.653-.652L8.351 9z" fill="#4F4146"/><path d="M8.997 9.652L8.35 9l-1.024 1.017.652.652 1.018-1.017z" fill="#F2962A"/><path d="M8.997 11.686l-1.018-1.017-.652.652 1.024 1.017.646-.652z" fill="#88AD6E"/><path d="M8.35 12.338l.646.658.653-.658-.653-.652-.645.652zm2.323-1.018l.652-.651-.652-.652-.652.652.652.652z" fill="#4F4146"/><path d="M9.649 12.338l1.024-1.017-.652-.652-1.024 1.017.652.652z" fill="#F2962A"/></svg>