<!-- by TradingView --><svg width="18" height="18" fill="none" xmlns="http://www.w3.org/2000/svg"><path fill="#CF1F2E" d="M0 0h18v18H0z"/><path d="M13.143 12.847c-.227-.808-.086-2.476.053-3.452.26-1.759.801-2.733.804-3.802 0-.498-.17-1.53-1.358-1.572-2.933-.091-4.014 6.443-4.16 7.367-.06-.424-.027-2.836-.243-4.594-.311-2.598-.925-2.747-1.53-2.79-2.195-.148-2.351 3.73-2.323 7.43 0-.757.102-2.298-.674-3.087-.384-.39-.976-.352-.582.167.044.055.091.177.151.259.76 1.05.604 5.247 1.377 5.213.243 0 .608-.1.577-1.043-.091-2.842.144-7.932 1.201-7.936 1.12 0 .873 5.055 1.2 7.024.182.998 1.305 1.082 1.668-.337.468-1.895.491-3.11 1.515-5.092 1.36-2.631 2.484-1.763 2 .065-.26.938-1.078 3.199-.663 5.797.12.756.653 1.713 1.045 1.508.227-.118.112-.479-.066-1.113l.008-.012z" fill="#fff"/></svg>