<!-- by TradingView --><svg width="18" height="18" fill="none" xmlns="http://www.w3.org/2000/svg"><path fill="url(#paint0_linear)" d="M0 0h18v18H0z"/><path fill-rule="evenodd" clip-rule="evenodd" d="M8.981 4C5.493 4.103 4.207 6.845 4 8.203l.223-.11C5.019 5.585 7.056 4.903 8.106 5c.84.076.488 1.437.207 2.108h.302c.032-.253.62-1.807 1.385-1.823.61-.013.636.908.636 1.474 0 1.523-.514 3.552-.796 4.392H10c1.602-4.561 1.278-5.98 1.023-6.51-.256-.529-1.416-.65-2.042-.64zm-4.394 7.5c1.84 2.954 4.866 2.685 6.149 2.181l-.209-.136c-2.574.573-4.188-.84-4.633-1.793-.356-.762 1.002-1.142 1.726-1.237l-.152-.26c-.236.1-1.88.373-2.278-.277-.318-.52.469-1.005.96-1.29 1.322-.764 3.341-1.34 4.212-1.52l-.08-.137c-4.764.91-5.833 1.902-6.164 2.388-.331.486.145 1.547.47 2.081zm7.576-6.369c1.076.86 2.811 3.344 1.149 6.401-.305.545-.993 1.483-1.582 1.438-.588-.045-1.981-.479-5.138-4.148l.08-.138c.589.664 2.092 2.126 3.414 2.89.492.284 1.304.724 1.6.191.369-.666-.684-1.953-.889-2.108l.152-.26c.442.579 1.447 1.566 1.935.88.61-.858 1.04-2.955-.736-4.898l.015-.248z" fill="#63BC47"/><defs><linearGradient id="paint0_linear" x1="3.349" y1="3.122" x2="21.904" y2="24.434" gradientUnits="userSpaceOnUse"><stop stop-color="#1A1E21"/><stop offset="1" stop-color="#06060A"/></linearGradient></defs></svg>