<!-- by TradingView --><svg width="18" height="18" fill="none" xmlns="http://www.w3.org/2000/svg"><path fill="#18377A" d="M0 0h18v18H0z"/><path d="M9.379 13c.34 0 .621-.34.621-.726v-4.58c0-.385.19-.694.53-.694h.91c.563 0 .563.694.563.694v4.58c0 .385.281.711.621.711l.755.015c.34 0 .621-.326.621-.711V7.933c0-1.852-.692-2.71-2.216-2.888A5.07 5.07 0 0011.092 5h-6.47C4.281 5 4 5.326 4 5.711v6.578c0 .385.281.71.621.71l.737-.014c.34 0 .642-.326.642-.71v-4.58C6 7.308 6.232 7 6.572 7h.803c.34 0 .625.309.625.694v4.58c0 .385.29.726.63.726h.749z" fill="#fff"/></svg>