<!-- by TradingView --><svg width="18" height="18" fill="none" xmlns="http://www.w3.org/2000/svg"><path fill="#F0F3FA" d="M0 0h18v18H0z"/><path d="M9.188 14l-1.605-2.998 1.605-2.998h3.208L14 11.002 12.396 14H9.188zm2.75-.631l1.274-2.392-1.274-2.341H9.623l-1.249 2.341 1.25 2.392h2.314z" fill="#FF9D03"/><path d="M9.416 7.438L7.89 5.563 9.416 4h3.056L14 5.563l-1.528 1.875H9.416zm2.75-.625l.977-1.25-.977-.938H9.722l-.977.938.977 1.25h2.444z" fill="teal"/><path d="M4.502 11.995L3 10.055 4.57 6.99l2.734-.996 1.502 1.89L7.192 11l-2.69.995zm2.288-1.612l1.254-2.414-.928-1.18-2.132.8-1.213 2.362.938 1.212 2.08-.78z" fill="#FF7200"/></svg>