<!-- by TradingView --><svg width="18" height="18" fill="none" xmlns="http://www.w3.org/2000/svg"><path fill="#1A4282" d="M0 0h18v18H0z"/><path fill-rule="evenodd" clip-rule="evenodd" d="M6.808 12.361c.706-1.455 2.297-4.597 3.01-5.522.891-1.156 1.998-2.45 4.182-1.514-.59.032-1.949.435-2.673 1.79-.086.155-.36.48-.762.536a3.773 3.773 0 00-.747.165c.22.014.704.066.877.165-.297.028-.957.116-1.222.248.211 0 .679.03.862.151-.512.088-1.612.452-1.91 1.211l-1.251 2.326c-.048.08-.217.31-.366.444zm-1.558-.698a1.84 1.84 0 011.84-1.839.25.25 0 000-.5 2.34 2.34 0 101.865.928.25.25 0 10-.399.302 1.84 1.84 0 11-3.306 1.11z" fill="#fff"/></svg>