<!-- by TradingView --><svg width="18" height="18" fill="none" xmlns="http://www.w3.org/2000/svg"><path fill="#08090D" d="M0 0h18v18H0z"/><circle cx="9" cy="9" r="9" fill="#08090D"/><path d="M13.969 4.68c.073-.194.01-.43-.11-.521-.399-.301-.76-.133-1.03.165-.318.35-.73 1.108-.904 1.391-1.6 2.605-2.82 5.388-2.82 5.388s-.424-1.296-.483-2.326c-.055-.97-.1-1.897-.14-2.351-.014-.182-.09-.466-.406-.57-.243-.08-.598-.112-.846-.02-.02.31-.033.46-.161.827-.128.366-.954 1.983-1.094 2.234-.718 1.287-1.664 2.887-1.72 2.99-.193.36-.46.852-.001 1.026.459.173.862.08 1.06-.215.038-.057.09-.164.09-.164s-.132-.11.153-.782c.085-.177.187-.384.3-.612l.069-.125c.034-.061.058-.115.076-.165.471-.937 1.1-2.145 1.66-3.205-.005.617.047 1.38.13 1.934.128 1.081.392 1.537.49 2.4-.02.582.037.683.459.8.394.11.624 0 .772-.367.57-1.448 2.207-4.773 3.598-6.577.146-.189.698-.73.858-1.154z" fill="#fff"/></svg>