<!-- by TradingView --><svg width="18" height="18" fill="none" xmlns="http://www.w3.org/2000/svg"><path fill="#F0F3FA" d="M0 0h18v18H0z"/><path d="M5.959 4c-2.385 1.982-2.096 7.508-1.672 10H7.42c-.882-3.988-.616-6.637-.305-7.453-.25-2.076-.875-2.57-1.156-2.546z" fill="url(#paint0_linear)"/><path d="M7.703 9.53C6.991 5.545 6.28 4.184 6.014 4.002h2.973c.624.755 1.205 3.35 1.443 4.553C11.484 12.982 12.523 14 12.523 14H9.3c-.637-.074-1.294-3.024-1.597-4.47z" fill="url(#paint1_linear)"/><path d="M10.886 10.405c1.021-3.37.19-5.692-.332-6.404h2.506c.788 1.131.96 2.854.938 3.546-.031 3.574-.997 5.796-1.476 6.453-.937-.35-1.481-2.546-1.636-3.595z" fill="url(#paint2_linear)"/><defs><linearGradient id="paint0_linear" x1="5.63" y1="4.024" x2="5.63" y2="13.979" gradientUnits="userSpaceOnUse"><stop stop-color="#0F175F"/><stop offset=".563" stop-color="#0074AF"/><stop offset="1" stop-color="#233A95"/></linearGradient><linearGradient id="paint1_linear" x1="7.686" y1="4.002" x2="11.708" y2="13.679" gradientUnits="userSpaceOnUse"><stop stop-color="#05A1DA"/><stop offset=".208" stop-color="#6DC4EF"/><stop offset="1" stop-color="#006DB2"/></linearGradient><linearGradient id="paint2_linear" x1="11.991" y1="4.057" x2="12.382" y2="13.983" gradientUnits="userSpaceOnUse"><stop stop-color="#10145C"/><stop offset=".679" stop-color="#0076B0"/><stop offset="1" stop-color="#062868"/></linearGradient></defs></svg>