<!-- by TradingView --><svg width="18" height="18" fill="none" xmlns="http://www.w3.org/2000/svg"><path fill="url(#paint0_linear)" d="M0 0h18v18H0z"/><path d="M7 7c1.823 0 4 1 4 1v-.298S8.9 5 4.823 5H3.57C3.25 5 3 5.194 3 5.42v3.068c0 .32.25.514.57.514H7M11 11c-1.827 0-4-1-4-1v.323S9.24 13 13.211 13h1.249c.324 0 .539-.224.539-.514V9.51c0-.285-.215-.51-.54-.51H11" fill="#fff"/><defs><linearGradient id="paint0_linear" x1="3.349" y1="3.122" x2="21.904" y2="24.434" gradientUnits="userSpaceOnUse"><stop stop-color="#1A1E21"/><stop offset="1" stop-color="#06060A"/></linearGradient></defs></svg>