<!-- by TradingView --><svg width="18" height="18" fill="none" xmlns="http://www.w3.org/2000/svg"><path fill="#98C33C" d="M0 0h18v18H0z"/><circle cx="9" cy="9" r="9" fill="#98C33C"/><path d="M13.502 9.344A.543.543 0 0114 8.905v-3.35A1.578 1.578 0 0012.434 4h-6.88C4.7 4 4 4.7 4 5.556v6.876C4 13.3 4.7 14 5.554 14h6.868c.866 0 1.578-.7 1.578-1.568v-2.161a.637.637 0 01-.25.06c-.236 0-.402-.19-.355-.44l.107-.547zm-8.15.867l-.095.547c-.047.237-.272.44-.51.44-.237 0-.403-.19-.356-.44l.095-.547c.048-.237.273-.439.51-.439.238 0 .404.19.356.44zm1.483 0l-.344 1.924c-.047.238-.273.44-.51.44s-.403-.19-.356-.44l.332-1.924c.048-.237.273-.439.51-.439.25 0 .404.19.368.44zm1.625-.878l-.64 3.693c-.048.238-.273.44-.51.44-.238 0-.404-.19-.356-.44l.64-3.693c.048-.238.273-.44.51-.44.238 0 .404.19.356.44zm1.791-1.758l-.865 4.976c-.048.238-.273.44-.51.44a.37.37 0 01-.368-.44l.866-4.976c.047-.238.272-.44.51-.44.249 0 .403.19.367.44zm1.555-.475l-.641 3.693c-.048.238-.273.44-.51.44s-.403-.19-.356-.44l.64-3.693a.543.543 0 01.51-.44c.238 0 .404.202.357.44zm1.328.89l-.332 1.924c-.048.238-.273.44-.51.44s-.403-.19-.356-.44l.332-1.923a.543.543 0 01.51-.44c.237 0 .392.19.356.44z" fill="#fff"/></svg>