<!-- by TradingView --><svg width="18" height="18" fill="none" xmlns="http://www.w3.org/2000/svg"><path fill="#F0F3FA" d="M0 0h18v18H0z"/><path d="M10.666 5.625c.11-.52-.186-.804-.79-.804H8.668l-.339 1.828s.647.013 1.338.013c.694-.003.893-.517.999-1.037zM10.719 3c1.165 0 2.602.73 2.217 2.615-.415 2.034-1.49 2.841-3.322 2.841h-1.67L7.317 12H5l1.743-9h3.976z" fill="#002D72"/><path d="M2.9 12.207c.876 2.022 4.213 2.664 8.214 1.391 1.83-.583 3.627-1.539 4.88-2.598l.006.005c-1.313 1.373-3.315 2.593-5.643 3.34-4.13 1.321-7.687.583-8.357-1.66.202.095.806-.287.9-.478z" fill="#9D2235"/></svg>