<!-- by TradingView --><svg width="18" height="18" fill="none" xmlns="http://www.w3.org/2000/svg"><path fill="#F0F3FA" d="M0 0h18v18H0z"/><path d="M8.81 4.124c-.541.382-1.171.565-1.717.499A2.525 2.525 0 015.92 4.17l-.153-.115-1.132 1.142L3.5 6.34h.794l.793-.799.796-.796.15.09c.187.11.444.21.703.274.268.068.873.073 1.164.011.267-.057.628-.199.894-.347l.223-.126.061.043c.119.083.519.272.721.341.55.183 1.17.188 1.706.011.191-.061.455-.185.566-.265l.064-.046.84.845.838.844-.136.192c-.564.796-.671 1.723-.314 2.747.402 1.158.498 1.785.368 2.407-.145.705-.68 1.316-1.38 1.574-.228.085-.489.137-1.192.238-.828.121-.994.153-1.264.245-.214.07-.594.252-.773.368-.1.064-.116.069-.162.041a5.128 5.128 0 00-.675-.352c-.34-.137-.487-.167-1.549-.32l-.518-.073v.535l.063.014c.034.006.205.027.38.048 1.153.13 1.753.343 2.208.782L9.01 15l.155-.151c.464-.444 1.048-.645 2.272-.778.784-.085 1.105-.155 1.432-.32.235-.12.408-.25.655-.496.596-.595.865-1.424.77-2.375-.051-.488-.115-.746-.342-1.407-.457-1.332-.362-2.009.432-2.995l.116-.146-1.121-1.128a56.924 56.924 0 00-1.14-1.13c-.009 0-.07.041-.136.094a3.14 3.14 0 01-.791.384c-.51.137-.987.107-1.485-.092a3.07 3.07 0 01-.664-.361 1.587 1.587 0 00-.137-.098c-.011-.007-.109.048-.216.123z" fill="#FE0000"/><path d="M6.725 7.014c-.852.124-1.48.8-1.902 2.046-.355 1.049-.416 1.769-.19 2.245.21.443.712.695 1.375.695.467 0 .84-.112 1.184-.351.303-.212.52-.514.7-.972.138-.346.17-.518.17-.885 0-.311-.002-.331-.074-.49-.128-.292-.325-.45-.68-.546a1.266 1.266 0 00-.94.102l-.135.072.042-.13c.067-.206.245-.568.35-.71.18-.241.385-.346.539-.279.1.045.145.137.159.324l.009.165.572.044c.315.025.577.038.584.03.023-.025.011-.306-.017-.418a1.23 1.23 0 00-.446-.666c-.287-.206-.896-.334-1.3-.276zm-.098 2.514a.427.427 0 01.1.13c.117.234-.074.957-.354 1.335-.185.252-.463.324-.596.155-.15-.19-.077-.673.18-1.201.203-.421.455-.578.67-.419zM10.724 7.012c-.29.037-.59.167-.848.361-.18.138-.46.452-.6.673-.294.474-.604 1.342-.735 2.055-.059.326-.054.767.011.99.173.597.68.912 1.465.909.567 0 1.036-.182 1.387-.539.2-.204.266-.301.406-.6.42-.895.332-1.705-.215-2.004-.36-.195-.899-.195-1.233-.003-.068.04-.124.065-.124.057 0-.037.1-.294.185-.473.212-.451.467-.688.689-.643.135.027.224.192.224.416v.09l.45.035c.246.017.507.032.577.032l.129.003.007-.133c.02-.388-.252-.85-.61-1.03a2.319 2.319 0 00-1.165-.196zm-.107 2.508c.158.087.186.374.077.768-.175.64-.516 1.031-.813.937-.15-.048-.184-.137-.173-.436.024-.509.306-1.122.586-1.272.127-.067.197-.067.323.003z" fill="#000"/></svg>