<!-- by TradingView --><svg width="18" height="18" fill="none" xmlns="http://www.w3.org/2000/svg"><path fill="#EB3C00" d="M0 0h18v18H0z"/><path d="M8.337 11.05c-1.088 0-1.97-.916-1.97-2.047 0-1.13.882-2.048 1.97-2.048s1.97.917 1.97 2.048-.883 2.048-1.97 2.048zm5.34-2.835l-2.081 1.25.01-.058.005-.053.007-.086V9.255l.005-.105v-.116l-.001-.084-.005-.12-.008-.11-.011-.12-.008-.065-.017-.116-.019-.114-.023-.111-.025-.11-.018-.067-.03-.106-.034-.103-.03-.085-.039-.1-.041-.097-.045-.095-.048-.094-.051-.093-.005-.008-.055-.09-.058-.09-.061-.089-.066-.087-.069-.087-.008-.01-.073-.084-.078-.084-.082-.084-.086-.083-.007-.006-.091-.083-.098-.083-.098-.079-.11-.084-.118-.086-.089-.061-.136-.091-.153-.098-.05-.032-.189-.115-.046-.029-.119-.07L5.01 3v1.588l2.082 1.25-.053.02-.047.021-.075.037-.006.003-.005.003-.09.049-.097.057-.069.043-.097.065-.088.062-.094.07-.051.04-.088.073-.085.074-.082.076-.078.078-.048.05-.072.08-.07.082-.055.069-.064.085-.06.086-.057.088-.054.09-.052.092-.004.009-.049.095-.045.097-.043.1-.04.102-.037.105-.004.013-.035.108-.03.112-.03.115-.025.12-.002.01-.023.123-.02.129-.017.128-.015.14-.013.15-.007.11-.007.168-.006.187v.062L5 9.741V15l1-.794V11.5l.367.245.04.03.07.05.004.004.003.002.087.057.097.059.07.04.103.056.095.048.106.05.055.024.106.044.105.04.105.035.105.032.063.018.104.025.104.022.084.015.103.015.103.011.1.007.103.004h.11l.104-.003.105-.008.105-.011.106-.016.107-.019.01-.002.108-.023.11-.028.111-.033.114-.036.006-.002.115-.042.119-.047.113-.048.125-.057.132-.064.094-.048.144-.078.16-.09.05-.028.191-.112.045-.027.119-.071L15 9.01l-1.322-.795z" fill="#fff"/></svg>