<!-- by TradingView --><svg width="18" height="18" fill="none" xmlns="http://www.w3.org/2000/svg"><path fill="#3877B8" d="M0 0h18v18H0z"/><path d="M4 11.842L9 15l1.628-1.035-5.066-3.07v-5.66L9.44 7.349c.389.2 1.273.825 1.189 1.814-.088 1.024-1.083 1.426-1.51 1.508l1.51.913c.513-.254 1.544-1.123 1.568-2.561.024-1.439-.937-2.397-1.42-2.697L7.092 4.154 4 6.157v5.685z" fill="#fff"/><path d="M13.998 6.157L8.998 3 7.37 4.035l5.066 3.07v5.622l-3.928-2.08c-.286-.149-1.223-.647-1.138-1.81.076-1.025 1.083-1.426 1.51-1.507l-1.51-.914c-.513.254-1.544 1.123-1.568 2.561-.024 1.439.937 2.397 1.42 2.697l3.684 2.172 3.092-2.004V6.157z" fill="#fff"/></svg>