<!-- by TradingView --><svg width="18" height="18" fill="none" xmlns="http://www.w3.org/2000/svg"><path fill="#E81F76" d="M0 0h18v18H0z"/><path d="M8.794 3.004a8.267 8.267 0 00-.627.343c-.062.035-.137.126-.128.313l.123 2.984s-1.67-2.069-1.75-2.157c-.08-.089-.156-.077-.246-.034-.09.042-.501.274-.588.328-.087.054-.112.142-.032.248l3.34 3.725a.02.02 0 00.034-.013V3.08a.1.1 0 00-.126-.075zM3.093 8.92h1.765l3.888-.044a.016.016 0 00.011-.028L5.081 4.754c-.168-.179-.264-.072-.296-.018-.032.055-.31.69-.35.799-.04.107.034.242.086.29.052.048 2.13 2.14 2.13 2.14s-2.964-.155-3.065-.157a.273.273 0 00-.224.142c-.046.074-.315.693-.353.782-.037.09.05.166.084.188zM9.114 8.754l3.34-3.72c.08-.105.05-.193-.032-.248a10.452 10.452 0 00-.588-.33c-.09-.043-.165-.056-.245.034-.08.09-1.751 2.154-1.751 2.154l.124-2.983c.006-.187-.069-.274-.129-.313a7.399 7.399 0 00-.627-.342.099.099 0 00-.126.073v5.659a.02.02 0 00.024.022.02.02 0 00.01-.006zM9.254 8.876l3.888.043h1.766c.032-.022.12-.1.083-.187a21.607 21.607 0 00-.353-.782.273.273 0 00-.224-.143c-.1 0-3.065.158-3.065.158s2.08-2.094 2.132-2.142c.053-.05.129-.186.086-.291-.042-.105-.32-.742-.352-.796-.033-.054-.129-.162-.296.018L9.243 8.848a.017.017 0 00.01.028zM8.886 9.249l-3.34 3.72c-.08.105-.05.192.032.248.081.055.496.287.588.333.092.046.165.057.245-.034.08-.09 1.751-2.159 1.751-2.159l-.124 2.983c-.006.187.069.274.129.313.064.05.551.312.627.343a.099.099 0 00.11-.038.1.1 0 00.016-.038V9.262a.02.02 0 00-.034-.013zM8.746 9.123L4.858 9.08H3.093c-.034.022-.12.1-.084.187.037.087.307.708.353.783a.269.269 0 00.224.143c.1 0 3.065-.157 3.065-.157l-2.132 2.143c-.053.052-.128.187-.086.292.042.104.32.74.352.796.033.054.129.161.296-.018L8.757 9.15a.017.017 0 00-.01-.028zM9.114 9.249a.02.02 0 00-.03.002.02.02 0 00-.004.01v5.659a.1.1 0 00.085.078c.014.002.028 0 .04-.003.077-.032.564-.294.628-.343.062-.036.137-.127.128-.313l-.123-2.982s1.67 2.067 1.75 2.158c.08.091.156.077.246.033.09-.043.505-.274.588-.33.083-.055.112-.142.032-.247l-3.34-3.722zM14.908 9.08h-1.766l-3.888.043a.016.016 0 00-.011.028l3.676 4.094c.167.18.264.073.296.018.032-.055.31-.691.352-.796.042-.105-.034-.242-.086-.291-.052-.049-2.132-2.142-2.132-2.142s2.964.159 3.065.159a.269.269 0 00.224-.142c.046-.075.315-.693.353-.783.037-.089-.05-.166-.083-.188z" fill="#fff"/></svg>