<!-- by TradingView --><svg width="18" height="18" fill="none" xmlns="http://www.w3.org/2000/svg"><path fill="#85744D" d="M0 0h18v18H0z"/><path d="M15 12.797c0 .112-.108.203-.24.203h-2.52c-.132 0-.24-.09-.24-.203V7.203c0-.112.108-.203.24-.203h2.52c.132 0 .24.09.24.203v5.594zM6 12.797c0 .112-.108.203-.24.203H3.24c-.133 0-.24-.091-.24-.203V7.203C3 7.091 3.108 7 3.24 7h2.52c.133 0 .24.09.24.203v5.594zM10.5 12.73c0 .149-.107.27-.24.27H7.74c-.132 0-.24-.121-.24-.27V5.27c0-.149.108-.27.24-.27h2.52c.133 0 .24.123.24.271v7.458z" fill="#fff"/></svg>