<!-- by TradingView --><svg width="18" height="18" fill="none" xmlns="http://www.w3.org/2000/svg"><path fill="url(#paint0_linear)" d="M0 0h18v18H0z"/><path d="M11.076 7.766c0 1.3-.613 2.06-1.57 2.06-1.023 0-1.62-.735-1.62-2.06 0-1.43.56-2.165 1.583-2.165 1.024 0 1.61.748 1.61 2.165h-.003zM6 14h1.883v-3.662c.477.721 1.214 1.102 2.142 1.102C11.717 11.44 13 9.982 13 7.687 13 5.457 11.753 4 9.998 4c-.942 0-1.596.368-2.156 1.181V4.24H6V14z" fill="#fff"/><defs><linearGradient id="paint0_linear" x1="3.349" y1="3.122" x2="21.904" y2="24.434" gradientUnits="userSpaceOnUse"><stop stop-color="#1A1E21"/><stop offset="1" stop-color="#06060A"/></linearGradient></defs></svg>