<!-- by TradingView --><svg width="18" height="18" fill="none" xmlns="http://www.w3.org/2000/svg"><path fill="#DC5F13" d="M0 0h18v18H0z"/><path d="M10.613 5.642c0 .907-.726 1.642-1.622 1.642A1.632 1.632 0 017.37 5.642C7.37 4.735 8.096 4 8.99 4c.896 0 1.622.735 1.622 1.642zM7.244 11.358c0 .907-.726 1.642-1.622 1.642A1.632 1.632 0 014 11.358c0-.907.726-1.642 1.622-1.642.896 0 1.622.735 1.622 1.642zM14 11.357c0 .907-.726 1.642-1.622 1.642a1.632 1.632 0 01-1.622-1.642c0-.907.726-1.642 1.622-1.642.896 0 1.622.735 1.622 1.642z" fill="#fff"/></svg>