<!-- by TradingView --><svg width="18" height="18" fill="none" xmlns="http://www.w3.org/2000/svg"><path fill="#012168" d="M0 0h18v18H0z"/><path fill-rule="evenodd" clip-rule="evenodd" d="M9.824 6s2.879 2.831 1.544 5.63c0 0-1.508.036-3.372.37 0 0 2.887-2.046 1.828-6z" fill="#fff"/><path fill-rule="evenodd" clip-rule="evenodd" d="M9.272 4c.111.268.246.577.369 1-.015-.051.014.05 0 0C11.444 5.323 13 7.103 13 9c0 2.132-1.87 4-4 4-.94 0-1.8-.481-2.47-1.04.602-.106 1.22-.147 1.22-.147 2.416-2.08 2.036-4.924 1.531-6.66-.265-.912-.594-1.466-.594-1.466a21.2 21.2 0 01-.271 1.493c-.529 2.402-1.4 4.39-2.462 5.762l-.143.225C5.39 10.55 5 9.805 5 9.001c0-1.79 1.4-3.564 3.05-4-.012.055.013-.057 0 0 .077-.349.15-.596.209-.946A5.001 5.001 0 009 14a5.004 5.004 0 00.272-10z" fill="#fff"/></svg>