<!-- by TradingView --><svg width="18" height="18" fill="none" xmlns="http://www.w3.org/2000/svg"><path fill="#FFBF22" d="M0 0h18v18H0z"/><path d="M3.207 9.486h1.162v.492c.162.836.59 1.36 1.484 1.946.946.619 1.915.836 3.18.836 1.266 0 2.263-.217 3.209-.836.893-.586 1.21-1.11 1.374-1.946v-.325l1.267-.167V6.102H3.207v3.384zm5.827 4.528C6.308 14.014 3.962 12.76 3 11h-.96V4.99h14.01V11h-1.054c-.952 1.76-3.236 3.014-5.962 3.014z" fill="#fff"/><path d="M3 6v4h1c.337 1.647 2.602 3 5 3s4.664-1.353 5-3h1V6H3z" fill="#004D41"/><path d="M7.75 9.986c0 .512.574.774 1.126.774.774 0 1.125-.387 1.125-.703 0-.278-.186-.392-.416-.517-.142-.077-.921-.376-1.096-.447-.658-.284-.922-.556-.922-.954 0-.278.146-.632.48-.855C8.364 7.064 8.83 7 9.26 7c.231 0 .551.027.774.05.222.02.296.015.394.01-.057.338-.063.43-.05.838h-.309c-.015-.572-.58-.677-.924-.677-.566 0-1.017.277-1.017.664 0 .409.43.588.874.746l.552.19c.539.183 1.019.414 1.019.952 0 .588-.53 1.227-1.754 1.227-.323 0-1.14-.115-1.39-.126.015-.158.038-.322.038-.48 0-.143-.023-.28-.038-.416h.334l-.012.008z" fill="#fff"/></svg>