<!-- by TradingView --><svg width="18" height="18" fill="none" xmlns="http://www.w3.org/2000/svg"><path fill="#F0F3FA" d="M0 0h18v18H0z"/><path d="M8.015 10.526c.074-.044.185-.02.223.068.095.178-.123.425-.287.31-.124-.099-.065-.318.064-.378zM7.27 10.66c.239-.075.516.069.6.327.158.457-.212 1.007-.66.998-.215 0-.412-.172-.466-.398-.097-.397.165-.833.526-.928z" fill="#FEFEFE"/><path d="M9.41 4.034c.143-.038.3-.054.44.003.12.059.132.226.12.35-.055.545-.356 1.022-.394 1.57-.01.14.01.312.137.385.143.066.313.027.441-.06.167-.114.298-.276.43-.433.184-.233.39-.445.592-.657.3-.302.626-.603 1.026-.728.14-.039.301-.076.435 0 .107.066.12.216.102.333-.044.313-.24.56-.369.835-.122.258-.255.527-.28.82-.016.121.048.257.166.278.24.068.462-.1.647-.246.503-.418 1.063-.825 1.71-.897.2-.04.436.132.375.374-.146.605-.673.977-.907 1.532-.076.17-.022.36.05.518.287.657.431 1.406.315 2.129a3.291 3.291 0 01-.775 1.628c-.485.564-1.1.98-1.741 1.3a9.29 9.29 0 01-2.816.841c-1.161.164-2.359.1-3.487-.25-.742-.24-1.476-.615-2-1.248A2.785 2.785 0 013 10.677c-.015-.71.187-1.404.46-2.041.188-.39.292-.82.457-1.22.147-.357.283-.747.575-.996.084-.08.259-.13.3.023.062.301-.062.622.049.915.05.15.24.207.347.09.223-.23.279-.574.402-.868.17-.42.33-.868.642-1.19.12-.116.293-.255.462-.171.11.082.114.246.114.377.002.264-.067.529-.03.792.024.198.261.244.402.166.257-.14.413-.42.567-.673.27-.502.58-.984.968-1.386.2-.201.427-.385.694-.461zM8.102 7.97c-.983.121-1.963.472-2.752 1.132-.408.346-.767.794-.92 1.339-.119.416-.084.879.1 1.267.233.502.656.87 1.111 1.12.701.38 1.496.519 2.276.517.99-.012 1.99-.254 2.861-.776.54-.327 1.042-.778 1.327-1.383.226-.471.274-1.055.069-1.544-.236-.58-.726-.986-1.243-1.248-.882-.434-1.876-.534-2.83-.424z" fill="#D41A28"/><path d="M7.95 9.028c.439-.077.909-.013 1.294.232.35.217.612.586.708 1.005.116.503.014 1.045-.23 1.488-.508.93-1.63 1.48-2.614 1.152a1.606 1.606 0 01-.962-.885c-.208-.469-.183-1.028.005-1.499.31-.777 1.017-1.355 1.8-1.493zm.22 1.565c-.14.064-.204.296-.069.399.178.122.414-.14.31-.328-.042-.092-.16-.118-.24-.071zm-.807.141c-.39.1-.674.561-.568.981.057.24.272.422.506.422.483.011.885-.57.713-1.056a.539.539 0 00-.65-.347z" fill="#191512"/></svg>