<!-- by TradingView --><svg width="18" height="18" fill="none" xmlns="http://www.w3.org/2000/svg"><path fill="#022875" d="M0 0h18v18H0z"/><path d="M4.2 8.745c3.11-.932 4.33-3.434 4.55-4.57.023-.063.109-.188.266-.174.157.014.212.122.22.175.965 3.654 4.39 4.531 4.494 4.546.106.015.27.127.27.294 0 .133-.18.214-.27.238-3.728 1.174-4.46 4.317-4.47 4.45-.009.134-.098.305-.28.296-.146-.008-.214-.2-.23-.295-.86-2.919-3.392-4.183-4.55-4.45-.073-.023-.213-.104-.199-.252a.326.326 0 01.198-.258z" fill="#fff"/></svg>