<!-- by TradingView --><svg width="18" height="18" fill="none" xmlns="http://www.w3.org/2000/svg"><g clip-path="url(#clip0)"><path fill="#441644" d="M0 0h18v18H0z"/><path d="M4 8a1 1 0 011-1h2a1 1 0 010 2H5a1 1 0 01-1-1z" fill="#36C5F0"/><path d="M4 11a1 1 0 011-1h1v1a1 1 0 11-2 0z" fill="#F1306C"/><path d="M6 5a1 1 0 001 1h1.003v-.998A1.002 1.002 0 006 5z" fill="#36C5F0"/><path d="M12 13a1 1 0 00-1-1h-1v1a1 1 0 002 0z" fill="#ECB22E"/><path d="M14 7a1 1 0 01-1 1h-1V7a1 1 0 112 0z" fill="#2EB67D"/><path d="M10 10a1 1 0 011-1h2a1 1 0 110 2h-2a1 1 0 01-1-1z" fill="#ECB22E"/><path d="M9 5a1 1 0 012 0v2a1 1 0 11-2 0V5z" fill="#2EB67D"/><path d="M7 11a1 1 0 112 0v2a1 1 0 11-2 0v-2z" fill="#F1306C"/></g><defs><clipPath id="clip0"><path fill="#fff" d="M0 0h18v18H0z"/></clipPath></defs></svg>