<!-- by TradingView --><svg width="18" height="18" fill="none" xmlns="http://www.w3.org/2000/svg"><path fill="url(#paint0_linear)" d="M0 0h18v18H0z"/><path d="M4.663 6.359C4.91 5.288 5.773 5 6.327 5h6.435c-.693.453-.92 1.497-1.012 2H6.743c-.351 0-.418 0-.555.446l-.832 3.008H3.64s.608-2.284 1.023-4.096z" fill="#00ADE6"/><path d="M11.178 11H3.5L3 13h8.594c.847 0 1.248-.755 1.386-1.208.277-1.006.838-2.902.97-3.622.14-.755.416-1.17.694-1.17H15l.525-2H13.95c-.693 0-1.108.805-1.247 1.208-.277 1.308-1.109 4.195-1.109 4.195s-.139.597-.416.597z" fill="#00ADE6"/><defs><linearGradient id="paint0_linear" x1="3.349" y1="3.122" x2="21.904" y2="24.434" gradientUnits="userSpaceOnUse"><stop stop-color="#1A1E21"/><stop offset="1" stop-color="#06060A"/></linearGradient></defs></svg>