<!-- by TradingView --><svg width="18" height="18" fill="none" xmlns="http://www.w3.org/2000/svg"><path fill="#004C97" d="M0 0h18v18H0z"/><path d="M11.588 8.563l1.343-1.344.47.471-1.342 1.343-.471-.47zm-.525-.525h-.403v.403l.122.122-1.346 1.345-.47-.47 2.218-2.219.47.471-.47.47-.12-.122zm-4.248 2.744l-.471-.47 3.093-3.094.47.471-3.092 3.093zm1.277-3.966l1.344-1.344.47.47-1.344 1.345-.47-.47zm3.562-.874l-1.343 1.344-.47-.47 1.343-1.344.47.47zM14 10.975l-.665-.665.663-.663v-.403h-.404l-.662.663-.47-.47 1.532-1.533v-.426l-.66-.661.665-.666v-.416l-.666-.666.664-.663v-.403h-.403l-.664.663-.664-.664h-.418l-.665.664-.665-.665H10.1L8.563 5.54l-.47-.471.662-.663v-.403h-.402l-.663.663-.665-.664h-.418l-.665.665-.123-.121h-.403v.403l.122.121L4 6.608v.403h.403L5.94 5.472l.471.47-.68.681v.403h.403L7.69 5.471l.47.47-.666.667v.418l.665.664-3.847 3.718v.403h.38l1.249-1.097.47.47-2.408 2.41v.403h.402l3.283-3.283.471.471-1.344 1.4v.477h.402l3.967-4.096.471.47-.78.777v.35h.534l.649-.724.47.471-1.653 1.62v.344h.522l.66-.686.47.47-1.652 1.587V14h.517L14 11.392v-.417zM5.25 4h-.4L4 4.85v.4h.4l.85-.85V4zM14 12.75h-.4l-.85.85v.4h.4l.85-.85v-.4z" fill="#fff"/></svg>