<!-- by TradingView --><svg width="18" height="18" fill="none" xmlns="http://www.w3.org/2000/svg"><path fill="#009AFA" d="M0 0h18v18H0z"/><path d="M5 5h8v9h1V4H5v1z" fill="#FF3E52"/><path d="M4.21 8.55c0 1.226.841 2.006 2.503 2.318l1.567.298c.586.109.784.23.784.488 0 .326-.374.53-.974.53-.688 0-1.098-.211-1.2-.631H4.018C4.173 13.165 5.542 14 8.053 14 10.484 14 12 12.97 12 11.322c0-1.173-.688-1.797-2.328-2.102l-1.824-.339c-.556-.101-.805-.257-.805-.515 0-.332.388-.549.981-.549.622 0 .996.224 1.047.624h2.695C11.7 6.82 10.433 6 7.987 6c-2.35 0-3.778.963-3.778 2.55z" fill="#fff"/></svg>