<!-- by TradingView --><svg width="18" height="18" fill="none" xmlns="http://www.w3.org/2000/svg"><path fill="#00BA6C" d="M0 0h18v18H0z"/><path fill-rule="evenodd" clip-rule="evenodd" d="M13.61 11.11a.401.401 0 01-.279-.115c.025-.233.042-.468.045-.707a.4.4 0 01.234-.078c.23 0 .418.202.418.45a.474.474 0 01-.122.318.396.396 0 01-.296.132zm-9.22 0a.396.396 0 01-.296-.132.45.45 0 01-.122-.317c0-.249.188-.45.418-.45.087 0 .167.029.234.077.003.24.02.474.045.707a.402.402 0 01-.279.115zm9.193-1.974c-.118 0-.231.017-.34.045-.416-1.771-1.77-3.142-3.46-3.466a3.573 3.573 0 00-.22-.036c.012-.444.032-.957.64-1.419L10.105 4s-1.183.395-1.32 1.484c-.06-.296-.611-.667-.884-.737l-.136.235s.362.195.45.733c-1.69.324-3.043 1.695-3.46 3.466a1.337 1.337 0 00-.339-.045C3.636 9.136 3 9.818 3 10.661c0 .84.636 1.524 1.417 1.524.183 0 .358-.039.518-.106.121.324.276.633.46.921l1.177-.853-.01-.014c-.31-.43-.501-1.063-.533-1.694-.036-.694.122-1.385.535-1.79.808-.725 1.777-.574 2.358.172h.156c.58-.746 1.57-.891 2.358-.173.413.406.57 1.097.535 1.792-.032.63-.222 1.263-.533 1.693l-.01.014 1.176.853a4.81 4.81 0 00.46-.921c.166.07.341.106.519.106.781 0 1.417-.683 1.417-1.524 0-.843-.636-1.525-1.417-1.525z" fill="#fff"/></svg>