<!-- by TradingView --><svg width="18" height="18" fill="none" xmlns="http://www.w3.org/2000/svg"><path fill="#039BE5" d="M0 0h18v18H0z"/><path d="M10.125 6.333c.03-.832-.49-1.03-1.22-1.03-.432 0-1.405-.013-1.405.628 0 .642 1.15.79 1.65.92 1.141.29 2.85.247 2.85 2.063C12 10.33 10.585 11 9.01 11 7.426 11 6.029 10.49 6 8.667h1.5c-.01.633.85 1.03 1.528 1.03.434 0 1.453.083 1.472-.684.019-.767-1.845-.724-3.327-1.367C6.484 7.35 6 6.755 6 6.03 6.076 4.437 7.603 4 9.028 4c1.406 0 2.71.714 2.597 2.333h-1.5zM12 12H6v2h6v-2z" fill="#fff"/></svg>