<!-- by TradingView --><svg width="18" height="18" fill="none" xmlns="http://www.w3.org/2000/svg"><path fill="#02505C" d="M0 0h18v18H0z"/><path fill-rule="evenodd" clip-rule="evenodd" d="M11.703 4.693c-1.425-.52-3.124-.104-4.13 1.077-.902 1.013-1.19 2.622-.628 3.882l.144.324c0 .013-.04.052-.065.013-.967-.935-1.346-2.427-.837-3.713.458-1.259 1.778-2.232 3.124-2.271.889-.026 1.686.246 2.392.688z" fill="#F6F8FD"/><path fill-rule="evenodd" clip-rule="evenodd" d="M7.878 4.108c-1.309.608-2.186 1.953-2.173 3.376 0 1.449.903 2.833 2.226 3.415l.445.155c.013.065-.022.065-.092.065-1.23 0-2.37-.634-3.01-1.707-.642-.97-.642-2.484-.04-3.467.55-1.01 1.61-1.591 2.644-1.837z" fill="#F6F8FD"/><path fill-rule="evenodd" clip-rule="evenodd" d="M13.69 6.92c.131.308.236.628.313.955-.653-1.42-2.143-2.323-3.673-2.19-1.463.053-2.888 1.168-3.32 2.589-.007.024-.012.146-.09.093a3.59 3.59 0 012.051-3.32c1.229-.597 2.836-.332 3.83.624.392.346.666.797.888 1.249z" fill="#F6F8FD"/><path fill-rule="evenodd" clip-rule="evenodd" d="M5.679 10.226c1.018 1.022 2.621 1.384 4.044.996.25-.077.516-.155.753-.271l1.52 2.432c-1.492.827-3.78.828-5.244-.026-2.064-1.113-3.096-3.195-2.65-5.368a4.93 4.93 0 01.684-1.617 3.572 3.572 0 00.893 3.854z" fill="#F6F8FD"/></svg>