<!-- by TradingView --><svg width="18" height="18" fill="none" xmlns="http://www.w3.org/2000/svg"><g clip-path="url(#clip0)"><circle cx="9" cy="9" r="9" fill="#0081C6"/><path fill="#0081C6" d="M0 0h18v18H0z"/><path d="M14 4h-2.5L7 15h2.5L14 4z" fill="#fff"/><path d="M4.188 3.82c.997.901 1.99 1.998 2.71 3.285.645 1.152.97 2.274 1.204 3.405.01.04.04.037.056.006.858-1.336 1.383-3.155.615-4.526-.805-1.438-2.737-2.1-4.553-2.233-.063-.002-.075.027-.032.063z" fill="#7CEC33"/></g><defs><clipPath id="clip0"><path fill="#fff" d="M0 0h18v18H0z"/></clipPath></defs></svg>