<!-- by TradingView --><svg width="18" height="18" fill="none" xmlns="http://www.w3.org/2000/svg"><path fill="#F0F3FA" d="M0 0h18v18H0z"/><path d="M4 8.126C3.962 5.82 5.732 4.415 6.622 4l.885.91C5.699 5.969 5.093 7.045 5.093 8.64c0 1.14.458 2.057.782 2.36-.183-.61-.354-1.992.167-3.143.522-1.151 1.803-1.861 2.379-2.072l.891.92c-.914.327-2.735 1.522-2.698 3.696.037 2.173 1.58 3.253 2.268 3.599C6.9 13.09 4.05 11.007 4 8.126z" fill="#77A13F"/><path d="M14 9.874c.039 2.305-1.731 3.711-2.621 4.126l-.885-.91c1.807-1.059 2.413-2.006 2.413-3.73 0-1.14-.458-2.057-.782-2.36.183.61.354 1.992-.167 3.143-.522 1.151-1.803 1.861-2.379 2.072l-.891-.92c.914-.327 2.735-1.522 2.698-3.696C11.349 5.426 9.784 4.335 9.118 4 11.1 4.91 13.95 6.993 14 9.874z" fill="#177EC6"/></svg>