<!-- by TradingView --><svg width="18" height="18" fill="none" xmlns="http://www.w3.org/2000/svg"><path fill="url(#paint0_linear)" d="M0 0h18v18H0z"/><path d="M4.878 8.973a4.098 4.098 0 004.094 4.094 4.098 4.098 0 004.095-4.094 4.098 4.098 0 00-4.095-4.095 4.098 4.098 0 00-4.094 4.095zm.819.093c0-1.902 1.373-3.406 3.275-3.406s3.323 1.41 3.323 3.313c0 1.902-1.42 3.324-3.323 3.324-1.902.013-3.275-1.33-3.275-3.231z" fill="#fff"/><path d="M4 9c0 2.759 2.241 5 5 5s5-2.241 5-5-2.241-5-5-5-5 2.241-5 5zm.784 0a4.2 4.2 0 118.401 0 4.2 4.2 0 01-8.401 0z" fill="#fff"/><path d="M12.37 8.969a3.392 3.392 0 01-3.386 3.385A3.392 3.392 0 015.6 8.97a3.392 3.392 0 013.385-3.386c1.865.016 3.386 1.52 3.386 3.386z" fill="#1F3D92"/><path d="M9 6l.625 2h2.187l-1.734 1.352.672 2.148L9 10.172 7.265 11.5l.672-2.148L6.188 8h2.187L9 6z" fill="#fff"/><path d="M4.125 8.969a4.863 4.863 0 004.86 4.859 4.863 4.863 0 004.858-4.86A4.863 4.863 0 008.984 4.11a4.863 4.863 0 00-4.859 4.859zm.768 0a4.094 4.094 0 014.091-4.091 4.094 4.094 0 014.091 4.09 4.094 4.094 0 01-4.09 4.092c-2.258.015-4.092-1.834-4.092-4.091z" fill="#BE311A"/><defs><linearGradient id="paint0_linear" x1="3.349" y1="3.122" x2="21.904" y2="24.434" gradientUnits="userSpaceOnUse"><stop stop-color="#1A1E21"/><stop offset="1" stop-color="#06060A"/></linearGradient></defs></svg>