<!-- by TradingView --><svg width="18" height="18" fill="none" xmlns="http://www.w3.org/2000/svg"><path fill="#00AEEF" d="M0 0h18v18H0z"/><path opacity=".8" d="M11.09 8.8c0-1.855-.657-3.836-2.09-4.7-2.071 1.219-2.213 4.43-2.213 4.7C4.148 9.976 4.126 11.77 4 12.595c.857.795 3.974.598 5.013-.646 1.744 1.819 4.987.655 4.987.655s-.636-3.698-2.91-3.804z" fill="#fff"/><path d="M9.607 9.325c-.277-.524-.44-.849-.607-3.424-.138 2.632-.405 3.028-.645 3.424-.24.396-2.91 2.415-2.91 2.415s2.944-1.5 3.56-1.5c.615 0 3.528 1.5 3.528 1.5S9.94 9.952 9.607 9.325z" fill="#00AEEF"/></svg>