<!-- by TradingView --><svg width="18" height="18" fill="none" xmlns="http://www.w3.org/2000/svg"><path fill="#FC0101" d="M0 0h18v18H0z"/><circle cx="9" cy="9" r="9" fill="#FC0101"/><path d="M13.79 11.99a3.55 3.55 0 01-1.04-.234c-.145-.06-.22-.488-.224-.636-.01-.314-.013-.627-.028-.94h.324l.032.239c.121.888.522 1.254 1.363 1.254.559 0 .969-.226 1.143-.656.142-.348.089-.64-.08-.975-.145-.239-.314-.412-1.1-.716-.234-.09-.511-.206-.617-.257-.686-.336-1.027-.811-1.025-1.434.001-.798.46-1.373 1.258-1.581.278-.073.956-.065 1.245.014.272.075.632.212.67.257 0 0 .056.99.078 1.295h-.259l-.057-.28c-.132-.655-.439-.908-.974-.994-.433-.07-.958.092-1.164.36-.158.202-.21.27-.21.594 0 .428.205.69.575.873.518.257 1.089.366 1.581.684.395.256.615.598.693 1.08.096.59-.075 1.22-.515 1.617-.402.364-.899.492-1.67.437zm-9.707-.034c-.87-.162-1.437-.598-1.552-1.5-.018-.139-.05-.976-.05-2.18V6.5H2V6h1.998L4 6.5h-.41v1.559c-.01 2.255.016 2.619.22 3.02.2.396.5.594 1.077.594.653 0 .991-.399 1.082-.775.09-.375.031-.85.031-2.633V6.5h-.5v-.496H7V6.5h-.5v1.94c-.001 2.125-.027 2.258-.048 2.357-.149.717-.542.957-1.154 1.117-.286.075-.919.097-1.215.042zm3.328-.285h.637V6.5H7.41v-.496h2.845c.456 0 .9.374 1.075.71.15.289.196.651.126.99-.075.362-.23.586-.542.78a1.491 1.491 0 01-.458.211c-.12.027-.2.04-.2.04 1.058.103 1.493.653 1.493 1.579 0 .51-.125.836-.433 1.134a1.655 1.655 0 01-.738.431c-.207.057-.284.116-1.675.125H7.41v-.333zm2.562-.037c.467-.118.78-.432.883-.887.066-.286.043-.81-.044-1.033-.105-.272-.259-.458-.476-.58-.218-.122-.4-.13-.91-.13h-.423v2.67h.381c.295 0 .482-.012.589-.04zM9.97 8.563c.453-.143.717-.493.712-1.094-.005-.626-.349-.969-.826-.969h-.854v2.083s.904 0 .968-.02z" fill="#fff"/></svg>