<!-- by TradingView --><svg width="18" height="18" fill="none" xmlns="http://www.w3.org/2000/svg"><path fill="#F0F3FA" d="M0 0h18v18H0z"/><path d="M13.106 8.738a3.149 3.149 0 00-.74-1.743 3.184 3.184 0 00-5.015.236 2.832 2.832 0 012.31-.789 2.839 2.839 0 012.066 1.294 2.809 2.809 0 01-1.422 4.15 3.662 3.662 0 002.713-2.054c.088-.358.118-.727.088-1.094z" fill="#B3B3B3"/><path d="M13.376 7.721a4.05 4.05 0 00-1.918-3.076A3.894 3.894 0 006.784 6.49a3.865 3.865 0 001.06 4.897 3.152 3.152 0 01-1.025-2.761 3.146 3.146 0 011.712-2.4 3.173 3.173 0 014.07 1.087c.282.429.455.92.503 1.431.03.366 0 .735-.088 1.092v-.014c.012-.025.023-.054.036-.08a4.046 4.046 0 00.324-2.02z" fill="#88AE3B"/><path d="M10.227 12.19A3.873 3.873 0 016.381 7.69a3.87 3.87 0 015.084-3.03l.034.015c-.049-.027-.097-.06-.146-.086-.4-.231-.836-.392-1.29-.476A5.004 5.004 0 004.006 9.24a4.999 4.999 0 006.523 4.52A5.002 5.002 0 0014 9.194a3.873 3.873 0 01-3.773 2.996z" fill="#0E4F82"/></svg>