<!-- by TradingView --><svg width="18" height="18" fill="none" xmlns="http://www.w3.org/2000/svg"><path fill="url(#paint0_linear)" d="M0 0h18v18H0z"/><path d="M6.883 8.334c-.24.59-.672 1.626-.86 2.096-.038.098-.045.282.101.348.146.065.361.037.474-.186.12-.308.376-.84.48-.959.105-.118.178.05.202.148l.753 3.803c.01.152.097.446.364.414.267-.034.367-.29.383-.413.55-4.462 1.604-6.331 1.952-7.19.177-.433.74-1.243.954-1.431.21-.18.5-.625.153-.853-.368-.244-.815-.033-.93.134-1.299 1.89-2.216 5.638-2.512 7.275-.226-1.033-.66-3.13-.69-3.238-.045-.15-.13-.33-.38-.33-.194 0-.385.236-.444.382z" fill="#fff"/><defs><linearGradient id="paint0_linear" x1="3.349" y1="3.122" x2="21.904" y2="24.434" gradientUnits="userSpaceOnUse"><stop stop-color="#1A1E21"/><stop offset="1" stop-color="#06060A"/></linearGradient></defs></svg>