<!-- by TradingView --><svg width="18" height="18" fill="none" xmlns="http://www.w3.org/2000/svg"><path fill="url(#paint0_linear)" d="M0 0h18v18H0z"/><path d="M6 5H4l2.915 6.96a.062.062 0 00.116 0L8 9.667 6 5zm6 0s-3.175 7.162-3.592 7.822c-.484.768-.805 1.061-1.398 1.155a.011.011 0 00-.01.012c0 .006.005.011.011.011H8.87c.805 0 1.385-.676 1.707-1.273C10.943 12.05 14 5 14 5h-2z" fill="#fff"/><defs><linearGradient id="paint0_linear" x1="3.349" y1="3.122" x2="21.904" y2="24.434" gradientUnits="userSpaceOnUse"><stop stop-color="#1A1E21"/><stop offset="1" stop-color="#06060A"/></linearGradient></defs></svg>