<!-- by TradingView --><svg width="18" height="18" fill="none" xmlns="http://www.w3.org/2000/svg"><path fill="#C50D2F" d="M0 0h18v18H0z"/><path d="M8.195 8.706l1.67 1.624c.047.047.097.09.155.142.334-.194.646-.386.98-.58V6.647l2.264 1.301c.188.114.366.261.508.428.323.38.299.889-.047 1.25-.13.135-.28.26-.44.355-2.167 1.268-4.34 2.526-6.503 3.799-.344.202-.702.248-1.073.205-.273-.031-.459-.233-.559-.481a1.73 1.73 0 01-.14-.599C4.997 12.03 5 10.875 5 10c0-.026-.004.048 0 0l2.777 1.78 1.01-.589-.592-2.485z" fill="#fff"/><path d="M10 6.286l.002-.225a.21.21 0 00-.104-.154c-.311-.178-.628-.348-.944-.518-.376-.2-.753-.398-1.13-.597h-.003l-.713-.387h-.007l-.166-.096H6.93l-.235-.129h-.006l-.18-.082-.283-.075L5.892 4l-.205.034a.723.723 0 00-.449.32l-.133.226-.093.324-.01.385v3.568L7.37 10 6.98 8.482l-.204-.807-.11-.498c.03-.023.064-.05.099-.075l.413-.228.324-.169.263-.127c.108.094.215.188.324.28.209.178.418.354.628.53.3.276.6.554.903.828.118.108.244.237.382.355v-.573-.419c0-.118-.002-.236-.001-.355v-.29-.486-.162z" fill="#fff"/></svg>