<!-- by TradingView --><svg width="18" height="18" fill="none" xmlns="http://www.w3.org/2000/svg"><path fill="#DC0605" d="M0 0h18v18H0z"/><path d="M11.265 4.04s.636-.066 1.134.288c.18-.009.326.075.42.262.095.187.267.635.13.905-.043.056-.138-.168-.138-.168s-.069.271-.197.374c.017.56-.19.952-.25 1.083-.025.075-.008.14.018.215.026.074.37 1.39.352 1.83-.017.438-.223.96-.386 1.138.034.364-.12.672-.198.822-.077.149-.25.71-.292.97-.043.262-.06.542-.009.626.052.084.284.345.267.476-.018.13-.267.28-.387.28s-.37-.084-.43-.261a1.442 1.442 0 01-.025-.663c.043-.177.335-1.475.163-2.24-.42.205-1.125.196-1.125.196s-.12.681-.266 1.073c-.052.093-.043.728-.043 1.13 0 .401.129 1.027.129 1.027s.18.14.154.317c-.025.177-.232.28-.412.28-.18 0-.42-.15-.42-.392 0-.243.033-.793.016-1.195s-.008-.663-.068-.915c-.06-.252-.232-.915-.25-1.428-.06 0-.12-.047-.12-.047s-.283.355-.48.56c.025.14.094.392.094.448 0 .056.052.103.137.14.086.038.352.196.344.355-.009.159-.344.187-.636.047-.068-.037-.317-.943-.352-1.064-.034-.122-.06-.187-.017-.29.043-.103.163-.439.146-.635-.017-.196-.352-.504-.576-.504-.171 0-.434.285-.626.448-.232.196-.499.495-.567.542-.07.046-.61 1.11-.713 1.419-.043.121-.129.728-.584.71-.206-.02-.395-.262.189-.7.148-.372.354-.757.367-.834.013-.077.168-1.037.425-1.947.258-.91.638-1.344.709-1.407.058-.049.09-.077.032-.112-.058-.035-.67-.602-.554-1.806.02-.14.077-.105.116.217.039.322.277 1.078.805 1.316.052.021.432-.294 2.37-.448.013-.371.065-.763.065-.763s-.135-.112-.155-.336c-.064.112-.103.14-.187.126-.083-.014-.077-.448-.058-.757.02-.308.348-.44.47-.455.162-.09.336-.077.336-.077s.296-.326 1.133-.177z" fill="#fff"/></svg>